<?xml version="1.0" encoding="UTF-8"?> <svg xmlns="http://www.w3.org/2000/svg" xmlns:xlink="http://www.w3.org/1999/xlink" id="_Ñëîé_6" data-name="Ñëîé 6" viewBox="0 0 195.27 195.27"><defs><style> .cls-1 { fill: url(#linear-gradient); stroke-width: 0px; } .cls-2 { fill: none; stroke: #fff; stroke-linecap: round; stroke-linejoin: round; stroke-width: 2px; } </style><linearGradient id="linear-gradient" x1="165.24" y1="167.33" x2="30.3" y2="28.22" gradientUnits="userSpaceOnUse"><stop offset="0" stop-color="#1b87e8"></stop><stop offset="1" stop-color="#78c5ff"></stop></linearGradient></defs><rect class="cls-1" x="0" y="0" width="195.27" height="195.27" rx="97.64" ry="97.64"></rect><g><polyline class="cls-2" points="77.84 134.61 77.84 146.75 119.43 146.75 119.43 143.32 119.43 134.61"></polyline><polyline class="cls-2" points="70.8 69.9 73.5 59.88 123.45 59.88 126.34 69.9"></polyline><line class="cls-2" x1="97.64" y1="59.88" x2="97.64" y2="48.52"></line><line class="cls-2" x1="84.54" y1="48.52" x2="110.73" y2="48.52"></line><path class="cls-2" d="m57.11,76.68c-3.84-5.79-3.54-13.34.84-18.37"></path><path class="cls-2" d="m53.25,82.61c-7.61-8.78-7.32-21.83.56-30.08"></path><path class="cls-2" d="m138.16,76.68c3.84-5.79,3.54-13.34-.84-18.37"></path><path class="cls-2" d="m142.02,82.61c7.61-8.78,7.32-21.83-.56-30.08"></path><polyline class="cls-2" points="70.49 80.57 73.82 105.1 71.59 121.18"></polyline><polyline class="cls-2" points="127.9 80.57 123.45 105.1 125.09 121.52"></polyline><rect class="cls-2" x="64.38" y="69.9" width="68.18" height="10.67"></rect><line class="cls-2" x1="123.45" y1="105.1" x2="73.82" y2="105.1"></line><g><line class="cls-2" x1="106.11" y1="105.1" x2="108.75" y2="80.57"></line><line class="cls-2" x1="91.16" y1="105.1" x2="88.52" y2="80.57"></line></g><polygon class="cls-2" points="128.16 134.61 69.11 134.61 64.71 121.52 132.56 121.52 128.16 134.61"></polygon></g></svg> 