<?xml version="1.0" encoding="UTF-8"?> <svg xmlns="http://www.w3.org/2000/svg" id="_Ñëîé_6" data-name="Ñëîé 6" viewBox="0 0 129.47 130"><defs><style> .cls-1 { stroke: #105ea3; } .cls-1, .cls-2 { fill: none; stroke-linecap: round; stroke-linejoin: round; stroke-width: 2px; } .cls-2 { stroke: #86c4ea; } </style></defs><path class="cls-2" d="m44.42,93.81l-5.51,4.06c-3.85,2.84-8.38,4.63-13.13,5.18l-1.06.12c-3.05.35-5.38-2.66-4.27-5.52l1.38-3.55c.22-.56,0-1.2-.53-1.51l-3.22-1.95c-.64-.39-.91-1.18-.63-1.88l.45-1.13c.27-.67.03-1.44-.57-1.85h0c-.62-.41-.85-1.2-.56-1.88l1.15-2.68c.25-.59,0-1.27-.56-1.57l-2.52-1.32c-1.91-1-2.32-3.55-.82-5.09l4.74-4.89c1.55-1.6,1.61-4.14.12-5.8-.02-.02-.04-.04-.06-.06-2-2.25-2.81-5.31-2.19-8.26.95-4.51,3.08-10.69,8.02-16.33,7.59-8.66,16.87-11.13,22.74-11.88,5.4-.48,9.05.87,9.97,1.49"></path><path class="cls-2" d="m36.27,99.6c2.85,4.38,2.97,10.13,1.96,12.79h0c-.31.82.29,1.71,1.18,1.71h32.18c3.66,0,6.06-3.84,4.45-7.12-1.9-3.89-3.14-8.39-2.46-13.14.21-1.46.92-5.9,5.5-11.03"></path><path class="cls-1" d="m116.37,54v-9.36l-5.96-.88c-.73-3.62-2.15-6.99-4.13-9.96l3.59-4.84-6.62-6.62-4.84,3.59c-2.97-1.98-6.34-3.4-9.96-4.13l-.88-5.96h-9.36l-.88,5.96c-3.62.73-6.99,2.15-9.96,4.13l-4.84-3.59-6.62,6.62,3.59,4.84c-1.98,2.97-3.4,6.34-4.13,9.96l-5.96.88v9.36l5.96.88c.73,3.62,2.15,6.99,4.13,9.96l-3.59,4.84,6.62,6.62,4.84-3.59c2.97,1.98,6.34,3.4,9.96,4.13l.88,5.96h9.36l.88-5.96c3.62-.73,6.99-2.15,9.96-4.13l4.84,3.59,6.62-6.62-3.59-4.84c1.98-2.97,3.4-6.34,4.13-9.96l5.96-.88Z"></path><line class="cls-2" x1="94.25" y1="37.95" x2="102.28" y2="37.95"></line><line class="cls-2" x1="63.55" y1="37.95" x2="79.43" y2="37.95"></line><circle class="cls-1" cx="89.44" cy="37.95" r="3.91" transform="translate(32.03 116.34) rotate(-76.77)"></circle><line class="cls-2" x1="93.84" y1="60.69" x2="102.28" y2="60.69"></line><line class="cls-2" x1="63.55" y1="60.69" x2="79.43" y2="60.69"></line><circle class="cls-1" cx="89.44" cy="60.69" r="3.91" transform="translate(-16.72 81.02) rotate(-45)"></circle><line class="cls-2" x1="83.03" y1="49.32" x2="102.23" y2="49.32"></line><line class="cls-2" x1="63.51" y1="49.32" x2="68.86" y2="49.32"></line><circle class="cls-1" cx="73.1" cy="49.32" r="3.91" transform="translate(8.25 109.07) rotate(-76.66)"></circle></svg> 