<?xml version="1.0" encoding="UTF-8"?> <svg xmlns="http://www.w3.org/2000/svg" id="_Ñëîé_6" data-name="Ñëîé 6" viewBox="0 0 42.88 41.2"><defs><style> .cls-1 { fill: #fff; fill-rule: evenodd; stroke-width: 0px; } </style></defs><path class="cls-1" d="m7.91,6.87c0-.3.24-.53.53-.53h6.27c.29,0,.53.24.53.53s-.24.53-.53.53h-6.27c-.3,0-.53-.24-.53-.53h0Zm14.97,5.69h-14.33c-.29,0-.53-.24-.53-.53s.24-.53.53-.53h14.33c.29,0,.53.24.53.53s-.24.53-.53.53h0Zm-14.33-3.65h10.13c.29,0,.53.24.53.53s-.24.53-.53.53h-10.13c-.29,0-.53-.24-.53-.53s.24-.53.53-.53h0Zm22.65,21.11c0,.29-.24.53-.53.53h-14.33c-.3,0-.53-.24-.53-.53s.24-.53.53-.53h14.33c.3,0,.53.24.53.53h0Zm-15.39-2.41c0-.29.24-.53.53-.53h9.78c.3,0,.53.24.53.53s-.24.53-.53.53h-9.78c-.3,0-.53-.24-.53-.53h0Zm15.39-3.58c0,.29-.24.53-.53.53h-14.33c-.3,0-.53-.24-.53-.53s.24-.53.53-.53h14.33c.3,0,.53.24.53.53h0Zm-15.39-2.41c0-.3.24-.53.53-.53h9.78c.3,0,.53.24.53.53s-.24.53-.53.53h-9.78c-.3,0-.53-.24-.53-.53h0Zm15.39-3.58c0,.29-.24.53-.53.53h-14.33c-.3,0-.53-.24-.53-.53s.24-.53.53-.53h14.33c.3,0,.53.24.53.53h0Zm-14.86-2.95h9.78c.3,0,.53.24.53.53s-.24.53-.53.53h-9.78c-.3,0-.53-.24-.53-.53s.24-.53.53-.53h0Zm-1.85,11.64c.21.21.21.55,0,.75l-3.17,3.17c-.1.1-.24.16-.38.16s-.28-.06-.38-.16l-1.81-1.81c-.21-.21-.21-.55,0-.75.21-.21.55-.21.76,0l1.43,1.43,2.79-2.79c.21-.21.55-.21.75,0h0Zm0-5.84c.21.21.21.55,0,.76l-3.17,3.17c-.1.1-.24.16-.38.16s-.27-.05-.38-.16l-1.81-1.81c-.21-.21-.21-.55,0-.76.21-.21.55-.21.76,0l1.43,1.43,2.79-2.79c.21-.21.55-.21.75,0h0Zm0-5.84c.21.21.21.55,0,.75l-3.17,3.17c-.1.1-.24.16-.38.16s-.27-.05-.38-.16l-1.81-1.81c-.21-.21-.21-.55,0-.75s.55-.21.76,0l1.43,1.43,2.79-2.79c.21-.21.55-.21.75,0h0ZM30.77,5.37c.21.21.21.55,0,.76l-2.75,2.75c-.1.1-.24.16-.38.16s-.27-.05-.38-.16l-1.21-1.21c-.21-.21-.21-.55,0-.76.21-.21.55-.21.75,0l.83.83,2.38-2.38c.21-.21.55-.21.76,0h0Zm-.04,4.01c.69-1.11.97-2.62.86-4.59-1.32-.35-2.53-.92-3.49-1.64-.95.71-2.17,1.28-3.49,1.64-.11,1.97.17,3.48.86,4.59.56.89,1.39,1.56,2.63,2.08,1.23-.52,2.07-1.18,2.63-2.08h0Zm1.49-5.54c-1.45-.34-2.83-.99-3.77-1.78-.2-.17-.49-.17-.69,0-.94.79-2.32,1.44-3.77,1.78-.23.05-.39.25-.41.48-.19,2.4.13,4.24.99,5.62.71,1.14,1.77,1.97,3.34,2.59.06.02.13.04.2.04s.13-.01.2-.04c1.57-.62,2.63-1.44,3.34-2.59.86-1.38,1.18-3.22.99-5.62-.02-.23-.18-.42-.41-.48h0Zm9.6,3.06h-5.84v-2.92c0-1.61,1.31-2.92,2.92-2.92s2.92,1.31,2.92,2.92v2.92h0Zm-6.9,30.35V3.99c0-1.15.49-2.19,1.28-2.92H7.85c-1.52,0-2.75,1.23-2.75,2.75v29.49h23.52c.29,0,.53.24.53.53v3.41c0,1.59,1.29,2.88,2.88,2.88s2.88-1.29,2.88-2.88h0Zm-30.96,2.88c-1.59,0-2.88-1.29-2.88-2.88v-2.88h27.01v2.88c0,1.14.48,2.16,1.25,2.88H3.95ZM38.9,0H7.85c-2.1,0-3.82,1.71-3.82,3.82v29.49H.53c-.29,0-.53.24-.53.53v3.41c0,2.18,1.77,3.95,3.95,3.95h28.08c2.18,0,3.95-1.77,3.95-3.95V7.97h6.37c.29,0,.53-.24.53-.53v-3.45c0-2.2-1.79-3.99-3.99-3.99Z"></path></svg> 