<?xml version="1.0" encoding="UTF-8"?> <svg xmlns="http://www.w3.org/2000/svg" xmlns:xlink="http://www.w3.org/1999/xlink" id="_Ñëîé_6" data-name="Ñëîé 6" viewBox="0 0 195.27 195.27"><defs><style> .cls-1 { fill: url(#linear-gradient); stroke-width: 0px; } .cls-2 { fill: none; stroke: #fff; stroke-linecap: round; stroke-linejoin: round; stroke-width: 3px; } </style><linearGradient id="linear-gradient" x1="188.93" y1="191.75" x2="6.71" y2="3.9" gradientUnits="userSpaceOnUse"><stop offset="0" stop-color="#105ea3"></stop><stop offset="1" stop-color="#86c4ea"></stop></linearGradient></defs><rect class="cls-1" width="195.27" height="195.27" rx="15" ry="15"></rect><g><g><path class="cls-2" d="m97.64,148.08c-11.64,0-29.1-13.58-32.98-31.01"></path><path class="cls-2" d="m133.51,119.97c-1.94,9.66-8.71,8.67-20.35,8.71"></path><path class="cls-2" d="m133.95,86.85s-12.66-6.44-18.12-13.64c-4.88-6.45-5.46-14.38-5.46-14.38,0,0-2.44,8.23-12.73,10.77-14.55,3.6-32.05,11.24-35.69,20.25"></path><path class="cls-2" d="m74.35,136.97v13.69c0,1.88-1.34,3.48-3.19,3.82l-18.16,3.3"></path><path class="cls-2" d="m120.92,136.97v13.69c0,1.88,1.34,3.48,3.19,3.82l18.16,3.3"></path></g><path class="cls-2" d="m63.49,100.18c1.67,9.5,4.69,16.91-2.7,18.21-7.39,1.3-10.91-6.01-12.59-15.51s-.87-17.58,6.52-18.88c7.39-1.3,7.09,6.69,8.76,16.19Z"></path><path class="cls-2" d="m131.78,100.18c-1.67,9.5-4.69,16.91,2.7,18.21,7.39,1.3,10.91-6.01,12.59-15.51s.87-17.58-6.52-18.88c-7.39-1.3-7.09,6.69-8.76,16.19Z"></path><ellipse class="cls-2" cx="107.34" cy="128.68" rx="5.82" ry="3.88"></ellipse><path class="cls-2" d="m133.51,119.97c-7.42,17-29.18,28.11-35.88,28.11"></path><path class="cls-2" d="m140.32,84.05s7.76-46.57-42.69-46.57-42.69,46.57-42.69,46.57"></path></g></svg> 