<?xml version="1.0" encoding="UTF-8"?> <svg xmlns="http://www.w3.org/2000/svg" id="_Ñëîé_6" data-name="Ñëîé 6" viewBox="0 0 129.47 130"><defs><style> .cls-1 { stroke: #105ea3; } .cls-1, .cls-2 { fill: none; stroke-linecap: round; stroke-linejoin: round; stroke-width: 2px; } .cls-2 { stroke: #86c4ea; } </style></defs><circle class="cls-1" cx="64.81" cy="51.02" r="8"></circle><path class="cls-2" d="m55.45,91.16l-.05-14.11c0-.71-.25-1.4-.7-1.95l-6.51-7.97c-2.93-3.59-4.79-7.94-5.35-12.54l-.82-6.68c-.26-2.11,1.39-3.98,3.52-3.98h0c1.82,0,3.34,1.38,3.53,3.18l.46,4.48c.47,4.53,2.18,8.84,4.95,12.44h0c.58.76,1.49,1.21,2.45,1.21h15.61c.96,0,1.86-.45,2.45-1.21h0c2.77-3.61,4.48-7.92,4.95-12.44l.46-4.48c.19-1.81,1.71-3.18,3.53-3.18h0c2.13,0,3.78,1.86,3.52,3.98l-.82,6.68c-.57,4.6-2.42,8.95-5.35,12.54l-6.51,7.97c-.45.55-.7,1.24-.7,1.95v14.11"></path><path class="cls-1" d="m66.15,81.71l4.16,8.42c.23.47.67.79,1.19.86l9.3,1.35c1.29.19,1.81,1.78.87,2.69l-6.73,6.56c-.37.36-.54.88-.45,1.4l1.59,9.26c.22,1.29-1.13,2.27-2.29,1.66l-8.31-4.37c-.46-.24-1.01-.24-1.47,0l-8.31,4.37c-1.16.61-2.51-.37-2.29-1.66l1.59-9.26c.09-.51-.08-1.03-.45-1.4l-6.73-6.56c-.94-.91-.42-2.5.87-2.69l9.3-1.35c.51-.07.96-.4,1.19-.86l4.16-8.42c.58-1.17,2.25-1.17,2.83,0Z"></path><path class="cls-2" d="m98.49,62.73l-2.61,5.29c-.14.29-.42.49-.75.54l-5.84.85c-.81.12-1.14,1.12-.55,1.69l4.23,4.12c.23.23.34.56.28.88l-1,5.82c-.14.81.71,1.43,1.44,1.04l5.22-2.75c.29-.15.63-.15.92,0l5.22,2.75c.73.38,1.58-.23,1.44-1.04l-1-5.82c-.06-.32.05-.65.28-.88l4.23-4.12c.59-.57.26-1.57-.55-1.69l-5.84-.85c-.32-.05-.6-.25-.75-.54l-2.61-5.29c-.36-.74-1.41-.74-1.78,0Z"></path><path class="cls-2" d="m29.21,62.73l-2.61,5.29c-.14.29-.42.49-.75.54l-5.84.85c-.81.12-1.14,1.12-.55,1.69l4.23,4.12c.23.23.34.56.28.88l-1,5.82c-.14.81.71,1.43,1.44,1.04l5.22-2.75c.29-.15.63-.15.92,0l5.22,2.75c.73.38,1.58-.23,1.44-1.04l-1-5.82c-.06-.32.05-.65.28-.88l4.23-4.12c.59-.57.26-1.57-.55-1.69l-5.84-.85c-.32-.05-.6-.25-.75-.54l-2.61-5.29c-.36-.74-1.41-.74-1.78,0Z"></path><path class="cls-1" d="m28.94,28.78l1.86,3.78c.1.21.3.35.53.39l4.17.61c.58.08.81.8.39,1.21l-3.02,2.94c-.17.16-.24.4-.2.63l.71,4.15c.1.58-.51,1.02-1.03.75l-3.73-1.96c-.21-.11-.45-.11-.66,0l-3.73,1.96c-.52.27-1.12-.17-1.03-.75l.71-4.15c.04-.23-.04-.46-.2-.63l-3.02-2.94c-.42-.41-.19-1.12.39-1.21l4.17-.61c.23-.03.43-.18.53-.39l1.86-3.78c.26-.53,1.01-.53,1.27,0Z"></path><path class="cls-2" d="m65.37,16.37l1.86,3.78c.1.21.3.35.53.39l4.17.61c.58.08.81.8.39,1.21l-3.02,2.94c-.17.16-.24.4-.2.63l.71,4.15c.1.58-.51,1.02-1.03.75l-3.73-1.96c-.21-.11-.45-.11-.66,0l-3.73,1.96c-.52.27-1.12-.17-1.03-.75l.71-4.15c.04-.23-.04-.46-.2-.63l-3.02-2.94c-.42-.41-.19-1.12.39-1.21l4.17-.61c.23-.03.43-.18.53-.39l1.86-3.78c.26-.53,1.01-.53,1.27,0Z"></path><path class="cls-1" d="m100.54,28.78l-1.86,3.78c-.1.21-.3.35-.53.39l-4.17.61c-.58.08-.81.8-.39,1.21l3.02,2.94c.17.16.24.4.2.63l-.71,4.15c-.1.58.51,1.02,1.03.75l3.73-1.96c.21-.11.45-.11.66,0l3.73,1.96c.52.27,1.12-.17,1.03-.75l-.71-4.15c-.04-.23.04-.46.2-.63l3.02-2.94c.42-.41.19-1.12-.39-1.21l-4.17-.61c-.23-.03-.43-.18-.53-.39l-1.86-3.78c-.26-.53-1.01-.53-1.27,0Z"></path></svg> 