<?xml version="1.0" encoding="UTF-8"?> <svg xmlns="http://www.w3.org/2000/svg" xmlns:xlink="http://www.w3.org/1999/xlink" id="_Ñëîé_6" data-name="Ñëîé 6" viewBox="0 0 195.27 195.27"><defs><style> .cls-1 { fill: url(#linear-gradient); stroke-width: 0px; } .cls-2 { fill: none; stroke: #fff; stroke-linecap: round; stroke-linejoin: round; stroke-width: 2px; } </style><linearGradient id="linear-gradient" x1="165.24" y1="167.33" x2="30.3" y2="28.22" gradientUnits="userSpaceOnUse"><stop offset="0" stop-color="#1b87e8"></stop><stop offset="1" stop-color="#78c5ff"></stop></linearGradient></defs><rect class="cls-1" x="0" y="0" width="195.27" height="195.27" rx="97.64" ry="97.64"></rect><g><path class="cls-2" d="m129,82.72c4.18,0,7.57,3.44,7.57,7.68s-3.39,7.68-7.57,7.68"></path><path class="cls-2" d="m66.27,82.72c-4.18,0-7.57,3.44-7.57,7.68s3.39,7.68,7.57,7.68"></path><path class="cls-2" d="m107.04,81.94h1.36c.98,0,1.94-.28,2.76-.81l17.83-11.5v41.55l-17.83-11.49c-.82-.53-1.78-.81-2.76-.81h-1.36"></path><line class="cls-2" x1="101.05" y1="70.02" x2="101.05" y2="79.44"></line><line class="cls-2" x1="94.2" y1="79.01" x2="94.2" y2="69.98"></line><rect class="cls-2" x="88.63" y="63.36" width="17.98" height="6.66"></rect><path class="cls-2" d="m90.34,63.36v-7.46c0-4.02,3.26-7.28,7.28-7.28h0c4.02,0,7.28,3.26,7.28,7.28v7.46"></path><g><path class="cls-2" d="m146.04,99.64c2.15-2.59,3.42-5.79,3.42-9.24s-1.27-6.65-3.42-9.24"></path><path class="cls-2" d="m140.85,96.58c1.26-1.8,1.99-3.91,1.99-6.18s-.73-4.38-1.99-6.18"></path></g><path class="cls-2" d="m88.23,81.94h-1.36c-.98,0-1.94-.28-2.76-.81l-17.83-11.5v41.55l17.83-11.49c.82-.53,1.78-.81,2.76-.81h1.36"></path><g><path class="cls-2" d="m49.23,99.64c-2.15-2.59-3.42-5.79-3.42-9.24s1.27-6.65,3.42-9.24"></path><path class="cls-2" d="m54.42,96.58c-1.26-1.8-1.99-3.91-1.99-6.18s.73-4.38,1.99-6.18"></path></g><polyline class="cls-2" points="91.95 102.56 91.95 146.66 103.29 146.66 103.29 101.36"></polyline><path class="cls-2" d="m93.96,79.44h7.32c2.94,0,5.33,2.39,5.33,5.33v11.6c0,2.94-2.39,5.33-5.33,5.33h-7.32c-2.94,0-5.33-2.39-5.33-5.33v-11.6c0-2.94,2.39-5.33,5.33-5.33Z"></path></g></svg> 