<?xml version="1.0" encoding="UTF-8"?> <svg xmlns="http://www.w3.org/2000/svg" xmlns:xlink="http://www.w3.org/1999/xlink" id="_Ñëîé_6" data-name="Ñëîé 6" viewBox="0 0 195.27 195.27"><defs><style> .cls-1 { fill: url(#linear-gradient); stroke-width: 0px; } .cls-2 { fill: none; stroke: #fff; stroke-linecap: round; stroke-linejoin: round; stroke-width: 2px; } </style><linearGradient id="linear-gradient" x1="165.24" y1="167.33" x2="30.3" y2="28.22" gradientUnits="userSpaceOnUse"><stop offset="0" stop-color="#1b87e8"></stop><stop offset="1" stop-color="#78c5ff"></stop></linearGradient></defs><rect class="cls-1" x="0" y="0" width="195.27" height="195.27" rx="97.64" ry="97.64"></rect><g><path class="cls-2" d="m107.53,115.7c1.56,5.26,8,7.89,12.15,8.11,5.33.29,10.03-2.92,11.91-7.62,1.14,1.88,3.15,3.18,5.51,3.3,3.79.2,7.03-2.71,7.24-6.5.08-1.51-.34-2.92-1.1-4.1,5.39-1.07,9.58-5.66,9.89-11.39.36-6.78-4.84-12.57-11.62-12.94-1-.05-1.98.03-2.93.2.28-.69.46-1.44.51-2.23.2-3.79-2.71-7.03-6.5-7.24-2.88-.15-5.43,1.48-6.59,3.94-1.5-3.75-5.05-6.73-9.36-6.73-5.39,0-6.66,1.76-7.45,2.95"></path><path class="cls-2" d="m95.03,104.31c-2.9,8.69-11.11,14.96-20.77,14.96-12.09,0-21.9-9.8-21.9-21.9s9.8-21.9,21.9-21.9c7.66,0,14.4,3.93,18.32,9.89"></path><path class="cls-2" d="m140.39,103.12l-12.51-7.51v-8.33c0-1.52-1.23-2.74-2.74-2.74h-4.2c-1.52,0-2.74,1.23-2.74,2.74v2.51l-9.05-5.44c.05-2.25.07-4.26.07-5.94,0-16.35-2.32-25.82-7.51-25.82s-7.51,9.48-7.51,25.82c0,1.68.02,3.69.07,5.94l-9.19,5.52v-2.59c0-1.52-1.23-2.74-2.74-2.74h-4.2c-1.52,0-2.74,1.23-2.74,2.74v8.41l-12.36,7.42c-.29.17-.46.48-.46.82v4.7c0,.63.6,1.09,1.21.92l31.09-8.68c.46,9.14,1.18,18.95,2.2,26.77l-11.17,5.36c-.48.23-.78.71-.78,1.24v3.46c0,.89.83,1.54,1.7,1.33l11.69-2.87c.91,4.03,1.97,6.53,3.22,6.53s2.26-2.5,3.16-6.54l11.74,2.88c.86.21,1.7-.44,1.7-1.33v-3.46c0-.53-.3-1.01-.78-1.24l-11.23-5.39c1.02-7.82,1.76-17.61,2.23-26.75l31.12,8.69c.61.17,1.21-.29,1.21-.92v-4.7c0-.33-.18-.64-.46-.82Z"></path><line class="cls-2" x1="74.25" y1="70.71" x2="74.25" y2="64.42"></line><line class="cls-2" x1="62.69" y1="73.35" x2="59.96" y2="67.68"></line><line class="cls-2" x1="53.42" y1="80.75" x2="48.49" y2="76.82"></line><line class="cls-2" x1="48.27" y1="91.44" x2="42.13" y2="90.04"></line><line class="cls-2" x1="48.27" y1="103.3" x2="42.13" y2="104.7"></line><line class="cls-2" x1="53.42" y1="113.99" x2="48.49" y2="117.91"></line><line class="cls-2" x1="62.69" y1="121.38" x2="59.96" y2="127.06"></line><line class="cls-2" x1="74.25" y1="124.02" x2="74.25" y2="130.32"></line><line class="cls-2" x1="85.82" y1="121.38" x2="86.89" y2="123.61"></line><line class="cls-2" x1="85.82" y1="73.35" x2="88.55" y2="67.68"></line></g></svg> 