<?xml version="1.0" encoding="UTF-8"?> <svg xmlns="http://www.w3.org/2000/svg" id="_Ñëîé_6" data-name="Ñëîé 6" viewBox="0 0 1391.23 515.31"><defs><style> .cls-1 { fill: #105ea3; } .cls-1, .cls-2 { fill-rule: evenodd; stroke-width: 0px; } .cls-2 { fill: #fff; } </style></defs><g><path class="cls-2" d="m401.95,368.64c0-4.25-3.45-7.7-7.7-7.7-4.25,0-7.7,3.45-7.7,7.7s3.45,7.7,7.7,7.7,7.7-3.45,7.7-7.7h0Z"></path><path class="cls-1" d="m394.24,359.36c-5.13,0-9.29,4.16-9.29,9.3s6.3,10.66,9.29,14.21c3-3.56,9.29-9.08,9.29-14.21s-4.16-9.3-9.29-9.3h0Zm5.92,9.28c0-3.27-2.65-5.92-5.92-5.92-3.27,0-5.92,2.65-5.92,5.92s2.65,5.92,5.92,5.92,5.92-2.65,5.92-5.92h0Z"></path><path class="cls-1" d="m397.03,368.64c0-1.54-1.25-2.79-2.79-2.79-1.54,0-2.79,1.25-2.79,2.79s1.25,2.79,2.79,2.79,2.79-1.25,2.79-2.79h0Z"></path></g><g><path class="cls-2" d="m111.15,157.91c0-4.25-3.45-7.7-7.7-7.7-4.25,0-7.7,3.45-7.7,7.7s3.45,7.7,7.7,7.7,7.7-3.45,7.7-7.7h0Z"></path><path class="cls-1" d="m103.44,148.63c-5.13,0-9.29,4.16-9.29,9.3s6.3,10.66,9.29,14.21c3-3.56,9.29-9.08,9.29-14.21s-4.16-9.3-9.29-9.3h0Zm5.92,9.28c0-3.27-2.65-5.92-5.92-5.92-3.27,0-5.92,2.65-5.92,5.92s2.65,5.92,5.92,5.92,5.92-2.65,5.92-5.92h0Z"></path><path class="cls-1" d="m106.23,157.91c0-1.54-1.25-2.79-2.79-2.79-1.54,0-2.79,1.25-2.79,2.79s1.25,2.79,2.79,2.79,2.79-1.25,2.79-2.79h0Z"></path></g><g><path class="cls-2" d="m169.78,199.67c0-4.25-3.45-7.7-7.7-7.7-4.25,0-7.7,3.45-7.7,7.7s3.45,7.7,7.7,7.7,7.7-3.45,7.7-7.7h0Z"></path><path class="cls-1" d="m162.08,190.38c-5.13,0-9.29,4.16-9.29,9.3s6.3,10.66,9.29,14.21c3-3.56,9.29-9.08,9.29-14.21s-4.16-9.3-9.29-9.3h0Zm5.92,9.28c0-3.27-2.65-5.92-5.92-5.92-3.27,0-5.92,2.65-5.92,5.92s2.65,5.92,5.92,5.92,5.92-2.65,5.92-5.92h0Z"></path><path class="cls-1" d="m164.87,199.67c0-1.54-1.25-2.79-2.79-2.79-1.54,0-2.79,1.25-2.79,2.79s1.25,2.79,2.79,2.79,2.79-1.25,2.79-2.79h0Z"></path></g><g><path class="cls-2" d="m256.23,179.32c0-4.25-3.45-7.7-7.7-7.7-4.25,0-7.7,3.45-7.7,7.7s3.45,7.7,7.7,7.7,7.7-3.45,7.7-7.7h0Z"></path><path class="cls-1" d="m248.53,170.04c-5.13,0-9.29,4.16-9.29,9.3s6.3,10.66,9.29,14.21c3-3.56,9.29-9.08,9.29-14.21s-4.16-9.3-9.29-9.3h0Zm5.92,9.28c0-3.27-2.65-5.92-5.92-5.92-3.27,0-5.92,2.65-5.92,5.92s2.65,5.92,5.92,5.92,5.92-2.65,5.92-5.92h0Z"></path><path class="cls-1" d="m251.31,179.32c0-1.54-1.25-2.79-2.79-2.79-1.54,0-2.79,1.25-2.79,2.79s1.25,2.79,2.79,2.79,2.79-1.25,2.79-2.79h0Z"></path></g><g><path class="cls-2" d="m280.82,211.42c0-4.25-3.45-7.7-7.7-7.7-4.25,0-7.7,3.45-7.7,7.7s3.45,7.7,7.7,7.7,7.7-3.45,7.7-7.7h0Z"></path><path class="cls-1" d="m273.11,202.14c-5.13,0-9.29,4.16-9.29,9.3s6.3,10.66,9.29,14.21c3-3.56,9.29-9.08,9.29-14.21s-4.16-9.3-9.29-9.3h0Zm5.92,9.28c0-3.27-2.65-5.92-5.92-5.92-3.27,0-5.92,2.65-5.92,5.92s2.65,5.92,5.92,5.92,5.92-2.65,5.92-5.92h0Z"></path><path class="cls-1" d="m275.9,211.42c0-1.54-1.25-2.79-2.79-2.79-1.54,0-2.79,1.25-2.79,2.79s1.25,2.79,2.79,2.79,2.79-1.25,2.79-2.79h0Z"></path></g><g><path class="cls-2" d="m239.26,286.03c0-4.25-3.45-7.7-7.7-7.7-4.25,0-7.7,3.45-7.7,7.7s3.45,7.7,7.7,7.7,7.7-3.45,7.7-7.7h0Z"></path><path class="cls-1" d="m231.56,276.74c-5.13,0-9.29,4.16-9.29,9.3s6.3,10.66,9.29,14.21c3-3.56,9.29-9.08,9.29-14.21s-4.16-9.3-9.29-9.3h0Zm5.92,9.28c0-3.27-2.65-5.92-5.92-5.92-3.27,0-5.92,2.65-5.92,5.92s2.65,5.92,5.92,5.92,5.92-2.65,5.92-5.92h0Z"></path><path class="cls-1" d="m234.34,286.03c0-1.54-1.25-2.79-2.79-2.79-1.54,0-2.79,1.25-2.79,2.79s1.25,2.79,2.79,2.79,2.79-1.25,2.79-2.79h0Z"></path></g><g><path class="cls-2" d="m342.61,214.88c0-4.25-3.45-7.7-7.7-7.7-4.25,0-7.7,3.45-7.7,7.7s3.45,7.7,7.7,7.7,7.7-3.45,7.7-7.7h0Z"></path><path class="cls-1" d="m334.91,205.59c-5.13,0-9.29,4.16-9.29,9.3s6.3,10.66,9.29,14.21c3-3.56,9.29-9.08,9.29-14.21s-4.16-9.3-9.29-9.3h0Zm5.92,9.28c0-3.27-2.65-5.92-5.92-5.92-3.27,0-5.92,2.65-5.92,5.92s2.65,5.92,5.92,5.92,5.92-2.65,5.92-5.92h0Z"></path><path class="cls-1" d="m337.7,214.88c0-1.54-1.25-2.79-2.79-2.79-1.54,0-2.79,1.25-2.79,2.79s1.25,2.79,2.79,2.79,2.79-1.25,2.79-2.79h0Z"></path></g><g><path class="cls-2" d="m308.54,128.51c0-4.25-3.45-7.7-7.7-7.7-4.25,0-7.7,3.45-7.7,7.7s3.45,7.7,7.7,7.7,7.7-3.45,7.7-7.7h0Z"></path><path class="cls-1" d="m300.83,119.22c-5.13,0-9.29,4.16-9.29,9.3s6.3,10.66,9.29,14.21c3-3.56,9.29-9.08,9.29-14.21s-4.16-9.3-9.29-9.3h0Zm5.92,9.28c0-3.27-2.65-5.92-5.92-5.92-3.27,0-5.92,2.65-5.92,5.92s2.65,5.92,5.92,5.92,5.92-2.65,5.92-5.92h0Z"></path><path class="cls-1" d="m303.62,128.51c0-1.54-1.25-2.79-2.79-2.79-1.54,0-2.79,1.25-2.79,2.79s1.25,2.79,2.79,2.79,2.79-1.25,2.79-2.79h0Z"></path></g><g><path class="cls-2" d="m397.61,71.55c0-4.25-3.45-7.7-7.7-7.7-4.25,0-7.7,3.45-7.7,7.7s3.45,7.7,7.7,7.7,7.7-3.45,7.7-7.7h0Z"></path><path class="cls-1" d="m389.9,62.27c-5.13,0-9.29,4.16-9.29,9.3s6.3,10.66,9.29,14.21c3-3.56,9.29-9.08,9.29-14.21s-4.16-9.3-9.29-9.3h0Zm5.92,9.28c0-3.27-2.65-5.92-5.92-5.92-3.27,0-5.92,2.65-5.92,5.92s2.65,5.92,5.92,5.92,5.92-2.65,5.92-5.92h0Z"></path><path class="cls-1" d="m392.69,71.55c0-1.54-1.25-2.79-2.79-2.79-1.54,0-2.79,1.25-2.79,2.79s1.25,2.79,2.79,2.79,2.79-1.25,2.79-2.79h0Z"></path></g><g><path class="cls-2" d="m448.99,199.08c0-4.25-3.45-7.7-7.7-7.7-4.25,0-7.7,3.45-7.7,7.7s3.45,7.7,7.7,7.7,7.7-3.45,7.7-7.7h0Z"></path><path class="cls-1" d="m441.28,189.8c-5.13,0-9.29,4.16-9.29,9.3s6.3,10.66,9.29,14.21c3-3.56,9.29-9.08,9.29-14.21s-4.16-9.3-9.29-9.3h0Zm5.92,9.28c0-3.27-2.65-5.92-5.92-5.92-3.27,0-5.92,2.65-5.92,5.92s2.65,5.92,5.92,5.92,5.92-2.65,5.92-5.92h0Z"></path><path class="cls-1" d="m444.07,199.08c0-1.54-1.25-2.79-2.79-2.79-1.54,0-2.79,1.25-2.79,2.79s1.25,2.79,2.79,2.79,2.79-1.25,2.79-2.79h0Z"></path></g><g><path class="cls-2" d="m486,241.8c0-4.25-3.45-7.7-7.7-7.7-4.25,0-7.7,3.45-7.7,7.7s3.45,7.7,7.7,7.7,7.7-3.45,7.7-7.7h0Z"></path><path class="cls-1" d="m478.3,232.52c-5.13,0-9.29,4.16-9.29,9.3s6.3,10.66,9.29,14.21c3-3.56,9.29-9.08,9.29-14.21s-4.16-9.3-9.29-9.3h0Zm5.92,9.28c0-3.27-2.65-5.92-5.92-5.92-3.27,0-5.92,2.65-5.92,5.92s2.65,5.92,5.92,5.92,5.92-2.65,5.92-5.92h0Z"></path><path class="cls-1" d="m481.08,241.8c0-1.54-1.25-2.79-2.79-2.79-1.54,0-2.79,1.25-2.79,2.79s1.25,2.79,2.79,2.79,2.79-1.25,2.79-2.79h0Z"></path></g><g><path class="cls-2" d="m544.98,241.18c0-4.25-3.45-7.7-7.7-7.7-4.25,0-7.7,3.45-7.7,7.7s3.45,7.7,7.7,7.7,7.7-3.45,7.7-7.7h0Z"></path><path class="cls-1" d="m537.27,231.9c-5.13,0-9.29,4.16-9.29,9.3s6.3,10.66,9.29,14.21c3-3.56,9.29-9.08,9.29-14.21s-4.16-9.3-9.29-9.3h0Zm5.92,9.28c0-3.27-2.65-5.92-5.92-5.92-3.27,0-5.92,2.65-5.92,5.92s2.65,5.92,5.92,5.92,5.92-2.65,5.92-5.92h0Z"></path><path class="cls-1" d="m540.06,241.18c0-1.54-1.25-2.79-2.79-2.79-1.54,0-2.79,1.25-2.79,2.79s1.25,2.79,2.79,2.79,2.79-1.25,2.79-2.79h0Z"></path></g><g><path class="cls-2" d="m690.72,152.97c0-4.25-3.45-7.7-7.7-7.7-4.25,0-7.7,3.45-7.7,7.7s3.45,7.7,7.7,7.7,7.7-3.45,7.7-7.7h0Z"></path><path class="cls-1" d="m683.02,143.69c-5.13,0-9.29,4.16-9.29,9.3s6.3,10.66,9.29,14.21c3-3.56,9.29-9.08,9.29-14.21s-4.16-9.3-9.29-9.3h0Zm5.92,9.28c0-3.27-2.65-5.92-5.92-5.92-3.27,0-5.92,2.65-5.92,5.92s2.65,5.92,5.92,5.92,5.92-2.65,5.92-5.92h0Z"></path><path class="cls-1" d="m685.81,152.97c0-1.54-1.25-2.79-2.79-2.79-1.54,0-2.79,1.25-2.79,2.79s1.25,2.79,2.79,2.79,2.79-1.25,2.79-2.79h0Z"></path></g><g><path class="cls-2" d="m876.04,188.91c0-4.25-3.45-7.7-7.7-7.7-4.25,0-7.7,3.45-7.7,7.7s3.45,7.7,7.7,7.7,7.7-3.45,7.7-7.7h0Z"></path><path class="cls-1" d="m868.33,179.63c-5.13,0-9.29,4.16-9.29,9.3s6.3,10.66,9.29,14.21c3-3.56,9.29-9.08,9.29-14.21s-4.16-9.3-9.29-9.3h0Zm5.92,9.28c0-3.27-2.65-5.92-5.92-5.92-3.27,0-5.92,2.65-5.92,5.92s2.65,5.92,5.92,5.92,5.92-2.65,5.92-5.92h0Z"></path><path class="cls-1" d="m871.12,188.91c0-1.54-1.25-2.79-2.79-2.79-1.54,0-2.79,1.25-2.79,2.79s1.25,2.79,2.79,2.79,2.79-1.25,2.79-2.79h0Z"></path></g><g><path class="cls-2" d="m757.41,170.25c0-4.25-3.45-7.7-7.7-7.7-4.25,0-7.7,3.45-7.7,7.7s3.45,7.7,7.7,7.7,7.7-3.45,7.7-7.7h0Z"></path><path class="cls-1" d="m749.71,160.96c-5.13,0-9.29,4.16-9.29,9.3s6.3,10.66,9.29,14.21c3-3.56,9.29-9.08,9.29-14.21s-4.16-9.3-9.29-9.3h0Zm5.92,9.28c0-3.27-2.65-5.92-5.92-5.92-3.27,0-5.92,2.65-5.92,5.92s2.65,5.92,5.92,5.92,5.92-2.65,5.92-5.92h0Z"></path><path class="cls-1" d="m752.5,170.25c0-1.54-1.25-2.79-2.79-2.79-1.54,0-2.79,1.25-2.79,2.79s1.25,2.79,2.79,2.79,2.79-1.25,2.79-2.79h0Z"></path></g><g><path class="cls-2" d="m856.11,144.58c0-4.25-3.45-7.7-7.7-7.7-4.25,0-7.7,3.45-7.7,7.7s3.45,7.7,7.7,7.7,7.7-3.45,7.7-7.7h0Z"></path><path class="cls-1" d="m848.4,135.3c-5.13,0-9.29,4.16-9.29,9.3s6.3,10.66,9.29,14.21c3-3.56,9.29-9.08,9.29-14.21s-4.16-9.3-9.29-9.3h0Zm5.92,9.28c0-3.27-2.65-5.92-5.92-5.92-3.27,0-5.92,2.65-5.92,5.92s2.65,5.92,5.92,5.92,5.92-2.65,5.92-5.92h0Z"></path><path class="cls-1" d="m851.19,144.58c0-1.54-1.25-2.79-2.79-2.79-1.54,0-2.79,1.25-2.79,2.79s1.25,2.79,2.79,2.79,2.79-1.25,2.79-2.79h0Z"></path></g><g><path class="cls-2" d="m1004.15,133.24c0-4.25-3.45-7.7-7.7-7.7-4.25,0-7.7,3.45-7.7,7.7s3.45,7.7,7.7,7.7,7.7-3.45,7.7-7.7h0Z"></path><path class="cls-1" d="m996.45,123.95c-5.13,0-9.29,4.16-9.29,9.3s6.3,10.66,9.29,14.21c3-3.56,9.29-9.08,9.29-14.21s-4.16-9.3-9.29-9.3h0Zm5.92,9.28c0-3.27-2.65-5.92-5.92-5.92-3.27,0-5.92,2.65-5.92,5.92s2.65,5.92,5.92,5.92,5.92-2.65,5.92-5.92h0Z"></path><path class="cls-1" d="m999.24,133.24c0-1.54-1.25-2.79-2.79-2.79-1.54,0-2.79,1.25-2.79,2.79s1.25,2.79,2.79,2.79,2.79-1.25,2.79-2.79h0Z"></path></g><g><path class="cls-2" d="m1204.39,194.15c0-4.25-3.45-7.7-7.7-7.7-4.25,0-7.7,3.45-7.7,7.7s3.45,7.7,7.7,7.7,7.7-3.45,7.7-7.7h0Z"></path><path class="cls-1" d="m1196.69,184.86c-5.13,0-9.29,4.16-9.29,9.3s6.3,10.66,9.29,14.21c3-3.56,9.29-9.08,9.29-14.21s-4.16-9.3-9.29-9.3h0Zm5.92,9.28c0-3.27-2.65-5.92-5.92-5.92-3.27,0-5.92,2.65-5.92,5.92s2.65,5.92,5.92,5.92,5.92-2.65,5.92-5.92h0Z"></path><path class="cls-1" d="m1199.48,194.15c0-1.54-1.25-2.79-2.79-2.79-1.54,0-2.79,1.25-2.79,2.79s1.25,2.79,2.79,2.79,2.79-1.25,2.79-2.79h0Z"></path></g><g><path class="cls-2" d="m1280.11,191.68c0-4.25-3.45-7.7-7.7-7.7-4.25,0-7.7,3.45-7.7,7.7s3.45,7.7,7.7,7.7,7.7-3.45,7.7-7.7h0Z"></path><path class="cls-1" d="m1272.41,182.39c-5.13,0-9.29,4.16-9.29,9.3s6.3,10.66,9.29,14.21c3-3.56,9.29-9.08,9.29-14.21s-4.16-9.3-9.29-9.3h0Zm5.92,9.28c0-3.27-2.65-5.92-5.92-5.92-3.27,0-5.92,2.65-5.92,5.92s2.65,5.92,5.92,5.92,5.92-2.65,5.92-5.92h0Z"></path><path class="cls-1" d="m1275.19,191.68c0-1.54-1.25-2.79-2.79-2.79-1.54,0-2.79,1.25-2.79,2.79s1.25,2.79,2.79,2.79,2.79-1.25,2.79-2.79h0Z"></path></g><g><path class="cls-2" d="m703.32,118.05c0-4.25-3.45-7.7-7.7-7.7-4.25,0-7.7,3.45-7.7,7.7s3.45,7.7,7.7,7.7,7.7-3.45,7.7-7.7h0Z"></path><path class="cls-1" d="m695.62,108.77c-5.13,0-9.29,4.16-9.29,9.3s6.3,10.66,9.29,14.21c3-3.56,9.29-9.08,9.29-14.21s-4.16-9.3-9.29-9.3h0Zm5.92,9.28c0-3.27-2.65-5.92-5.92-5.92-3.27,0-5.92,2.65-5.92,5.92s2.65,5.92,5.92,5.92,5.92-2.65,5.92-5.92h0Z"></path><path class="cls-1" d="m698.4,118.05c0-1.54-1.25-2.79-2.79-2.79-1.54,0-2.79,1.25-2.79,2.79s1.25,2.79,2.79,2.79,2.79-1.25,2.79-2.79h0Z"></path></g><g><path class="cls-2" d="m673.9,88.64c0-4.25-3.45-7.7-7.7-7.7-4.25,0-7.7,3.45-7.7,7.7s3.45,7.7,7.7,7.7,7.7-3.45,7.7-7.7h0Z"></path><path class="cls-1" d="m666.2,79.35c-5.13,0-9.29,4.16-9.29,9.3s6.3,10.66,9.29,14.21c3-3.56,9.29-9.08,9.29-14.21s-4.16-9.3-9.29-9.3h0Zm5.92,9.28c0-3.27-2.65-5.92-5.92-5.92-3.27,0-5.92,2.65-5.92,5.92s2.65,5.92,5.92,5.92,5.92-2.65,5.92-5.92h0Z"></path><path class="cls-1" d="m668.98,88.64c0-1.54-1.25-2.79-2.79-2.79-1.54,0-2.79,1.25-2.79,2.79s1.25,2.79,2.79,2.79,2.79-1.25,2.79-2.79h0Z"></path></g><g><path class="cls-2" d="m456.58,374.55c0-4.25-3.45-7.7-7.7-7.7-4.25,0-7.7,3.45-7.7,7.7s3.45,7.7,7.7,7.7,7.7-3.45,7.7-7.7h0Z"></path><path class="cls-1" d="m448.88,365.27c-5.13,0-9.29,4.16-9.29,9.3s6.3,10.66,9.29,14.21c3-3.56,9.29-9.08,9.29-14.21s-4.16-9.3-9.29-9.3h0Zm5.92,9.28c0-3.27-2.65-5.92-5.92-5.92-3.27,0-5.92,2.65-5.92,5.92s2.65,5.92,5.92,5.92,5.92-2.65,5.92-5.92h0Z"></path><path class="cls-1" d="m451.66,374.55c0-1.54-1.25-2.79-2.79-2.79-1.54,0-2.79,1.25-2.79,2.79s1.25,2.79,2.79,2.79,2.79-1.25,2.79-2.79h0Z"></path></g><g><path class="cls-2" d="m516.57,391.22c0-4.25-3.45-7.7-7.7-7.7-4.25,0-7.7,3.45-7.7,7.7s3.45,7.7,7.7,7.7,7.7-3.45,7.7-7.7h0Z"></path><path class="cls-1" d="m508.86,381.93c-5.13,0-9.29,4.16-9.29,9.3s6.3,10.66,9.29,14.21c3-3.56,9.29-9.08,9.29-14.21s-4.16-9.3-9.29-9.3h0Zm5.92,9.28c0-3.27-2.65-5.92-5.92-5.92-3.27,0-5.92,2.65-5.92,5.92s2.65,5.92,5.92,5.92,5.92-2.65,5.92-5.92h0Z"></path><path class="cls-1" d="m511.65,391.22c0-1.54-1.25-2.79-2.79-2.79-1.54,0-2.79,1.25-2.79,2.79s1.25,2.79,2.79,2.79,2.79-1.25,2.79-2.79h0Z"></path></g><g><path class="cls-2" d="m535.32,409.4c0-4.25-3.45-7.7-7.7-7.7-4.25,0-7.7,3.45-7.7,7.7s3.45,7.7,7.7,7.7,7.7-3.45,7.7-7.7h0Z"></path><path class="cls-1" d="m527.61,400.11c-5.13,0-9.29,4.16-9.29,9.3s6.3,10.66,9.29,14.21c3-3.56,9.29-9.08,9.29-14.21s-4.16-9.3-9.29-9.3h0Zm5.92,9.28c0-3.27-2.65-5.92-5.92-5.92-3.27,0-5.92,2.65-5.92,5.92s2.65,5.92,5.92,5.92,5.92-2.65,5.92-5.92h0Z"></path><path class="cls-1" d="m530.4,409.4c0-1.54-1.25-2.79-2.79-2.79-1.54,0-2.79,1.25-2.79,2.79s1.25,2.79,2.79,2.79,2.79-1.25,2.79-2.79h0Z"></path></g><g><path class="cls-2" d="m584.7,374.55c0-4.25-3.45-7.7-7.7-7.7-4.25,0-7.7,3.45-7.7,7.7s3.45,7.7,7.7,7.7,7.7-3.45,7.7-7.7h0Z"></path><path class="cls-1" d="m576.99,365.27c-5.13,0-9.29,4.16-9.29,9.3s6.3,10.66,9.29,14.21c3-3.56,9.29-9.08,9.29-14.21s-4.16-9.3-9.29-9.3h0Zm5.92,9.28c0-3.27-2.65-5.92-5.92-5.92-3.27,0-5.92,2.65-5.92,5.92s2.65,5.92,5.92,5.92,5.92-2.65,5.92-5.92h0Z"></path><path class="cls-1" d="m579.78,374.55c0-1.54-1.25-2.79-2.79-2.79-1.54,0-2.79,1.25-2.79,2.79s1.25,2.79,2.79,2.79,2.79-1.25,2.79-2.79h0Z"></path></g><g><path class="cls-2" d="m593.87,408.21c0-4.25-3.45-7.7-7.7-7.7-4.25,0-7.7,3.45-7.7,7.7s3.45,7.7,7.7,7.7,7.7-3.45,7.7-7.7h0Z"></path><path class="cls-1" d="m586.17,398.92c-5.13,0-9.29,4.16-9.29,9.3s6.3,10.66,9.29,14.21c3-3.56,9.29-9.08,9.29-14.21s-4.16-9.3-9.29-9.3h0Zm5.92,9.28c0-3.27-2.65-5.92-5.92-5.92-3.27,0-5.92,2.65-5.92,5.92s2.65,5.92,5.92,5.92,5.92-2.65,5.92-5.92h0Z"></path><path class="cls-1" d="m588.96,408.21c0-1.54-1.25-2.79-2.79-2.79-1.54,0-2.79,1.25-2.79,2.79s1.25,2.79,2.79,2.79,2.79-1.25,2.79-2.79h0Z"></path></g><g><path class="cls-2" d="m729.69,422.73c0-4.25-3.45-7.7-7.7-7.7-4.25,0-7.7,3.45-7.7,7.7s3.45,7.7,7.7,7.7,7.7-3.45,7.7-7.7h0Z"></path><path class="cls-1" d="m721.99,413.45c-5.13,0-9.29,4.16-9.29,9.3s6.3,10.66,9.29,14.21c3-3.56,9.29-9.08,9.29-14.21s-4.16-9.3-9.29-9.3h0Zm5.92,9.28c0-3.27-2.65-5.92-5.92-5.92-3.27,0-5.92,2.65-5.92,5.92s2.65,5.92,5.92,5.92,5.92-2.65,5.92-5.92h0Z"></path><path class="cls-1" d="m724.78,422.73c0-1.54-1.25-2.79-2.79-2.79-1.54,0-2.79,1.25-2.79,2.79s1.25,2.79,2.79,2.79,2.79-1.25,2.79-2.79h0Z"></path></g><g><path class="cls-2" d="m777.34,421.73c0-4.25-3.45-7.7-7.7-7.7-4.25,0-7.7,3.45-7.7,7.7s3.45,7.7,7.7,7.7,7.7-3.45,7.7-7.7h0Z"></path><path class="cls-1" d="m769.64,412.45c-5.13,0-9.29,4.16-9.29,9.3s6.3,10.66,9.29,14.21c3-3.56,9.29-9.08,9.29-14.21s-4.16-9.3-9.29-9.3h0Zm5.92,9.28c0-3.27-2.65-5.92-5.92-5.92-3.27,0-5.92,2.65-5.92,5.92s2.65,5.92,5.92,5.92,5.92-2.65,5.92-5.92h0Z"></path><path class="cls-1" d="m772.43,421.73c0-1.54-1.25-2.79-2.79-2.79-1.54,0-2.79,1.25-2.79,2.79s1.25,2.79,2.79,2.79,2.79-1.25,2.79-2.79h0Z"></path></g><g><path class="cls-2" d="m823.64,419.26c0-4.25-3.45-7.7-7.7-7.7-4.25,0-7.7,3.45-7.7,7.7s3.45,7.7,7.7,7.7,7.7-3.45,7.7-7.7h0Z"></path><path class="cls-1" d="m815.94,409.98c-5.13,0-9.29,4.16-9.29,9.3s6.3,10.66,9.29,14.21c3-3.56,9.29-9.08,9.29-14.21s-4.16-9.3-9.29-9.3h0Zm5.92,9.28c0-3.27-2.65-5.92-5.92-5.92-3.27,0-5.92,2.65-5.92,5.92s2.65,5.92,5.92,5.92,5.92-2.65,5.92-5.92h0Z"></path><path class="cls-1" d="m818.73,419.26c0-1.54-1.25-2.79-2.79-2.79-1.54,0-2.79,1.25-2.79,2.79s1.25,2.79,2.79,2.79,2.79-1.25,2.79-2.79h0Z"></path></g><g><path class="cls-2" d="m876.04,424.5c0-4.25-3.45-7.7-7.7-7.7-4.25,0-7.7,3.45-7.7,7.7s3.45,7.7,7.7,7.7,7.7-3.45,7.7-7.7h0Z"></path><path class="cls-1" d="m868.33,415.22c-5.13,0-9.29,4.16-9.29,9.3s6.3,10.66,9.29,14.21c3-3.56,9.29-9.08,9.29-14.21s-4.16-9.3-9.29-9.3h0Zm5.92,9.28c0-3.27-2.65-5.92-5.92-5.92-3.27,0-5.92,2.65-5.92,5.92s2.65,5.92,5.92,5.92,5.92-2.65,5.92-5.92h0Z"></path><path class="cls-1" d="m871.12,424.5c0-1.54-1.25-2.79-2.79-2.79-1.54,0-2.79,1.25-2.79,2.79s1.25,2.79,2.79,2.79,2.79-1.25,2.79-2.79h0Z"></path></g><g><path class="cls-2" d="m1204.39,342.97c0-4.25-3.45-7.7-7.7-7.7-4.25,0-7.7,3.45-7.7,7.7s3.45,7.7,7.7,7.7,7.7-3.45,7.7-7.7h0Z"></path><path class="cls-1" d="m1196.69,333.68c-5.13,0-9.29,4.16-9.29,9.3s6.3,10.66,9.29,14.21c3-3.56,9.29-9.08,9.29-14.21s-4.16-9.3-9.29-9.3h0Zm5.92,9.28c0-3.27-2.65-5.92-5.92-5.92-3.27,0-5.92,2.65-5.92,5.92s2.65,5.92,5.92,5.92,5.92-2.65,5.92-5.92h0Z"></path><path class="cls-1" d="m1199.48,342.97c0-1.54-1.25-2.79-2.79-2.79-1.54,0-2.79,1.25-2.79,2.79s1.25,2.79,2.79,2.79,2.79-1.25,2.79-2.79h0Z"></path></g><g><path class="cls-2" d="m1303.09,310.7c0-4.25-3.45-7.7-7.7-7.7-4.25,0-7.7,3.45-7.7,7.7s3.45,7.7,7.7,7.7,7.7-3.45,7.7-7.7h0Z"></path><path class="cls-1" d="m1295.38,301.42c-5.13,0-9.29,4.16-9.29,9.3s6.3,10.66,9.29,14.21c3-3.56,9.29-9.08,9.29-14.21s-4.16-9.3-9.29-9.3h0Zm5.92,9.28c0-3.27-2.65-5.92-5.92-5.92-3.27,0-5.92,2.65-5.92,5.92s2.65,5.92,5.92,5.92,5.92-2.65,5.92-5.92h0Z"></path><path class="cls-1" d="m1298.17,310.7c0-1.54-1.25-2.79-2.79-2.79-1.54,0-2.79,1.25-2.79,2.79s1.25,2.79,2.79,2.79,2.79-1.25,2.79-2.79h0Z"></path></g><g><path class="cls-2" d="m1377.11,332.79c0-4.25-3.45-7.7-7.7-7.7-4.25,0-7.7,3.45-7.7,7.7s3.45,7.7,7.7,7.7,7.7-3.45,7.7-7.7h0Z"></path><path class="cls-1" d="m1369.41,323.51c-5.13,0-9.29,4.16-9.29,9.3s6.3,10.66,9.29,14.21c3-3.56,9.29-9.08,9.29-14.21s-4.16-9.3-9.29-9.3h0Zm5.92,9.28c0-3.27-2.65-5.92-5.92-5.92-3.27,0-5.92,2.65-5.92,5.92s2.65,5.92,5.92,5.92,5.92-2.65,5.92-5.92h0Z"></path><path class="cls-1" d="m1372.19,332.79c0-1.54-1.25-2.79-2.79-2.79-1.54,0-2.79,1.25-2.79,2.79s1.25,2.79,2.79,2.79,2.79-1.25,2.79-2.79h0Z"></path></g><g><path class="cls-2" d="m1389.39,303.11c0-4.25-3.45-7.7-7.7-7.7-4.25,0-7.7,3.45-7.7,7.7s3.45,7.7,7.7,7.7,7.7-3.45,7.7-7.7h0Z"></path><path class="cls-1" d="m1381.68,293.82c-5.13,0-9.29,4.16-9.29,9.3s6.3,10.66,9.29,14.21c3-3.56,9.29-9.08,9.29-14.21s-4.16-9.3-9.29-9.3h0Zm5.92,9.28c0-3.27-2.65-5.92-5.92-5.92-3.27,0-5.92,2.65-5.92,5.92s2.65,5.92,5.92,5.92,5.92-2.65,5.92-5.92h0Z"></path><path class="cls-1" d="m1384.47,303.11c0-1.54-1.25-2.79-2.79-2.79-1.54,0-2.79,1.25-2.79,2.79s1.25,2.79,2.79,2.79,2.79-1.25,2.79-2.79h0Z"></path></g></svg> 