<?xml version="1.0" encoding="UTF-8"?> <svg xmlns="http://www.w3.org/2000/svg" xmlns:xlink="http://www.w3.org/1999/xlink" id="_Ñëîé_6" data-name="Ñëîé 6" viewBox="0 0 195.27 195.27"><defs><style> .cls-1 { fill: url(#linear-gradient); } .cls-1, .cls-2 { stroke-width: 0px; } .cls-2 { fill: #fff; } </style><linearGradient id="linear-gradient" x1="188.93" y1="191.75" x2="6.71" y2="3.9" gradientUnits="userSpaceOnUse"><stop offset="0" stop-color="#105ea3"></stop><stop offset="1" stop-color="#86c4ea"></stop></linearGradient></defs><rect class="cls-1" width="195.27" height="195.27" rx="15" ry="15"></rect><g><g><path class="cls-2" d="m134.94,132.43c-.27,0-.53-.07-.77-.22-22.02-13.51-29.17-20.18-33.01-23.76-1.44-1.34-2.39-2.22-3.48-2.9-.42-.26-.96-.31-1.44-.12l-.55.22c-2.75,1.09-5.34,2.8-7.69,5.09-2.67,2.59-5.64,4.28-8.84,5-2.07.47-4.17-.37-5.34-2.14-1.17-1.76-1.13-4.01.1-5.73l7.56-10.55c2.05-2.86,5.1-4.8,8.6-5.47,9.1-1.74,18.35-.35,24.51,1.13.05.01,5.77,1.31,10.61.13.78-.19,1.58.29,1.78,1.08.19.79-.29,1.58-1.08,1.78-5.54,1.35-11.72-.07-11.98-.13-5.89-1.41-14.69-2.74-23.28-1.1-2.75.53-5.15,2.05-6.76,4.29l-7.56,10.55c-.79,1.1-.23,2.11-.04,2.39.19.29.92,1.2,2.24.9,2.66-.61,5.17-2.03,7.44-4.25,2.63-2.56,5.54-4.48,8.66-5.71l.55-.22c1.33-.53,2.86-.4,4.07.36,1.34.83,2.42,1.85,3.93,3.25,3.73,3.48,10.63,9.92,31.91,23.01,1.41-.59,4.75-2.05,7.21-3.66.68-.44,1.59-.25,2.03.43.44.68.25,1.59-.43,2.03-3.44,2.25-8.21,4.13-8.41,4.21-.17.07-.36.1-.54.1Z"></path><path class="cls-2" d="m82.69,99.64c-.1,0-.2-.01-.3-.03-8.46-1.77-10.92-3.1-12.56-3.98-.39-.21-.7-.38-1.01-.5-.75-.3-1.12-1.15-.82-1.91.3-.75,1.15-1.12,1.91-.82.47.19.88.41,1.32.64,1.48.8,3.73,2.01,11.77,3.69.8.17,1.3.95,1.14,1.74-.15.69-.76,1.17-1.44,1.17Z"></path><path class="cls-2" d="m66.09,141.54c-1.43,0-2.8-.49-3.91-1.42l-.59-.49c-2.59-2.16-2.93-6.02-.78-8.61l5.15-6.17c2.16-2.59,6.02-2.94,8.61-.78l.59.49c2.59,2.16,2.94,6.02.78,8.61-.52.62-1.45.71-2.07.19-.62-.52-.71-1.45-.19-2.07,1.12-1.34.94-3.35-.4-4.47l-.59-.49c-1.34-1.12-3.35-.94-4.47.4l-5.15,6.17c-1.12,1.34-.94,3.35.4,4.47l.59.49c.65.54,1.47.8,2.32.72.84-.08,1.61-.48,2.15-1.13.52-.62,1.45-.71,2.07-.19.62.52.71,1.45.19,2.07-1.05,1.25-2.52,2.03-4.14,2.17-.19.02-.37.02-.56.02Z"></path><path class="cls-2" d="m73.61,148.37c-1.43,0-2.8-.49-3.91-1.42l-.59-.49c-2.59-2.16-2.94-6.02-.78-8.61l7.35-8.8c1.05-1.25,2.52-2.03,4.14-2.17,1.63-.14,3.21.35,4.47,1.4l.59.49c2.59,2.16,2.93,6.02.78,8.61-.52.62-1.45.71-2.07.19-.62-.52-.71-1.45-.19-2.07,1.12-1.34.94-3.35-.4-4.47l-.59-.49c-.65-.54-1.47-.8-2.32-.72-.84.08-1.61.48-2.15,1.13l-7.35,8.8c-1.12,1.34-.94,3.35.4,4.47l.59.49c.65.54,1.47.8,2.32.72.84-.08,1.61-.48,2.15-1.13.52-.62,1.45-.71,2.07-.19.62.52.71,1.45.19,2.07-1.05,1.25-2.52,2.03-4.14,2.17-.19.02-.37.02-.56.02Z"></path><path class="cls-2" d="m82.18,153.92c-1.38,0-2.77-.47-3.91-1.42l-.59-.49c-2.59-2.16-2.94-6.02-.78-8.61l7.35-8.8c1.05-1.25,2.52-2.02,4.14-2.17,1.64-.15,3.21.35,4.47,1.4l.59.49c1.25,1.05,2.03,2.52,2.17,4.14s-.35,3.21-1.4,4.47c-.52.62-1.45.71-2.07.19-.62-.52-.71-1.45-.19-2.07.54-.65.8-1.47.72-2.32-.08-.84-.48-1.61-1.13-2.15l-.59-.49c-.65-.54-1.48-.8-2.32-.72-.84.08-1.61.48-2.15,1.13l-7.35,8.8c-.54.65-.8,1.47-.72,2.32.08.84.48,1.61,1.13,2.15l.59.49c1.34,1.12,3.35.94,4.47-.4.52-.62,1.45-.71,2.07-.19.62.52.71,1.45.19,2.07-1.21,1.45-2.95,2.19-4.7,2.19Z"></path><path class="cls-2" d="m90.78,159.31c-1.43,0-2.8-.49-3.91-1.42l-.59-.49c-1.25-1.05-2.02-2.52-2.17-4.14-.15-1.63.35-3.21,1.4-4.47l7.35-8.8c1.05-1.25,2.52-2.03,4.15-2.17,1.63-.14,3.21.35,4.47,1.4l.59.49c2.59,2.16,2.94,6.02.78,8.61l-7.35,8.8c-1.05,1.25-2.52,2.02-4.14,2.17-.19.02-.37.02-.56.02Zm6.77-18.58c-.1,0-.19,0-.29.01-.84.08-1.61.48-2.15,1.13l-7.35,8.8c-.54.65-.8,1.47-.72,2.32.08.84.48,1.61,1.13,2.15l.59.49h0c.65.54,1.48.8,2.32.72.84-.08,1.61-.48,2.15-1.13l7.35-8.8c1.12-1.34.94-3.35-.4-4.47l-.59-.49c-.58-.48-1.29-.74-2.03-.74Z"></path><path class="cls-2" d="m105.87,159.16c-1.44,0-2.83-.48-3.99-1.38l-4.11-3.21c-.64-.5-.75-1.42-.25-2.06.5-.64,1.42-.75,2.06-.25l4.11,3.21c.75.59,1.68.84,2.62.73.94-.12,1.78-.59,2.37-1.34.59-.75.84-1.68.73-2.62s-.59-1.78-1.34-2.37l-5.73-4.48c-.64-.5-.75-1.42-.25-2.06.5-.64,1.42-.75,2.06-.25l5.73,4.47c1.37,1.07,2.24,2.6,2.45,4.33.21,1.72-.26,3.42-1.33,4.79-1.07,1.37-2.6,2.24-4.33,2.45-.27.03-.54.05-.81.05Z"></path><path class="cls-2" d="m113.53,152.42c-1.44,0-2.83-.48-3.99-1.38-.64-.5-.75-1.42-.25-2.06.5-.64,1.42-.75,2.06-.25.75.59,1.68.84,2.62.73.94-.12,1.78-.59,2.37-1.34.59-.75.84-1.68.73-2.62s-.59-1.78-1.34-2.37l-8.43-6.59c-.64-.5-.75-1.42-.25-2.06.5-.64,1.42-.75,2.06-.25l8.43,6.59c1.37,1.07,2.24,2.6,2.45,4.33.21,1.72-.26,3.42-1.33,4.79-1.07,1.37-2.6,2.24-4.33,2.45-.27.03-.54.05-.81.05Z"></path><path class="cls-2" d="m121.56,146.09c-1.44,0-2.83-.48-3.99-1.38l-1.9-1.63c-.62-.53-.69-1.46-.16-2.07.53-.61,1.46-.68,2.07-.16l1.85,1.59c1.49,1.17,3.73.89,4.94-.66.59-.75.84-1.68.73-2.62-.12-.94-.59-1.79-1.34-2.37l-10.7-8.36c-.64-.5-.75-1.42-.25-2.06.5-.64,1.42-.75,2.06-.25l10.7,8.36c2.82,2.21,3.33,6.3,1.12,9.12-1.07,1.37-2.6,2.24-4.33,2.45-.27.03-.54.05-.81.05Z"></path><path class="cls-2" d="m128.64,139.07c-1.4,0-2.81-.45-3.99-1.37-.64-.5-.75-1.42-.25-2.06.5-.64,1.42-.75,2.06-.25,1.55,1.21,3.79.93,4.99-.61.88-1.13,1-2.67.31-3.92-.39-.71-.14-1.6.57-2,.71-.39,1.6-.14,2,.57,1.27,2.29,1.05,5.1-.56,7.16-1.28,1.64-3.19,2.49-5.13,2.5Z"></path><path class="cls-2" d="m147.35,129.78c-1.72,0-3.39-.89-4.31-2.48l-18.39-31.86c-.66-1.15-.84-2.49-.5-3.77.34-1.28,1.17-2.35,2.31-3.02l4.12-2.38c2.37-1.37,5.42-.55,6.79,1.82l18.39,31.86c1.37,2.37.55,5.42-1.82,6.79h0l-4.12,2.38c-.78.45-1.63.67-2.48.67Zm-14.29-41.23c-.34,0-.69.09-1.01.27l-4.12,2.38c-.47.27-.8.71-.95,1.23-.14.52-.07,1.07.2,1.54l18.39,31.86c.56.97,1.8,1.3,2.77.74l4.12-2.38c.97-.56,1.3-1.8.74-2.77l-18.39-31.86c-.38-.65-1.06-1.01-1.76-1.01Zm20.15,36.92h0,0Z"></path><path class="cls-2" d="m47.93,128.85c-.86,0-1.71-.23-2.48-.67l-4.12-2.38c-1.15-.66-1.97-1.73-2.31-3.02-.34-1.28-.17-2.62.5-3.77l18.39-31.86c.66-1.15,1.73-1.97,3.02-2.31,1.28-.34,2.62-.17,3.77.5l4.12,2.38c1.15.66,1.97,1.73,2.31,3.02.34,1.28.17,2.62-.5,3.77l-18.39,31.86c-.66,1.15-1.73,1.97-3.02,2.31-.43.11-.86.17-1.29.17Zm14.29-41.24c-.18,0-.35.02-.53.07-.52.14-.96.48-1.23.94l-18.39,31.86c-.27.47-.34,1.02-.2,1.54.14.52.48.96.95,1.23l4.12,2.38h0c.47.27,1.02.34,1.54.2.52-.14.96-.48,1.23-.95l18.39-31.86c.27-.47.34-1.02.2-1.54-.14-.52-.48-.96-.95-1.23l-4.12-2.38c-.31-.18-.66-.27-1.01-.27Z"></path><path class="cls-2" d="m60.87,135.34c-.39,0-.78-.16-1.07-.46-6.67-7.09-9.02-7.78-9.12-7.81.09.02.13.02.13.02l.31-2.92c.69.07,3.5.91,10.82,8.7.56.59.53,1.52-.06,2.08-.28.27-.65.4-1.01.4Z"></path></g><path class="cls-2" d="m129.61,89.07c-.8,0-1.45-.64-1.47-1.44l-.22-11.38v-20.6c0-.81.66-1.47,1.47-1.47s1.47.66,1.47,1.47v20.58l.22,11.36c.02.81-.63,1.48-1.44,1.5,0,0-.02,0-.03,0Z"></path><path class="cls-2" d="m65.44,88.09c-.81,0-1.47-.66-1.47-1.47v-49.19c0-.81.66-1.47,1.47-1.47h45.74c.81,0,1.47.66,1.47,1.47s-.66,1.47-1.47,1.47h-44.27v47.72c0,.81-.66,1.47-1.47,1.47Z"></path><path class="cls-2" d="m129.4,57.11h-18.21c-.81,0-1.47-.66-1.47-1.47v-18.21c0-.59.36-1.13.91-1.36.55-.23,1.18-.1,1.6.32l18.21,18.21c.42.42.55,1.05.32,1.6s-.76.91-1.36.91Zm-16.74-2.94h13.19l-13.19-13.19v13.19Z"></path><path class="cls-2" d="m115.98,65.04h-36.9c-.81,0-1.47-.66-1.47-1.47s.66-1.47,1.47-1.47h36.9c.81,0,1.47.66,1.47,1.47s-.66,1.47-1.47,1.47Z"></path><path class="cls-2" d="m115.98,75.25h-36.9c-.81,0-1.47-.66-1.47-1.47s.66-1.47,1.47-1.47h36.9c.81,0,1.47.66,1.47,1.47s-.66,1.47-1.47,1.47Z"></path><path class="cls-2" d="m115.98,84.66h-36.9c-.81,0-1.47-.66-1.47-1.47s.66-1.47,1.47-1.47h36.9c.81,0,1.47.66,1.47,1.47s-.66,1.47-1.47,1.47Z"></path></g></svg> 