<?xml version="1.0" encoding="UTF-8"?> <svg xmlns="http://www.w3.org/2000/svg" xmlns:xlink="http://www.w3.org/1999/xlink" id="_Ñëîé_6" data-name="Ñëîé 6" viewBox="0 0 195.27 195.27"><defs><style> .cls-1 { fill: url(#linear-gradient); stroke-width: 0px; } .cls-2 { fill: none; stroke: #fff; stroke-linecap: round; stroke-linejoin: round; stroke-width: 3px; } </style><linearGradient id="linear-gradient" x1="188.93" y1="191.75" x2="6.71" y2="3.9" gradientUnits="userSpaceOnUse"><stop offset="0" stop-color="#105ea3"></stop><stop offset="1" stop-color="#86c4ea"></stop></linearGradient></defs><rect class="cls-1" width="195.27" height="195.27" rx="15" ry="15"></rect><g><path class="cls-2" d="m53.52,52.47h12.85c1.08,0,1.96-.88,1.96-1.96v-12.74"></path><line class="cls-2" x1="90.16" y1="63.97" x2="115.91" y2="63.97"></line><line class="cls-2" x1="65.17" y1="63.97" x2="79.86" y2="63.97"></line><line class="cls-2" x1="109.07" y1="74.84" x2="115.91" y2="74.84"></line><line class="cls-2" x1="65.17" y1="74.84" x2="99.37" y2="74.84"></line><line class="cls-2" x1="65.17" y1="107.46" x2="92.77" y2="107.46"></line><line class="cls-2" x1="83.51" y1="96.58" x2="115.91" y2="96.58"></line><line class="cls-2" x1="65.17" y1="96.58" x2="73.82" y2="96.58"></line><line class="cls-2" x1="65.17" y1="85.71" x2="115.91" y2="85.71"></line><path class="cls-2" d="m128.6,109.93V42.31c0-2.55-2.07-4.62-4.62-4.62h-54.81c-1.22,0-2.4.49-3.26,1.35l-12.07,12.07c-.87.87-1.35,2.04-1.35,3.26v83.71c0,2.55,2.07,4.62,4.62,4.62h37.44"></path><path class="cls-2" d="m117.73,107.46c-13.84,0-25.06,11.22-25.06,25.06s11.22,25.06,25.06,25.06c13.84,0,25.06-11.22,25.06-25.06s-11.22-25.06-25.06-25.06Z"></path><line class="cls-2" x1="117.73" y1="143.4" x2="117.73" y2="128.15"></line><line class="cls-2" x1="113.91" y1="143.4" x2="121.54" y2="143.4"></line><line class="cls-2" x1="113.91" y1="129.79" x2="117.73" y2="128.15"></line><line class="cls-2" x1="117.73" y1="120.04" x2="117.73" y2="119.66"></line></g></svg> 