<?xml version="1.0" encoding="UTF-8"?> <svg xmlns="http://www.w3.org/2000/svg" xmlns:xlink="http://www.w3.org/1999/xlink" id="_Ñëîé_6" data-name="Ñëîé 6" viewBox="0 0 195.27 195.27"><defs><style> .cls-1 { fill: url(#linear-gradient); stroke-width: 0px; } .cls-2 { fill: #fff; stroke: #fff; stroke-miterlimit: 10; stroke-width: .75px; } </style><linearGradient id="linear-gradient" x1="188.93" y1="191.75" x2="6.71" y2="3.9" gradientUnits="userSpaceOnUse"><stop offset="0" stop-color="#105ea3"></stop><stop offset="1" stop-color="#86c4ea"></stop></linearGradient></defs><rect class="cls-1" width="195.27" height="195.27" rx="15" ry="15"></rect><g><g><path class="cls-2" d="m57.6,158.61c-.67-.04-6.12-.41-9.39-2.47-.52-.33-.68-1.03-.35-1.55.21-.33.56-.53.95-.53.21,0,.42.06.6.17,2.23,1.4,6.33,2,8.19,2.12h31.84c5.25,0,9.79-3.56,11.03-8.66l4.25-17.4c.49-2.01.04-4.09-1.24-5.71-1.27-1.62-3.19-2.55-5.25-2.55h-19.36c-.38,0-.73-.19-.94-.51-.21-.32-.24-.71-.09-1.06l1.92-4.47c2.1-4.91,3.15-10.1,3.11-15.43-.01-2.19-1.8-3.96-3.99-3.96-1.41,0-2.31.41-3.11,1.4-.66.82-1.33,2.3-2.1,4.01-2.92,6.47-7.8,17.3-24.49,22.79-.11.04-.23.06-.35.06-.49,0-.92-.31-1.07-.77-.09-.29-.07-.59.06-.86s.37-.47.65-.56c15.75-5.17,20.2-15.04,23.14-21.57.87-1.93,1.56-3.46,2.4-4.5,1.23-1.53,2.77-2.24,4.87-2.24,3.42,0,6.22,2.78,6.24,6.2.04,5.65-1.07,11.14-3.29,16.33l-1.24,2.91h17.66c2.76,0,5.32,1.24,7.02,3.41s2.31,4.95,1.65,7.63l-4.25,17.4c-1.49,6.11-6.92,10.38-13.21,10.38h-31.84Z"></path><path class="cls-2" d="m116.07,151.55c-.17,0-.34-.04-.5-.12l-13.29-7.13c-.27-.13-.47-.36-.57-.65-.1-.28-.08-.59.06-.86.19-.39.58-.63,1.01-.63.17,0,.34.04.5.12l12.8,6.88,19.6-9.66c14.2-7,23.02-21.17,23.02-37v-44.3l-.8-.16c-19.16-3.86-32.23-9.58-41.13-18.02l-.69-.65-.69.65c-8.9,8.43-21.97,14.16-41.13,18.02l-.8.16v43.87c0,.62-.5,1.12-1.12,1.12s-1.12-.5-1.12-1.12v-44.8c0-.54.38-1,.91-1.1,20.66-3.96,34.37-10.06,43.15-19.19.19-.2.49-.32.81-.32s.62.12.81.32c8.78,9.13,22.49,15.23,43.15,19.19.53.1.91.57.91,1.1v45.23c0,16.69-9.3,31.64-24.27,39.02l-20.1,9.9c-.16.08-.32.12-.5.12Z"></path><path class="cls-2" d="m112,114.92c-.3,0-.58-.12-.79-.33l-19.23-19.23c-.21-.21-.33-.5-.33-.79s.12-.58.33-.79l6.89-6.89c.21-.21.5-.33.8-.33s.58.12.79.33l11.54,11.54,22.08-22.08c.21-.21.5-.33.79-.33s.58.12.79.33l6.89,6.89c.44.44.44,1.15,0,1.59l-29.76,29.76c-.21.21-.5.33-.8.33Zm-17.64-20.36l17.64,17.64,28.17-28.17-5.3-5.3-22.08,22.08c-.21.21-.5.33-.8.33s-.58-.12-.79-.33l-11.54-11.54-5.3,5.3Z"></path></g><path class="cls-2" d="m37.21,158.61c-1.59,0-2.88-1.29-2.88-2.88v-34.21c0-1.59,1.29-2.88,2.88-2.88h8.19c1.59,0,2.88,1.29,2.88,2.88v34.21c0,1.59-1.29,2.88-2.88,2.88h-8.19Zm-.63-2.25h9.45v-35.47h-9.45v35.47Z"></path></g></svg> 