<?xml version="1.0" encoding="UTF-8"?> <svg xmlns="http://www.w3.org/2000/svg" xmlns:xlink="http://www.w3.org/1999/xlink" id="_Ñëîé_6" data-name="Ñëîé 6" viewBox="0 0 195.27 195.27"><defs><style> .cls-1 { fill: url(#linear-gradient); stroke-width: 0px; } .cls-2 { fill: none; stroke: #fff; stroke-linecap: round; stroke-linejoin: round; stroke-width: 3px; } </style><linearGradient id="linear-gradient" x1="188.93" y1="191.75" x2="6.71" y2="3.9" gradientUnits="userSpaceOnUse"><stop offset="0" stop-color="#105ea3"></stop><stop offset="1" stop-color="#86c4ea"></stop></linearGradient></defs><rect class="cls-1" width="195.27" height="195.27" rx="15" ry="15"></rect><g><g><path class="cls-2" d="m65.98,44.56h-19.93c-5.04,0-9.13,4.09-9.13,9.13v94.27c0,5.04,4.09,9.13,9.13,9.13h70.24c5.04,0,9.13-4.09,9.13-9.13v-3.09"></path><path class="cls-2" d="m95.39,44.56h20.67c5.04,0,9.13,4.09,9.13,9.13l.23,64.83"></path><path class="cls-2" d="m93.23,41.62v-1.1c0-1.67-1.36-3.03-3.03-3.03h-18.51c-1.67,0-3.03,1.36-3.03,3.03v1.1c0,1.67-1.36,3.03-3.03,3.03h0c-1.67,0-3.03,1.36-3.03,3.03v4.18c0,1.67,1.36,3.03,3.03,3.03h30.63c1.67,0,3.03-1.36,3.03-3.03v-4.18c0-1.67-1.36-3.03-3.03-3.03h0c-1.67,0-3.03-1.36-3.03-3.03Z"></path></g><circle class="cls-2" cx="100.85" cy="123.9" r="25.01"></circle><path class="cls-2" d="m125.87,129.34l27.26,12.1c4.59,1.91,6.57,7.34,4.28,11.75h0c-2.29,4.42-7.86,5.93-12.07,3.28l-25.13-15.8"></path><circle class="cls-2" cx="81.01" cy="78.15" r="8.76"></circle><path class="cls-2" d="m65.34,101.36c0-4.99,7.38-12.88,11.55-15.48"></path><path class="cls-2" d="m96.82,98.88c-1.71-4.81-7.54-10.8-11.07-13"></path><polyline class="cls-2" points="88.77 101.7 60.92 101.7 60.92 63.82 101.1 63.82 101.1 98.5"></polyline><line class="cls-2" x1="50.68" y1="120.39" x2="64.8" y2="120.39"></line><line class="cls-2" x1="50.68" y1="131.65" x2="64.8" y2="131.65"></line><line class="cls-2" x1="50.68" y1="142.91" x2="71.16" y2="142.91"></line><polyline class="cls-2" points="88.28 125.63 97.46 132.6 112.92 117.84"></polyline></g></svg> 