<?xml version="1.0" encoding="UTF-8"?> <svg xmlns="http://www.w3.org/2000/svg" xmlns:xlink="http://www.w3.org/1999/xlink" id="_Ñëîé_6" data-name="Ñëîé 6" viewBox="0 0 195.27 195.27"><defs><style> .cls-1 { fill: url(#linear-gradient); stroke-width: 0px; } .cls-2 { fill: none; stroke: #fff; stroke-miterlimit: 10; stroke-width: 3px; } </style><linearGradient id="linear-gradient" x1="188.93" y1="191.75" x2="6.71" y2="3.9" gradientUnits="userSpaceOnUse"><stop offset="0" stop-color="#105ea3"></stop><stop offset="1" stop-color="#86c4ea"></stop></linearGradient></defs><rect class="cls-1" width="195.27" height="195.27" rx="15" ry="15"></rect><path class="cls-2" d="m156.94,37.7v119.86c-.69,0-1.23,0-1.76,0-18.65,0-37.29-.01-55.94.03-1.3,0-2.35-.36-3.36-1.13-8.38-6.44-14-14.6-15.37-25.36-.96-7.54.24-14.84,2.87-21.89,1.2-3.21,2.83-6.25,4.26-9.37.18-.39.39-.77.68-1.34-2.77.74-5.31,1.54-7.91,2.1-9.52,2.04-18.8,1.75-27.57-3.08-6.13-3.38-10.74-8.28-14.02-14.47-.33-.62-.46-1.41-.46-2.12-.03-13.85,0-27.7-.05-41.55v-1.65h118.61Zm-52.49,61.9c.89-.64,2.49-1.75,1.41-4.06-.68-1.47-1.24-3.02-2.09-4.38-1.12-1.79,1.64-6.19,2.1-7,.53-.94,1.06-1.9,1.37-2.92.46-1.55-.41-2.44-1.95-2.05-.88.22-1.76.62-2.53,1.11-1.4.89-2.76,1.86-4.05,2.91-.62.5-1.05.62-1.78.24-1.9-1-3.85-1.9-5.79-2.83-1.68-.98-3.48.17-4.32,1.01,2.11,2.05,4.58,4.52,6.77,6.65-.51.74-3.32,4.78-6.28,4.73-.9-.01-2.46,1.24-3.04,1.77,6.04.22,6.66,3.56,8.03,7.57.58-1.02.84-1.94.99-2.87.17-1.04-.14-2.46.43-3.06,1.28-1.35,2.98-2.29,4.6-3.46,1.14,1.19,2.18,2.23,3.17,3.31,1.03,1.12,2.01,2.27,2.97,3.35Z"></path></svg> 