<?xml version="1.0" encoding="UTF-8"?> <svg xmlns="http://www.w3.org/2000/svg" xmlns:xlink="http://www.w3.org/1999/xlink" id="Layer_1" data-name="Layer 1" viewBox="0 0 1551.31 850.12"><defs><style> .cls-1 { fill: #86c4ea; } .cls-1, .cls-2, .cls-3, .cls-4, .cls-5, .cls-6, .cls-7, .cls-8, .cls-9, .cls-10, .cls-11 { stroke-width: 0px; } .cls-12 { fill: #fff; font-family: Exo2Roman-Bold, 'Exo 2'; font-size: 24px; font-variation-settings: 'wght' 700; font-weight: 700; } .cls-13, .cls-14, .cls-15 { stroke-miterlimit: 10; } .cls-13, .cls-15 { fill: none; stroke: #727272; } .cls-2 { fill: url(#linear-gradient); } .cls-16 { letter-spacing: 0em; } .cls-14 { fill: #105ea3; stroke: #fff; stroke-width: 2px; } .cls-17 { letter-spacing: -.02em; } .cls-3 { fill: url(#linear-gradient-6); } .cls-18 { letter-spacing: 0em; } .cls-19 { letter-spacing: 0em; } .cls-20 { letter-spacing: -.01em; } .cls-21 { letter-spacing: 0em; } .cls-22 { letter-spacing: 0em; } .cls-23 { letter-spacing: -.11em; } .cls-4 { fill: url(#linear-gradient-5); } .cls-24 { letter-spacing: 0em; } .cls-25 { letter-spacing: -.01em; } .cls-26 { letter-spacing: 0em; } .cls-27 { letter-spacing: -.02em; } .cls-28 { letter-spacing: 0em; } .cls-5 { fill: url(#linear-gradient-2); } .cls-29 { letter-spacing: 0em; } .cls-30 { letter-spacing: -.01em; } .cls-6 { fill: url(#linear-gradient-7); } .cls-31 { letter-spacing: 0em; } .cls-32 { letter-spacing: 0em; } .cls-7 { fill: url(#linear-gradient-3); } .cls-33 { letter-spacing: -.01em; } .cls-8 { fill: url(#linear-gradient-9); } .cls-34 { letter-spacing: -.02em; } .cls-35 { letter-spacing: 0em; } .cls-36 { letter-spacing: 0em; } .cls-9 { fill: url(#linear-gradient-8); } .cls-37 { letter-spacing: -.03em; } .cls-38 { font-family: Exo2-Regular, 'Exo 2'; font-size: 21px; font-variation-settings: 'wght' 400; } .cls-39 { letter-spacing: -.02em; } .cls-40 { letter-spacing: 0em; } .cls-41 { letter-spacing: -.02em; } .cls-42 { letter-spacing: 0em; } .cls-10 { fill: url(#linear-gradient-4); } .cls-11 { fill: #efefef; } .cls-15 { fill-rule: evenodd; } </style><linearGradient id="linear-gradient" x1="0" y1="715.14" x2="239.49" y2="715.14" gradientUnits="userSpaceOnUse"><stop offset="0" stop-color="#86c4ea"></stop><stop offset="1" stop-color="#105ea3"></stop></linearGradient><linearGradient id="linear-gradient-2" x1="262.37" x2="501.85" xlink:href="#linear-gradient"></linearGradient><linearGradient id="linear-gradient-3" x1="524.73" x2="764.22" xlink:href="#linear-gradient"></linearGradient><linearGradient id="linear-gradient-4" x1="787.1" x2="1026.58" xlink:href="#linear-gradient"></linearGradient><linearGradient id="linear-gradient-5" x1="1049.46" x2="1288.95" xlink:href="#linear-gradient"></linearGradient><linearGradient id="linear-gradient-6" x1="1311.83" x2="1551.31" xlink:href="#linear-gradient"></linearGradient><linearGradient id="linear-gradient-7" x1="634.68" y1="30.18" x2="914.27" y2="30.18" xlink:href="#linear-gradient"></linearGradient><linearGradient id="linear-gradient-8" x1="634.68" y1="388.66" x2="914.27" y2="388.66" xlink:href="#linear-gradient"></linearGradient><linearGradient id="linear-gradient-9" x1="634.68" y1="207.65" x2="914.27" y2="207.65" xlink:href="#linear-gradient"></linearGradient></defs><g><line class="cls-13" x1="981.05" y1="238.23" x2="886.89" y2="238.23"></line><path class="cls-15" d="m1065.01,338.54h-33.96c-27.61,0-50-22.39-50-50v-100.63c0-27.61,22.39-50,50-50h33.96"></path><g><path class="cls-11" d="m1049.46,131.05h239.59v56.57c0,9.67-7.85,17.51-17.51,17.51h-204.56c-9.67,0-17.51-7.85-17.51-17.51v-56.57h0Z"></path><path class="cls-11" d="m1049.46,331.68h239.59v56.57c0,9.67-7.85,17.51-17.51,17.51h-204.56c-9.67,0-17.51-7.85-17.51-17.51v-56.57h0Z"></path><path class="cls-1" d="m1066.98,70.7h204.56c9.67,0,17.51,7.85,17.51,17.51v42.84h-239.59v-42.84c0-9.67,7.85-17.51,17.51-17.51Z"></path><text class="cls-12" transform="translate(1065.56 108.95)"><tspan class="cls-42" x="0" y="0">P</tspan><tspan x="14.76" y="0">etu</tspan><tspan class="cls-22" x="52.37" y="0">g</tspan><tspan x="66.22" y="0">as In</tspan><tspan class="cls-32" x="119.25" y="0">f</tspan><tspan x="128.81" y="0">ormasi</tspan></text><text class="cls-38" transform="translate(1096.3 161.47)"><tspan x="0" y="0">Junio</tspan><tspan class="cls-17" x="48.45" y="0">r</tspan><tspan class="cls-31" x="56.43" y="0" xml:space="preserve"> Mana</tspan><tspan class="cls-28" x="114.78" y="0">g</tspan><tspan x="126.42" y="0">e</tspan><tspan class="cls-41" x="137.69" y="0">r</tspan><tspan x="-15.67" y="25.2">Hubun</tspan><tspan class="cls-35" x="46.47" y="25.2">g</tspan><tspan x="58.09" y="25.2">an Interna</tspan><tspan class="cls-37" x="155.63" y="25.2">l</tspan></text><path class="cls-1" d="m1066.98,271.33h204.56c9.67,0,17.51,7.85,17.51,17.51v42.84h-239.59v-42.84c0-9.67,7.85-17.51,17.51-17.51Z"></path><text class="cls-12" transform="translate(1065.55 309.7)"><tspan class="cls-42" x="0" y="0">P</tspan><tspan x="14.76" y="0">etu</tspan><tspan class="cls-22" x="52.37" y="0">g</tspan><tspan x="66.22" y="0">as In</tspan><tspan class="cls-32" x="119.25" y="0">f</tspan><tspan x="128.81" y="0">ormasi</tspan></text><text class="cls-38" transform="translate(1096.3 360.72)"><tspan x="0" y="0">Junio</tspan><tspan class="cls-17" x="48.45" y="0">r</tspan><tspan class="cls-31" x="56.43" y="0" xml:space="preserve"> Mana</tspan><tspan class="cls-28" x="114.78" y="0">g</tspan><tspan x="126.42" y="0">e</tspan><tspan class="cls-41" x="137.69" y="0">r</tspan><tspan x="-23.37" y="25.2">Hubun</tspan><tspan class="cls-35" x="38.77" y="25.2">g</tspan><tspan x="50.38" y="25.2">an Eksterna</tspan><tspan class="cls-27" x="163.34" y="25.2">l</tspan></text></g></g><path class="cls-11" d="m0,755.32h239.49v77.29c0,9.67-7.85,17.51-17.51,17.51H17.51c-9.67,0-17.51-7.85-17.51-17.51v-77.29h0Z"></path><path class="cls-2" d="m17.51,674.96h204.46c9.67,0,17.51,7.85,17.51,17.51v62.84H0v-62.84c0-9.67,7.85-17.51,17.51-17.51Z"></path><text class="cls-12" transform="translate(42.9 713)"><tspan x="0" y="0">Ang</tspan><tspan class="cls-16" x="44.04" y="0">g</tspan><tspan class="cls-42" x="57.84" y="0">o</tspan><tspan x="71.93" y="0">ta PPID</tspan><tspan class="cls-42" x="17.95" y="28.8">P</tspan><tspan x="32.71" y="28.8">elaksana</tspan></text><path class="cls-11" d="m262.37,755.32h239.49v77.29c0,9.67-7.85,17.51-17.51,17.51h-204.46c-9.67,0-17.51-7.85-17.51-17.51v-77.29h0Z"></path><path class="cls-5" d="m279.88,674.96h204.46c9.67,0,17.51,7.85,17.51,17.51v62.84h-239.49v-62.84c0-9.67,7.85-17.51,17.51-17.51Z"></path><text class="cls-12" transform="translate(305.26 713)"><tspan x="0" y="0">Ang</tspan><tspan class="cls-16" x="44.04" y="0">g</tspan><tspan class="cls-42" x="57.84" y="0">o</tspan><tspan x="71.93" y="0">ta PPID</tspan><tspan class="cls-42" x="17.95" y="28.8">P</tspan><tspan x="32.71" y="28.8">elaksana</tspan></text><path class="cls-11" d="m524.73,755.32h239.49v77.29c0,9.67-7.85,17.51-17.51,17.51h-204.46c-9.67,0-17.51-7.85-17.51-17.51v-77.29h0Z"></path><path class="cls-7" d="m542.25,674.96h204.46c9.67,0,17.51,7.85,17.51,17.51v62.84h-239.49v-62.84c0-9.67,7.85-17.51,17.51-17.51Z"></path><text class="cls-12" transform="translate(567.63 713)"><tspan x="0" y="0">Ang</tspan><tspan class="cls-16" x="44.04" y="0">g</tspan><tspan class="cls-42" x="57.84" y="0">o</tspan><tspan x="71.93" y="0">ta PPID</tspan><tspan class="cls-42" x="17.95" y="28.8">P</tspan><tspan x="32.71" y="28.8">elaksana</tspan></text><path class="cls-11" d="m787.1,755.32h239.49v77.29c0,9.67-7.85,17.51-17.51,17.51h-204.46c-9.67,0-17.51-7.85-17.51-17.51v-77.29h0Z"></path><path class="cls-10" d="m804.61,674.96h204.46c9.67,0,17.51,7.85,17.51,17.51v62.84h-239.49v-62.84c0-9.67,7.85-17.51,17.51-17.51Z"></path><text class="cls-12" transform="translate(829.99 713)"><tspan x="0" y="0">Ang</tspan><tspan class="cls-16" x="44.04" y="0">g</tspan><tspan class="cls-42" x="57.84" y="0">o</tspan><tspan x="71.93" y="0">ta PPID</tspan><tspan class="cls-42" x="17.95" y="28.8">P</tspan><tspan x="32.71" y="28.8">elaksana</tspan></text><path class="cls-11" d="m1049.46,755.32h239.49v77.29c0,9.67-7.85,17.51-17.51,17.51h-204.46c-9.67,0-17.51-7.85-17.51-17.51v-77.29h0Z"></path><path class="cls-4" d="m1066.98,674.96h204.46c9.67,0,17.51,7.85,17.51,17.51v62.84h-239.49v-62.84c0-9.67,7.85-17.51,17.51-17.51Z"></path><text class="cls-12" transform="translate(1092.36 713)"><tspan x="0" y="0">Ang</tspan><tspan class="cls-16" x="44.04" y="0">g</tspan><tspan class="cls-42" x="57.84" y="0">o</tspan><tspan x="71.93" y="0">ta PPID</tspan><tspan class="cls-42" x="17.95" y="28.8">P</tspan><tspan x="32.71" y="28.8">elaksana</tspan></text><path class="cls-11" d="m1311.83,755.32h239.49v77.29c0,9.67-7.85,17.51-17.51,17.51h-204.46c-9.67,0-17.51-7.85-17.51-17.51v-77.29h0Z"></path><path class="cls-3" d="m1329.34,674.96h204.46c9.67,0,17.51,7.85,17.51,17.51v62.84h-239.49v-62.84c0-9.67,7.85-17.51,17.51-17.51Z"></path><text class="cls-12" transform="translate(1354.73 713)"><tspan x="0" y="0">Ang</tspan><tspan class="cls-16" x="44.04" y="0">g</tspan><tspan class="cls-42" x="57.84" y="0">o</tspan><tspan x="71.93" y="0">ta PPID</tspan><tspan class="cls-42" x="17.95" y="28.8">P</tspan><tspan x="32.71" y="28.8">elaksana</tspan></text><line class="cls-13" x1="382.11" y1="674.96" x2="382.11" y2="592.65"></line><line class="cls-13" x1="644.47" y1="674.96" x2="644.47" y2="592.65"></line><line class="cls-13" x1="906.84" y1="674.96" x2="906.84" y2="592.65"></line><line class="cls-13" x1="1169.21" y1="674.96" x2="1169.21" y2="592.65"></line><line class="cls-13" x1="774.47" y1="62.85" x2="774.47" y2="592.65"></line><path class="cls-6" d="m652.2,0h244.56c9.67,0,17.51,7.85,17.51,17.51v42.84h-279.59V17.51c0-9.67,7.85-17.51,17.51-17.51Z"></path><text class="cls-12" transform="translate(705.5 40.38)"><tspan class="cls-25" x="0" y="0">A</tspan><tspan x="15.34" y="0">tasan PPID</tspan></text><text class="cls-38" transform="translate(34.89 796.1)"><tspan x="0" y="0">Mana</tspan><tspan class="cls-29" x="53.68" y="0">g</tspan><tspan x="65.31" y="0">e</tspan><tspan class="cls-34" x="76.59" y="0">r</tspan><tspan x="84.57" y="0" xml:space="preserve"> Bantuan</tspan><tspan x="51.32" y="25.2">Hukum</tspan></text><text class="cls-38" transform="translate(539.8 796.1)"><tspan x="0" y="0">Mana</tspan><tspan class="cls-29" x="53.68" y="0">g</tspan><tspan x="65.31" y="0">e</tspan><tspan class="cls-34" x="76.59" y="0">r</tspan><tspan class="cls-39" x="84.57" y="0"> </tspan><tspan x="88.75" y="0">Administrasi</tspan><tspan x="62.38" y="25.2">dan SDM</tspan></text><text class="cls-38" transform="translate(802.16 796.1)"><tspan x="0" y="0">Mana</tspan><tspan class="cls-29" x="53.68" y="0">g</tspan><tspan x="65.31" y="0">e</tspan><tspan class="cls-34" x="76.59" y="0">r</tspan><tspan x="84.57" y="0"> </tspan><tspan class="cls-21" x="89.25" y="0">P</tspan><tspan class="cls-18" x="101.51" y="0">emba</tspan><tspan class="cls-35" x="154.68" y="0">y</tspan><tspan x="165.69" y="0">aran</tspan><tspan x="58.92" y="25.2">dan </tspan><tspan class="cls-28" x="99.36" y="25.2">P</tspan><tspan x="111.67" y="25.2">aja</tspan><tspan class="cls-33" x="139.97" y="25.2">k</tspan></text><text class="cls-38" transform="translate(1059.79 783.5)"><tspan x="0" y="0">Mana</tspan><tspan class="cls-29" x="53.68" y="0">g</tspan><tspan x="65.31" y="0">e</tspan><tspan class="cls-34" x="76.59" y="0">r</tspan><tspan x="84.57" y="0"> </tspan><tspan class="cls-21" x="89.25" y="0">P</tspan><tspan class="cls-18" x="101.51" y="0">en</tspan><tspan class="cls-29" x="124.99" y="0">g</tspan><tspan x="136.62" y="0">endalian</tspan><tspan x="5.02" y="25.2">dan E</tspan><tspan class="cls-40" x="57.22" y="25.2">v</tspan><tspan class="cls-31" x="68.25" y="25.2">aluasi </tspan><tspan class="cls-21" x="130.07" y="25.2">P</tspan><tspan x="142.34" y="25.2">ersone</tspan><tspan class="cls-37" x="208.11" y="25.2">l</tspan><tspan class="cls-23" x="79.57" y="50.4">T</tspan><tspan class="cls-18" x="89.42" y="50.4">ekni</tspan><tspan class="cls-33" x="128.79" y="50.4">k</tspan></text><text class="cls-38" transform="translate(1335.44 783.5)"><tspan x="0" y="0">Mana</tspan><tspan class="cls-29" x="53.68" y="0">g</tspan><tspan x="65.31" y="0">e</tspan><tspan class="cls-34" x="76.59" y="0">r</tspan><tspan x="84.57" y="0"> </tspan><tspan class="cls-20" x="89.25" y="0">K</tspan><tspan x="101.39" y="0">epatuhan</tspan><tspan x="30.08" y="25.2">dan In</tspan><tspan class="cls-24" x="88.23" y="25.2">f</tspan><tspan class="cls-31" x="96.04" y="25.2">ormasi</tspan><tspan class="cls-20" x="33.75" y="50.4">K</tspan><tspan class="cls-18" x="45.88" y="50.4">eselamatan</tspan></text><path class="cls-13" d="m1431.57,674.12v-31.47c0-27.61-22.39-50-50-50H169.74c-27.61,0-50,22.39-50,50v31"></path><circle class="cls-14" cx="119.74" cy="674.96" r="7"></circle><text class="cls-38" transform="translate(314.98 796.1)"><tspan x="0" y="0">Mana</tspan><tspan class="cls-29" x="53.68" y="0">g</tspan><tspan x="65.31" y="0">e</tspan><tspan class="cls-34" x="76.59" y="0">r</tspan><tspan x="84.57" y="0" xml:space="preserve"> Data</tspan><tspan class="cls-21" x="17.24" y="25.2">P</tspan><tspan class="cls-18" x="29.5" y="25.2">ela</tspan><tspan class="cls-40" x="58.55" y="25.2">y</tspan><tspan x="69.55" y="25.2">anan</tspan></text><circle class="cls-14" cx="382.11" cy="674.96" r="7"></circle><circle class="cls-14" cx="644.47" cy="674.96" r="7"></circle><circle class="cls-14" cx="906.84" cy="674.96" r="7"></circle><circle class="cls-14" cx="1169.21" cy="674.96" r="7"></circle><circle class="cls-14" cx="1431.57" cy="674.96" r="7"></circle><path class="cls-11" d="m634.68,60.35h279.59v50.64c0,9.67-7.85,17.51-17.51,17.51h-244.56c-9.67,0-17.51-7.85-17.51-17.51v-50.64h0Z"></path><text class="cls-38" transform="translate(701.81 98.99)"><tspan x="0" y="0">Di</tspan><tspan class="cls-30" x="19.15" y="0">r</tspan><tspan x="27.3" y="0">ektu</tspan><tspan class="cls-17" x="69.24" y="0">r</tspan><tspan class="cls-31" x="77.22" y="0" xml:space="preserve"> Utama</tspan></text><path class="cls-11" d="m634.68,418.83h279.16v77.29c0,9.67-7.85,17.51-17.51,17.51h-244.13c-9.67,0-17.51-7.85-17.51-17.51v-77.29h0Z"></path><g><path class="cls-11" d="m634.68,418.83h279.16v77.29c0,9.67-7.85,17.51-17.51,17.51h-244.13c-9.67,0-17.51-7.85-17.51-17.51v-77.29h0Z"></path><path class="cls-9" d="m652.2,358.48h244.56c9.67,0,17.51,7.85,17.51,17.51v42.84h-279.59v-42.84c0-9.67,7.85-17.51,17.51-17.51Z"></path><text class="cls-12" transform="translate(686.46 396.72)"><tspan x="0" y="0">PPID </tspan><tspan class="cls-42" x="58.25" y="0">P</tspan><tspan x="73.01" y="0">elaksana</tspan></text><text class="cls-38" transform="translate(681.11 459.62)"><tspan x="0" y="0">Mana</tspan><tspan class="cls-29" x="53.68" y="0">g</tspan><tspan x="65.31" y="0">e</tspan><tspan class="cls-34" x="76.59" y="0">r</tspan><tspan x="84.57" y="0" xml:space="preserve"> Hubun</tspan><tspan class="cls-35" x="151.39" y="0">g</tspan><tspan class="cls-19" x="163" y="0">an</tspan><tspan x="36.74" y="25.2">Ma</tspan><tspan class="cls-26" x="66.69" y="25.2">s</tspan><tspan class="cls-35" x="77.29" y="25.2">y</tspan><tspan x="88.29" y="25.2">arakat</tspan></text></g><circle class="cls-14" cx="774.47" cy="358.48" r="7"></circle><g><g><path class="cls-11" d="m634.68,237.83h279.59v50.64c0,9.67-7.85,17.51-17.51,17.51h-244.56c-9.67,0-17.51-7.85-17.51-17.51v-50.64h0Z"></path><path class="cls-8" d="m652.2,177.47h244.56c9.67,0,17.51,7.85,17.51,17.51v42.84h-279.59v-42.84c0-9.67,7.85-17.51,17.51-17.51Z"></path><text class="cls-38" transform="translate(666.84 276.46)"><tspan x="0" y="0">Sek</tspan><tspan class="cls-30" x="33.75" y="0">r</tspan><tspan x="41.89" y="0">etaris </tspan><tspan class="cls-36" x="101.68" y="0">P</tspan><tspan x="113.94" y="0">erusahaan</tspan></text></g><text class="cls-12" transform="translate(747.94 215.95)"><tspan x="0" y="0">PPID</tspan></text><circle class="cls-14" cx="774.47" cy="177.47" r="7"></circle></g></svg> 