<?xml version="1.0" encoding="UTF-8"?> <svg xmlns="http://www.w3.org/2000/svg" id="_Ñëîé_6" data-name="Ñëîé 6" viewBox="0 0 129.47 130"><defs><style> .cls-1 { stroke: #105ea3; } .cls-1, .cls-2 { fill: none; stroke-linecap: round; stroke-linejoin: round; stroke-width: 2px; } .cls-2 { stroke: #86c4ea; } </style></defs><path class="cls-1" d="m84.83,74.86v-17.79c0-1.56-1.1-2.72-2.26-3.53-.56-.43-3.54-1.09-5.53,1.87"></path><path class="cls-1" d="m77.04,69.24v-18.2c0-1.48-.83-2.77-2.05-3.43-1.39-.61-4.12-1.35-5.74,2.15"></path><path class="cls-1" d="m69.25,71.88v-27.11c0-2.15-1.74-3.89-3.89-3.89h0c-2.15,0-3.89,1.74-3.89,3.89v23.53"></path><path class="cls-1" d="m53.68,70.41v-24.35c0-2.15,1.74-3.89,3.89-3.89,1.02,0,3.07,0,3.89,2.6"></path><path class="cls-1" d="m84.83,74.86v5.19c0,3.36-1.23,6.6-3.46,9.1h0c-2.04,2.29-3.24,5.19-3.44,8.24v4.22"></path><path class="cls-1" d="m53.68,62.45c-1.91-.26-3.68.5-5.39,1.75-2.21,1.65-3.64,4.28-3.64,7.25v10.02c0,3.2,1.13,6.29,3.19,8.73h0c1.73,2.05,2.8,4.55,3.1,7.2v4.35"></path><rect class="cls-2" x="47.43" y="101.3" width="33.5" height="12.79" rx="5.72" ry="5.72"></rect><line class="cls-1" x1="33.37" y1="67.76" x2="44.65" y2="79.04"></line><path class="cls-1" d="m33.37,67.76l-3.67-3.67c-2.37-2.37-3.79-5.54-3.99-8.89h0c-.18-3.06-1.38-5.97-3.4-8.26l-3.45-3.19"></path><path class="cls-1" d="m63.45,41.02l-6.34-6.34c-2.26-2.26-5.25-3.65-8.43-3.92h0c-2.67-.23-5.2-1.24-7.28-2.89l-3.26-2.67"></path><rect class="cls-2" x="8" y="23.55" width="33.5" height="12.79" rx="5.72" ry="5.72" transform="translate(63.42 33.61) rotate(135)"></rect><line class="cls-1" x1="96.11" y1="67.76" x2="84.83" y2="79.04"></line><path class="cls-1" d="m96.11,67.76l3.67-3.67c2.37-2.37,3.79-5.54,3.99-8.89h0c.18-3.06,1.38-5.97,3.4-8.26l2.93-3.35"></path><path class="cls-1" d="m66.47,40.57l5.9-5.9c2.26-2.26,5.25-3.65,8.43-3.92h0c2.67-.23,5.2-1.24,7.28-2.89l2.9-2.45"></path><rect class="cls-2" x="87.97" y="23.55" width="33.5" height="12.79" rx="5.72" ry="5.72" transform="translate(51.85 -65.28) rotate(45)"></rect></svg> 