<?xml version="1.0" encoding="UTF-8"?> <svg xmlns="http://www.w3.org/2000/svg" xmlns:xlink="http://www.w3.org/1999/xlink" version="1.1" x="0px" y="0px" viewBox="0 0 129.7 127.41" style="enable-background:new 0 0 129.7 127.41;" xml:space="preserve"> <style type="text/css"> .st0{display:none;} .st1{display:inline;fill-rule:evenodd;clip-rule:evenodd;fill:#3B3B3B;} .st2{fill:#FFFFFF;} .st3{fill:none;stroke:#313131;stroke-width:2.5;stroke-linecap:round;stroke-linejoin:round;stroke-miterlimit:10;} .st4{fill:none;stroke:#FFFFFF;stroke-width:2.5;stroke-linecap:round;stroke-linejoin:round;stroke-miterlimit:10;} .st5{fill:#313131;stroke:#313131;stroke-width:2.5;stroke-linecap:round;stroke-linejoin:round;stroke-miterlimit:10;} .st6{fill-rule:evenodd;clip-rule:evenodd;fill:#105EA3;} .st7{fill-rule:evenodd;clip-rule:evenodd;fill:#DB2728;} .st8{fill-rule:evenodd;clip-rule:evenodd;fill:none;stroke:#105EA3;stroke-width:2.5;stroke-miterlimit:10;} .st9{fill-rule:evenodd;clip-rule:evenodd;fill:#DB2728;stroke:#105EA3;stroke-width:2.5;stroke-miterlimit:10;} .st10{opacity:0;fill:#99B6C1;} .st11{opacity:0.0196;fill:#97B4BF;} .st12{opacity:0.0392;fill:#96B2BD;} .st13{opacity:0.0588;fill:#94B0BB;} .st14{opacity:0.0784;fill:#92AEB9;} .st15{opacity:0.098;fill:#90ACB7;} .st16{opacity:0.1176;fill:#8FAAB4;} .st17{opacity:0.1373;fill:#8DA9B2;} .st18{opacity:0.1569;fill:#8BA7B0;} .st19{opacity:0.1765;fill:#8AA5AE;} .st20{opacity:0.1961;fill:#88A3AC;} .st21{opacity:0.2157;fill:#86A1AA;} .st22{opacity:0.2353;fill:#859FA8;} .st23{opacity:0.2549;fill:#839DA6;} .st24{opacity:0.2745;fill:#819BA4;} .st25{opacity:0.2941;fill:#7F99A2;} .st26{opacity:0.3137;fill:#7E979F;} .st27{opacity:0.3333;fill:#7C959D;} .st28{opacity:0.3529;fill:#7A939B;} .st29{opacity:0.3725;fill:#799199;} .st30{opacity:0.3922;fill:#779097;} .st31{opacity:0.4118;fill:#758E95;} .st32{opacity:0.4314;fill:#738C93;} .st33{opacity:0.451;fill:#728A91;} .st34{opacity:0.4706;fill:#70888F;} .st35{opacity:0.4902;fill:#6E868D;} .st36{opacity:0.5098;fill:#6D848A;} .st37{opacity:0.5294;fill:#6B8288;} .st38{opacity:0.549;fill:#698086;} .st39{opacity:0.5686;fill:#687E84;} .st40{opacity:0.5882;fill:#667C82;} .st41{opacity:0.6078;fill:#647A80;} .st42{opacity:0.6275;fill:#62797E;} .st43{opacity:0.6471;fill:#61777C;} .st44{opacity:0.6667;fill:#5F757A;} .st45{opacity:0.6863;fill:#5D7378;} .st46{opacity:0.7059;fill:#5C7175;} .st47{opacity:0.7255;fill:#5A6F73;} .st48{opacity:0.7451;fill:#586D71;} .st49{opacity:0.7647;fill:#566B6F;} .st50{opacity:0.7843;fill:#55696D;} .st51{opacity:0.8039;fill:#53676B;} .st52{opacity:0.8235;fill:#516569;} .st53{opacity:0.8431;fill:#506367;} .st54{opacity:0.8627;fill:#4E6165;} .st55{opacity:0.8824;fill:#4C6063;} .st56{opacity:0.902;fill:#4B5E60;} .st57{opacity:0.9216;fill:#495C5E;} .st58{opacity:0.9412;fill:#475A5C;} .st59{opacity:0.9608;fill:#45585A;} .st60{opacity:0.9804;fill:#445658;} .st61{fill:#425456;} .st62{fill:#848484;} .st63{fill:#99B6C1;} .st64{fill:#28A7E8;} .st65{opacity:0.0196;fill:#98B5C0;} .st66{opacity:0.0392;fill:#97B4BE;} .st67{opacity:0.0588;fill:#96B3BD;} .st68{opacity:0.0784;fill:#95B1BC;} .st69{opacity:0.098;fill:#94B0BB;} .st70{opacity:0.1176;fill:#93AFB9;} .st71{opacity:0.1373;fill:#92AEB8;} .st72{opacity:0.1569;fill:#91ADB7;} .st73{opacity:0.1765;fill:#90ACB5;} .st74{opacity:0.1961;fill:#8FAAB4;} .st75{opacity:0.2157;fill:#8EA9B3;} .st76{opacity:0.2353;fill:#8DA8B1;} .st77{opacity:0.2549;fill:#8CA7B0;} .st78{opacity:0.2745;fill:#8BA6AF;} .st79{opacity:0.2941;fill:#8AA5AE;} .st80{opacity:0.3137;fill:#89A3AC;} .st81{opacity:0.3333;fill:#88A2AB;} .st82{opacity:0.3529;fill:#87A1AA;} .st83{opacity:0.3725;fill:#86A0A8;} .st84{opacity:0.3922;fill:#859FA7;} .st85{opacity:0.4118;fill:#849EA6;} .st86{opacity:0.4314;fill:#839DA5;} .st87{opacity:0.451;fill:#829BA3;} .st88{opacity:0.4706;fill:#819AA2;} .st89{opacity:0.4902;fill:#8099A1;} .st90{opacity:0.5098;fill:#80989F;} .st91{opacity:0.5294;fill:#7F979E;} .st92{opacity:0.549;fill:#7E969D;} .st93{opacity:0.5686;fill:#7D949B;} .st94{opacity:0.5882;fill:#7C939A;} .st95{opacity:0.6078;fill:#7B9299;} .st96{opacity:0.6275;fill:#7A9198;} .st97{opacity:0.6471;fill:#799096;} .st98{opacity:0.6667;fill:#788F95;} .st99{opacity:0.6863;fill:#778E94;} .st100{opacity:0.7059;fill:#768C92;} .st101{opacity:0.7255;fill:#758B91;} .st102{opacity:0.7451;fill:#748A90;} .st103{opacity:0.7647;fill:#73898F;} .st104{opacity:0.7843;fill:#72888D;} .st105{opacity:0.8039;fill:#71878C;} .st106{opacity:0.8235;fill:#70858B;} .st107{opacity:0.8431;fill:#6F8489;} .st108{opacity:0.8627;fill:#6E8388;} .st109{opacity:0.8824;fill:#6D8287;} .st110{opacity:0.902;fill:#6C8185;} .st111{opacity:0.9216;fill:#6B8084;} .st112{opacity:0.9412;fill:#6A7E83;} .st113{opacity:0.9608;fill:#697D82;} .st114{opacity:0.9804;fill:#687C80;} .st115{fill:#677B7F;} .st116{fill:#777777;} .st117{fill:#81A1AA;} .st118{fill:#9B9B9B;} .st119{opacity:0.0392;fill:#95B1BC;} .st120{opacity:0.0588;fill:#93AFBA;} .st121{opacity:0.0784;fill:#91ADB7;} .st122{opacity:0.098;fill:#8FAAB5;} .st123{opacity:0.1176;fill:#8DA8B2;} .st124{opacity:0.1373;fill:#8BA6B0;} .st125{opacity:0.1569;fill:#89A3AD;} .st126{opacity:0.1765;fill:#87A1AB;} .st127{opacity:0.1961;fill:#859FA8;} .st128{opacity:0.2157;fill:#839DA6;} .st129{opacity:0.2353;fill:#819AA3;} .st130{opacity:0.2549;fill:#7F98A1;} .st131{opacity:0.2745;fill:#7D969E;} .st132{opacity:0.2941;fill:#7B939C;} .st133{opacity:0.3137;fill:#799199;} .st134{opacity:0.3333;fill:#778F97;} .st135{opacity:0.3529;fill:#758C94;} .st136{opacity:0.3725;fill:#738A92;} .st137{opacity:0.3922;fill:#71888F;} .st138{opacity:0.4118;fill:#6F858D;} .st139{opacity:0.4314;fill:#6D838A;} .st140{opacity:0.451;fill:#6B8188;} .st141{opacity:0.4706;fill:#697E85;} .st142{opacity:0.4902;fill:#677C83;} .st143{opacity:0.5098;fill:#667A80;} .st144{opacity:0.5294;fill:#64787E;} .st145{opacity:0.549;fill:#62757B;} .st146{opacity:0.5686;fill:#607379;} .st147{opacity:0.5882;fill:#5E7176;} .st148{opacity:0.6078;fill:#5C6E74;} .st149{opacity:0.6275;fill:#5A6C71;} .st150{opacity:0.6471;fill:#586A6F;} .st151{opacity:0.6667;fill:#56676C;} .st152{opacity:0.6863;fill:#54656A;} .st153{opacity:0.7059;fill:#526367;} .st154{opacity:0.7255;fill:#506065;} .st155{opacity:0.7451;fill:#4E5E62;} .st156{opacity:0.7647;fill:#4C5C60;} .st157{opacity:0.7843;fill:#4A595D;} .st158{opacity:0.8039;fill:#48575B;} .st159{opacity:0.8235;fill:#465558;} .st160{opacity:0.8431;fill:#445356;} .st161{opacity:0.8627;fill:#425053;} .st162{opacity:0.8824;fill:#404E51;} .st163{opacity:0.902;fill:#3E4C4E;} .st164{opacity:0.9216;fill:#3C494C;} .st165{opacity:0.9412;fill:#3A4749;} .st166{opacity:0.9608;fill:#384547;} .st167{opacity:0.9804;fill:#364244;} .st168{fill:#344042;} .st169{fill:#DDE6E8;} .st170{fill:none;stroke:#FFFFFF;stroke-width:3;stroke-linecap:round;stroke-linejoin:round;stroke-miterlimit:10;} .st171{fill:none;stroke:#105EA3;stroke-width:5;stroke-linecap:round;stroke-linejoin:round;stroke-miterlimit:10;} .st172{fill:#FFFFFF;stroke:#FFFFFF;stroke-width:0.75;stroke-miterlimit:10;} .st173{fill:#86C4EA;} .st174{fill:#CCEEFF;} .st175{fill:none;stroke:#105EA3;stroke-width:3;stroke-linecap:round;stroke-linejoin:round;stroke-miterlimit:10;} .st176{fill:#105EA3;} .st177{fill:#105EA3;stroke:#105EA3;stroke-width:0.75;stroke-miterlimit:10;} .st178{fill-rule:evenodd;clip-rule:evenodd;fill:#FFFFFF;} .st179{display:inline;} .st180{fill:#DB2728;} .st181{fill:none;stroke:#000000;stroke-width:3;stroke-linecap:round;stroke-linejoin:round;stroke-miterlimit:10;} .st182{fill-rule:evenodd;clip-rule:evenodd;fill:none;stroke:#000000;stroke-width:3;stroke-linecap:round;stroke-linejoin:round;stroke-miterlimit:10;} .st183{fill:none;stroke:#000000;stroke-width:3;stroke-linecap:round;stroke-linejoin:round;} </style> <g id="Layer_2" class="st0"> </g> <g id="Ñëîé_6"> <path class="st172" d="M5,123.01c-1.59,0-2.88-1.29-2.88-2.88V85.92c0-1.59,1.29-2.88,2.88-2.88h8.19c1.59,0,2.88,1.29,2.88,2.88 v34.21c0,1.59-1.29,2.88-2.88,2.88H5z M4.37,120.76h9.45V85.29H4.37V120.76z"></path> <path class="st172" d="M24.48,122.94c-0.67-0.04-6.12-0.41-9.39-2.47c-0.52-0.33-0.68-1.03-0.35-1.55 c0.21-0.33,0.56-0.53,0.95-0.53c0.21,0,0.42,0.06,0.6,0.17c2.23,1.4,6.33,2,8.19,2.12l31.84,0c5.25,0,9.79-3.56,11.03-8.66 l4.25-17.4c0.49-2.01,0.04-4.09-1.24-5.71c-1.27-1.62-3.19-2.55-5.25-2.55H45.74c-0.38,0-0.73-0.19-0.94-0.51 c-0.21-0.32-0.24-0.71-0.09-1.06l1.92-4.47c2.1-4.91,3.15-10.1,3.11-15.43c-0.01-2.19-1.8-3.96-3.99-3.96 c-1.41,0-2.31,0.41-3.11,1.4c-0.66,0.82-1.33,2.3-2.1,4.01c-2.92,6.47-7.8,17.3-24.49,22.79c-0.11,0.04-0.23,0.06-0.35,0.06 c-0.49,0-0.92-0.31-1.07-0.77c-0.09-0.29-0.07-0.59,0.06-0.86s0.37-0.47,0.65-0.56c15.75-5.17,20.2-15.04,23.14-21.57 c0.87-1.93,1.56-3.46,2.4-4.5c1.23-1.53,2.77-2.24,4.87-2.24c3.42,0,6.22,2.78,6.24,6.2c0.04,5.65-1.07,11.14-3.29,16.33 l-1.24,2.91h17.66c2.76,0,5.32,1.24,7.02,3.41s2.31,4.95,1.65,7.63l-4.25,17.4c-1.49,6.11-6.92,10.38-13.21,10.38H24.48z"></path> <path class="st172" d="M82.95,115.88c-0.17,0-0.34-0.04-0.5-0.12l-13.29-7.13c-0.27-0.13-0.47-0.36-0.57-0.65 c-0.1-0.28-0.08-0.59,0.06-0.86c0.19-0.39,0.58-0.63,1.01-0.63c0.17,0,0.34,0.04,0.5,0.12l12.8,6.88l19.6-9.66 c14.2-7,23.02-21.17,23.02-37v-44.3l-0.8-0.16c-19.16-3.86-32.23-9.58-41.13-18.02l-0.69-0.65l-0.69,0.65 c-8.9,8.43-21.97,14.16-41.13,18.02l-0.8,0.16v43.87c0,0.62-0.5,1.12-1.12,1.12s-1.12-0.5-1.12-1.12v-44.8c0-0.54,0.38-1,0.91-1.1 c20.66-3.96,34.37-10.06,43.15-19.19C82.33,1.12,82.63,1,82.95,1s0.62,0.12,0.81,0.32c8.78,9.13,22.49,15.23,43.15,19.19 c0.53,0.1,0.91,0.57,0.91,1.1v45.23c0,16.69-9.3,31.64-24.27,39.02l-20.1,9.9C83.29,115.84,83.12,115.88,82.95,115.88z"></path> <path class="st172" d="M78.88,79.25c-0.3,0-0.58-0.12-0.79-0.33L58.85,59.69c-0.21-0.21-0.33-0.5-0.33-0.79s0.12-0.58,0.33-0.79 l6.89-6.89c0.21-0.21,0.5-0.33,0.8-0.33c0.3,0,0.58,0.12,0.79,0.33l11.54,11.54l22.08-22.08c0.21-0.21,0.5-0.33,0.79-0.33 s0.58,0.12,0.79,0.33l6.89,6.89c0.44,0.44,0.44,1.15,0,1.59L79.67,78.92C79.46,79.14,79.18,79.25,78.88,79.25z M61.24,58.9 l17.64,17.64l28.17-28.17l-5.3-5.3L79.67,65.14c-0.21,0.21-0.5,0.33-0.8,0.33c-0.29,0-0.58-0.12-0.79-0.33L66.54,53.59L61.24,58.9z "></path> </g> </svg> 