<?xml version="1.0" encoding="UTF-8"?> <svg xmlns="http://www.w3.org/2000/svg" id="_Ñëîé_6" data-name="Ñëîé 6" viewBox="0 0 129.47 130"><defs><style> .cls-1 { stroke: #105ea3; } .cls-1, .cls-2 { fill: none; stroke-linecap: round; stroke-linejoin: round; stroke-width: 2px; } .cls-2 { stroke: #86c4ea; } </style></defs><path class="cls-1" d="m75.39,67.84c6.88,4.59,12.96,8.98,19.55,13.26,1.6.6,3.39.2,4.59-1,1.5-1.7,2.01-5.84.33-7.5"></path><path class="cls-1" d="m69.81,76.02c5.19,3.82,9.75,6.99,15.05,10.7,1.8,1.31,4.13.87,5.62-.66,2.01-2.08,1.91-5.57,0-7.64"></path><path class="cls-1" d="m73.7,93.37c2.31,1.46,5.11.85,6.82-1.22,1.7-2.19,1.83-5.23.24-7.55l-2.98-2.85"></path><path class="cls-1" d="m20.47,67.9c1.52,1.12,2.88,2.95,4.45,4.07"></path><path class="cls-1" d="m66.18,38.61c-.2-.13-1.53-.88-1.67-.96-1.3-.74-2.6-1.48-3.89-2.23-1.53-.89-3.14-1.1-4.85-.67-4.57,1.15-9.15,2.27-13.72,3.45-2.32.6-4.64.86-7,.42-.97-.18-1.92-.47-2.9-.71-.07.15-.14.31-.21.48"></path><path class="cls-1" d="m99.02,41.14c-.66.33-1.25.65-1.86.91-.4.17-.84.31-1.27.37-1.48.2-2.91-.03-4.3-.57-4.88-1.89-9.76-3.75-14.62-5.67-1.38-.54-2.77-.64-4.15-.24-1.36.39-2.7.92-4,1.5-4.04,1.79-8.07,3.59-12.07,5.46-1.94.91-3.86,1.87-5.69,2.97-3.71,2.23-3.8,7.52-.23,9.81,1.49.95,3.03,1.07,4.63.24,3.52-1.82,7.06-3.62,10.58-5.45.45-.23.79-.24,1.22.06l33.04,22.38c.27.18.49.24.82.11,2.21-.86,7.72-2.98,8.38-3.24"></path><path class="cls-1" d="m31.56,84.14c.05.39.08.79.17,1.18.58,2.58,3.03,4.13,5.43,3.46,1.29-.36,2.16-1.23,2.81-2.37,2.06-3.6,4.14-7.19,6.21-10.78.55-.95.77-1.97.69-3.06-.16-2.04-1.61-3.79-3.51-4.23-1.87-.43-3.69.45-4.76,2.29l-6.32,10.95c-.46.79-.7,1.64-.72,2.57Z"></path><path class="cls-1" d="m41.34,87.23l.11.05c.05.38.07.76.15,1.13.38,1.87,1.85,3.36,3.58,3.66,1.73.3,3.51-.51,4.42-2.05,1.39-2.36,2.75-4.74,4.11-7.11.64-1.13.81-2.34.54-3.61-.39-1.86-1.83-3.31-3.61-3.64-1.69-.31-3.48.5-4.41,2.08-1.41,2.39-2.81,4.78-4.14,7.21-.38.69-.51,1.52-.76,2.28Z"></path><path class="cls-1" d="m24.22,76.25s0,.1,0,.15c.05,2.12,1.45,3.98,3.38,4.49,1.93.51,3.8-.36,4.93-2.3.83-1.42,1.65-2.84,2.47-4.27.66-1.15.87-2.38.6-3.69-.38-1.87-1.89-3.38-3.69-3.67-1.75-.28-3.48.6-4.45,2.28-.86,1.48-1.71,2.96-2.56,4.44-.46.79-.68,1.65-.67,2.57Z"></path><path class="cls-1" d="m61.74,87.95c-.15-.63-.21-1.28-.45-1.87-.69-1.7-1.93-2.78-3.82-2.9-1.81-.11-3.15.73-4.05,2.3-.86,1.5-1.71,3-2.59,4.48-.65,1.11-.82,2.3-.57,3.55.38,1.95,1.85,3.39,3.75,3.71,1.68.28,3.42-.62,4.4-2.3.84-1.43,1.66-2.87,2.49-4.31.48-.82.75-1.69.83-2.67Z"></path><path class="cls-1" d="m59.2,94.59c.09.08.14.12.19.16,1.94,1.34,3.88,2.68,5.83,4.01.23.16.48.29.74.4,2.9,1.22,6.13-1.18,6.06-4.47-.04-2-1.06-3.41-2.59-4.53"></path><line class="cls-1" x1="73.7" y1="93.27" x2="65.02" y2="86.69"></line><rect class="cls-2" x="103.49" y="33.94" width="14.2" height="36.27" transform="translate(-11.15 41.11) rotate(-20.07)"></rect><rect class="cls-2" x="1.21" y="42.89" width="36.27" height="14.2" transform="translate(-34.25 49.28) rotate(-68.09)"></rect></svg> 