<?xml version="1.0" encoding="UTF-8"?> <svg xmlns="http://www.w3.org/2000/svg" id="_Ñëîé_6" data-name="Ñëîé 6" viewBox="0 0 42.88 41.2"><defs><style> .cls-1, .cls-2 { fill: #fff; stroke-width: 0px; } .cls-2 { fill-rule: evenodd; } </style></defs><path class="cls-2" d="m41.82,31.1v-1.67H1.07v1.67c0,1.71,1.39,3.1,3.1,3.1h34.55c1.71,0,3.1-1.39,3.1-3.1h0Zm-15.77,4.17h-9.06l-1.93,4.74h12.92l-1.93-4.74h0ZM1.07,4.3c0-1.71,1.39-3.1,3.1-3.1h34.55c1.71,0,3.1,1.39,3.1,3.1v24.07H1.07V4.3h0Zm41.82,0v26.8c0,2.3-1.87,4.17-4.17,4.17h-11.52l1.93,4.74h4.85c.29,0,.53.24.53.53s-.24.53-.53.53H8.91c-.3,0-.53-.24-.53-.53s.24-.53.53-.53h4.98l1.93-4.74H4.16C1.87,35.27,0,33.4,0,31.1V4.3C0,2,1.87.13,4.16.13h34.55c2.3,0,4.17,1.87,4.17,4.16h0Z"></path><g><g><g><path class="cls-1" d="m14.91,16.02h-7.17c-.41,0-.8-.18-1.07-.49-.27-.31-.38-.73-.31-1.13l.09-.53c.32-1.92,1.96-3.32,3.91-3.32h1.93c1.95,0,3.59,1.39,3.91,3.32l.09.53c.07.41-.05.82-.31,1.13-.27.31-.66.5-1.07.5Zm-4.55-4.42c-1.43,0-2.63,1.02-2.87,2.43l-.09.53c-.02.14.04.23.08.28.04.05.12.12.26.12h7.17c.14,0,.22-.08.26-.12s.1-.14.08-.28l-.09-.53c-.23-1.41-1.44-2.43-2.87-2.43h-1.93Z"></path><path class="cls-1" d="m11.32,11.6c-1.4,0-2.53-1.14-2.53-2.53s1.14-2.53,2.53-2.53,2.53,1.14,2.53,2.53-1.14,2.53-2.53,2.53Zm0-4.01c-.81,0-1.48.66-1.48,1.48s.66,1.48,1.48,1.48,1.48-.66,1.48-1.48-.66-1.48-1.48-1.48Z"></path></g><path class="cls-1" d="m17.05,17.9H6.51c-.48,0-1.17.11-1.55-.26s-.26-1.14-.26-1.63v-6.35c0-1.35-.15-2.78,0-4.12.11-.97.94-.89,1.65-.89h9.15c.5,0,1.03-.05,1.54,0,.88.08.91.77.91,1.44v9.91c0,.74.16,1.82-.89,1.89-.67.05-.68,1.1,0,1.05,2.37-.16,1.94-2.78,1.94-4.44v-7.14c0-.59.02-1.19,0-1.79-.04-1.15-.89-1.94-2.02-1.97-1.86-.05-3.72,0-5.58,0s-3.8-.04-5.69,0c-1.14.02-2,.79-2.05,1.96-.02.56,0,1.13,0,1.7v7.19c0,1.55-.46,4.26,1.75,4.49,1.59.17,3.27.01,4.86.01h6.79c.68,0,.68-1.05,0-1.05Z"></path></g><path class="cls-2" d="m39.13,10.67c0,.29-.24.53-.53.53h-16.4c-.29,0-.53-.24-.53-.53s.24-.53.53-.53h16.4c.29,0,.53.24.53.53h0Z"></path><path class="cls-2" d="m39.13,14.28c0,.29-.24.53-.53.53h-16.4c-.29,0-.53-.24-.53-.53s.24-.53.53-.53h16.4c.29,0,.53.24.53.53h0Z"></path><path class="cls-2" d="m39.13,17.89c0,.29-.24.53-.53.53h-16.4c-.29,0-.53-.24-.53-.53s.24-.53.53-.53h16.4c.29,0,.53.24.53.53h0Z"></path><path class="cls-2" d="m39.13,21.5c0,.29-.24.53-.53.53H4.29c-.29,0-.53-.24-.53-.53s.24-.53.53-.53h34.31c.29,0,.53.24.53.53h0Z"></path><path class="cls-2" d="m39.13,25.1c0,.29-.24.53-.53.53H4.29c-.29,0-.53-.24-.53-.53s.24-.53.53-.53h34.31c.29,0,.53.24.53.53h0Z"></path></g></svg> 