<?xml version="1.0" encoding="UTF-8"?> <svg xmlns="http://www.w3.org/2000/svg" id="_Ñëîé_6" data-name="Ñëîé 6" viewBox="0 0 42.88 41.2"><defs><style> .cls-1, .cls-2 { fill: #fff; stroke-width: 0px; } .cls-2 { fill-rule: evenodd; } </style></defs><path class="cls-2" d="m36.99,34.13c0,.29-.24.53-.53.53h-20.31c-.29,0-.53-.24-.53-.53s.24-.53.53-.53h20.31c.29,0,.53.24.53.53h0Zm0-5.04c0,.29-.24.53-.53.53h-16.4c-.29,0-.53-.24-.53-.53s.24-.53.53-.53h16.4c.29,0,.53.24.53.53h0Zm0-5.04c0,.3-.24.53-.53.53h-14.25c-.29,0-.53-.24-.53-.53s.24-.53.53-.53h14.25c.29,0,.53.24.53.53h0Zm0-5.04c0,.3-.24.53-.53.53h-14.25c-.29,0-.53-.24-.53-.53s.24-.53.53-.53h14.25c.29,0,.53.24.53.53h0Zm0-5.04c0,.29-.24.53-.53.53h-16.4c-.29,0-.53-.24-.53-.53s.24-.53.53-.53h16.4c.29,0,.53.24.53.53h0Zm-9.03-4.5h-11.81c-.29,0-.53-.24-.53-.53s.24-.53.53-.53h11.81c.29,0,.53.24.53.53s-.24.53-.53.53h0Zm11.24,30.66c.98,0,1.78-.8,1.78-1.78V10.31h-8.71c-.29,0-.53-.24-.53-.53V1.07H13.14c-.98,0-1.78.8-1.78,1.78v7.78c5.26.28,9.45,4.65,9.45,9.97s-4.19,9.69-9.45,9.97v7.78c0,.98.8,1.78,1.78,1.78h26.06ZM1.91,20.6c0,4.92,4,8.92,8.92,8.92s8.92-4,8.92-8.92-4-8.92-8.92-8.92S1.91,15.68,1.91,20.6h0ZM32.8,1.82l7.42,7.42h-7.42V1.82h0Zm9.09,7.58L32.64.16c-.1-.1-.24-.16-.38-.16H13.14c-1.57,0-2.85,1.28-2.85,2.85v7.78C5.04,10.91.84,15.27.84,20.6s4.19,9.69,9.45,9.97v7.78c0,1.57,1.28,2.85,2.85,2.85h26.06c1.57,0,2.85-1.28,2.85-2.85V9.78c0-.14-.06-.28-.16-.38Z"></path><path class="cls-1" d="m14.32,16.37c-2.25,2.25-4.5,4.5-6.75,6.75-.32.32-.64.64-.96.96-.48.48.26,1.22.74.74,2.25-2.25,4.5-4.5,6.75-6.75.32-.32.64-.64.96-.96.48-.48-.26-1.22-.74-.74h0Z"></path><path class="cls-1" d="m15.06,24.09c-2.25-2.25-4.5-4.5-6.75-6.75-.32-.32-.64-.64-.96-.96-.48-.48-1.22.26-.74.74,2.25,2.25,4.5,4.5,6.75,6.75.32.32.64.64.96.96.48.48,1.22-.26.74-.74h0Z"></path></svg> 