<?xml version="1.0" encoding="UTF-8"?> <svg xmlns="http://www.w3.org/2000/svg" xmlns:xlink="http://www.w3.org/1999/xlink" version="1.1" x="0px" y="0px" viewBox="0 0 129.7 127.41" style="enable-background:new 0 0 129.7 127.41;" xml:space="preserve"> <style type="text/css"> .st0{display:none;} .st1{display:inline;fill-rule:evenodd;clip-rule:evenodd;fill:#3B3B3B;} .st2{fill:#FFFFFF;} .st3{fill:none;stroke:#313131;stroke-width:2.5;stroke-linecap:round;stroke-linejoin:round;stroke-miterlimit:10;} .st4{fill:none;stroke:#FFFFFF;stroke-width:2.5;stroke-linecap:round;stroke-linejoin:round;stroke-miterlimit:10;} .st5{fill:#313131;stroke:#313131;stroke-width:2.5;stroke-linecap:round;stroke-linejoin:round;stroke-miterlimit:10;} .st6{fill-rule:evenodd;clip-rule:evenodd;fill:#105EA3;} .st7{fill-rule:evenodd;clip-rule:evenodd;fill:#DB2728;} .st8{fill-rule:evenodd;clip-rule:evenodd;fill:none;stroke:#105EA3;stroke-width:2.5;stroke-miterlimit:10;} .st9{fill-rule:evenodd;clip-rule:evenodd;fill:#DB2728;stroke:#105EA3;stroke-width:2.5;stroke-miterlimit:10;} .st10{opacity:0;fill:#99B6C1;} .st11{opacity:0.0196;fill:#97B4BF;} .st12{opacity:0.0392;fill:#96B2BD;} .st13{opacity:0.0588;fill:#94B0BB;} .st14{opacity:0.0784;fill:#92AEB9;} .st15{opacity:0.098;fill:#90ACB7;} .st16{opacity:0.1176;fill:#8FAAB4;} .st17{opacity:0.1373;fill:#8DA9B2;} .st18{opacity:0.1569;fill:#8BA7B0;} .st19{opacity:0.1765;fill:#8AA5AE;} .st20{opacity:0.1961;fill:#88A3AC;} .st21{opacity:0.2157;fill:#86A1AA;} .st22{opacity:0.2353;fill:#859FA8;} .st23{opacity:0.2549;fill:#839DA6;} .st24{opacity:0.2745;fill:#819BA4;} .st25{opacity:0.2941;fill:#7F99A2;} .st26{opacity:0.3137;fill:#7E979F;} .st27{opacity:0.3333;fill:#7C959D;} .st28{opacity:0.3529;fill:#7A939B;} .st29{opacity:0.3725;fill:#799199;} .st30{opacity:0.3922;fill:#779097;} .st31{opacity:0.4118;fill:#758E95;} .st32{opacity:0.4314;fill:#738C93;} .st33{opacity:0.451;fill:#728A91;} .st34{opacity:0.4706;fill:#70888F;} .st35{opacity:0.4902;fill:#6E868D;} .st36{opacity:0.5098;fill:#6D848A;} .st37{opacity:0.5294;fill:#6B8288;} .st38{opacity:0.549;fill:#698086;} .st39{opacity:0.5686;fill:#687E84;} .st40{opacity:0.5882;fill:#667C82;} .st41{opacity:0.6078;fill:#647A80;} .st42{opacity:0.6275;fill:#62797E;} .st43{opacity:0.6471;fill:#61777C;} .st44{opacity:0.6667;fill:#5F757A;} .st45{opacity:0.6863;fill:#5D7378;} .st46{opacity:0.7059;fill:#5C7175;} .st47{opacity:0.7255;fill:#5A6F73;} .st48{opacity:0.7451;fill:#586D71;} .st49{opacity:0.7647;fill:#566B6F;} .st50{opacity:0.7843;fill:#55696D;} .st51{opacity:0.8039;fill:#53676B;} .st52{opacity:0.8235;fill:#516569;} .st53{opacity:0.8431;fill:#506367;} .st54{opacity:0.8627;fill:#4E6165;} .st55{opacity:0.8824;fill:#4C6063;} .st56{opacity:0.902;fill:#4B5E60;} .st57{opacity:0.9216;fill:#495C5E;} .st58{opacity:0.9412;fill:#475A5C;} .st59{opacity:0.9608;fill:#45585A;} .st60{opacity:0.9804;fill:#445658;} .st61{fill:#425456;} .st62{fill:#848484;} .st63{fill:#99B6C1;} .st64{fill:#28A7E8;} .st65{opacity:0.0196;fill:#98B5C0;} .st66{opacity:0.0392;fill:#97B4BE;} .st67{opacity:0.0588;fill:#96B3BD;} .st68{opacity:0.0784;fill:#95B1BC;} .st69{opacity:0.098;fill:#94B0BB;} .st70{opacity:0.1176;fill:#93AFB9;} .st71{opacity:0.1373;fill:#92AEB8;} .st72{opacity:0.1569;fill:#91ADB7;} .st73{opacity:0.1765;fill:#90ACB5;} .st74{opacity:0.1961;fill:#8FAAB4;} .st75{opacity:0.2157;fill:#8EA9B3;} .st76{opacity:0.2353;fill:#8DA8B1;} .st77{opacity:0.2549;fill:#8CA7B0;} .st78{opacity:0.2745;fill:#8BA6AF;} .st79{opacity:0.2941;fill:#8AA5AE;} .st80{opacity:0.3137;fill:#89A3AC;} .st81{opacity:0.3333;fill:#88A2AB;} .st82{opacity:0.3529;fill:#87A1AA;} .st83{opacity:0.3725;fill:#86A0A8;} .st84{opacity:0.3922;fill:#859FA7;} .st85{opacity:0.4118;fill:#849EA6;} .st86{opacity:0.4314;fill:#839DA5;} .st87{opacity:0.451;fill:#829BA3;} .st88{opacity:0.4706;fill:#819AA2;} .st89{opacity:0.4902;fill:#8099A1;} .st90{opacity:0.5098;fill:#80989F;} .st91{opacity:0.5294;fill:#7F979E;} .st92{opacity:0.549;fill:#7E969D;} .st93{opacity:0.5686;fill:#7D949B;} .st94{opacity:0.5882;fill:#7C939A;} .st95{opacity:0.6078;fill:#7B9299;} .st96{opacity:0.6275;fill:#7A9198;} .st97{opacity:0.6471;fill:#799096;} .st98{opacity:0.6667;fill:#788F95;} .st99{opacity:0.6863;fill:#778E94;} .st100{opacity:0.7059;fill:#768C92;} .st101{opacity:0.7255;fill:#758B91;} .st102{opacity:0.7451;fill:#748A90;} .st103{opacity:0.7647;fill:#73898F;} .st104{opacity:0.7843;fill:#72888D;} .st105{opacity:0.8039;fill:#71878C;} .st106{opacity:0.8235;fill:#70858B;} .st107{opacity:0.8431;fill:#6F8489;} .st108{opacity:0.8627;fill:#6E8388;} .st109{opacity:0.8824;fill:#6D8287;} .st110{opacity:0.902;fill:#6C8185;} .st111{opacity:0.9216;fill:#6B8084;} .st112{opacity:0.9412;fill:#6A7E83;} .st113{opacity:0.9608;fill:#697D82;} .st114{opacity:0.9804;fill:#687C80;} .st115{fill:#677B7F;} .st116{fill:#777777;} .st117{fill:#81A1AA;} .st118{fill:#9B9B9B;} .st119{opacity:0.0392;fill:#95B1BC;} .st120{opacity:0.0588;fill:#93AFBA;} .st121{opacity:0.0784;fill:#91ADB7;} .st122{opacity:0.098;fill:#8FAAB5;} .st123{opacity:0.1176;fill:#8DA8B2;} .st124{opacity:0.1373;fill:#8BA6B0;} .st125{opacity:0.1569;fill:#89A3AD;} .st126{opacity:0.1765;fill:#87A1AB;} .st127{opacity:0.1961;fill:#859FA8;} .st128{opacity:0.2157;fill:#839DA6;} .st129{opacity:0.2353;fill:#819AA3;} .st130{opacity:0.2549;fill:#7F98A1;} .st131{opacity:0.2745;fill:#7D969E;} .st132{opacity:0.2941;fill:#7B939C;} .st133{opacity:0.3137;fill:#799199;} .st134{opacity:0.3333;fill:#778F97;} .st135{opacity:0.3529;fill:#758C94;} .st136{opacity:0.3725;fill:#738A92;} .st137{opacity:0.3922;fill:#71888F;} .st138{opacity:0.4118;fill:#6F858D;} .st139{opacity:0.4314;fill:#6D838A;} .st140{opacity:0.451;fill:#6B8188;} .st141{opacity:0.4706;fill:#697E85;} .st142{opacity:0.4902;fill:#677C83;} .st143{opacity:0.5098;fill:#667A80;} .st144{opacity:0.5294;fill:#64787E;} .st145{opacity:0.549;fill:#62757B;} .st146{opacity:0.5686;fill:#607379;} .st147{opacity:0.5882;fill:#5E7176;} .st148{opacity:0.6078;fill:#5C6E74;} .st149{opacity:0.6275;fill:#5A6C71;} .st150{opacity:0.6471;fill:#586A6F;} .st151{opacity:0.6667;fill:#56676C;} .st152{opacity:0.6863;fill:#54656A;} .st153{opacity:0.7059;fill:#526367;} .st154{opacity:0.7255;fill:#506065;} .st155{opacity:0.7451;fill:#4E5E62;} .st156{opacity:0.7647;fill:#4C5C60;} .st157{opacity:0.7843;fill:#4A595D;} .st158{opacity:0.8039;fill:#48575B;} .st159{opacity:0.8235;fill:#465558;} .st160{opacity:0.8431;fill:#445356;} .st161{opacity:0.8627;fill:#425053;} .st162{opacity:0.8824;fill:#404E51;} .st163{opacity:0.902;fill:#3E4C4E;} .st164{opacity:0.9216;fill:#3C494C;} .st165{opacity:0.9412;fill:#3A4749;} .st166{opacity:0.9608;fill:#384547;} .st167{opacity:0.9804;fill:#364244;} .st168{fill:#344042;} .st169{fill:#DDE6E8;} .st170{fill:none;stroke:#FFFFFF;stroke-width:3;stroke-linecap:round;stroke-linejoin:round;stroke-miterlimit:10;} .st171{fill:none;stroke:#105EA3;stroke-width:5;stroke-linecap:round;stroke-linejoin:round;stroke-miterlimit:10;} .st172{fill:#FFFFFF;stroke:#FFFFFF;stroke-width:0.75;stroke-miterlimit:10;} .st173{fill:#86C4EA;} .st174{fill:#CCEEFF;} .st175{fill:none;stroke:#105EA3;stroke-width:3;stroke-linecap:round;stroke-linejoin:round;stroke-miterlimit:10;} .st176{fill:#105EA3;} .st177{fill:#105EA3;stroke:#105EA3;stroke-width:0.75;stroke-miterlimit:10;} .st178{fill-rule:evenodd;clip-rule:evenodd;fill:#FFFFFF;} .st179{display:inline;} .st180{fill:#DB2728;} .st181{fill:none;stroke:#000000;stroke-width:3;stroke-linecap:round;stroke-linejoin:round;stroke-miterlimit:10;} .st182{fill-rule:evenodd;clip-rule:evenodd;fill:none;stroke:#000000;stroke-width:3;stroke-linecap:round;stroke-linejoin:round;stroke-miterlimit:10;} .st183{fill:none;stroke:#000000;stroke-width:3;stroke-linecap:round;stroke-linejoin:round;} </style> <g id="Layer_2" class="st0"> </g> <g id="Ñëîé_6"> <g> <g> <g> <path class="st2" d="M101.8,97.7c-0.27,0-0.53-0.07-0.77-0.22C79.02,83.98,71.87,77.31,68.03,73.73 c-1.44-1.34-2.39-2.22-3.48-2.9c-0.42-0.26-0.96-0.31-1.44-0.12l-0.55,0.22c-2.75,1.09-5.34,2.8-7.69,5.09 c-2.67,2.59-5.64,4.28-8.84,5c-2.07,0.47-4.17-0.37-5.34-2.14c-1.17-1.76-1.13-4.01,0.1-5.73l7.56-10.55 c2.05-2.86,5.1-4.8,8.6-5.47c9.1-1.74,18.35-0.35,24.51,1.13c0.05,0.01,5.77,1.31,10.61,0.13c0.78-0.19,1.58,0.29,1.78,1.08 c0.19,0.79-0.29,1.58-1.08,1.78c-5.54,1.35-11.72-0.07-11.98-0.13c-5.89-1.41-14.69-2.74-23.28-1.1 c-2.75,0.53-5.15,2.05-6.76,4.29l-7.56,10.55c-0.79,1.1-0.23,2.11-0.04,2.39c0.19,0.29,0.92,1.2,2.24,0.9 c2.66-0.61,5.17-2.03,7.44-4.25c2.63-2.56,5.54-4.48,8.66-5.71l0.55-0.22c1.33-0.53,2.86-0.4,4.07,0.36 c1.34,0.83,2.42,1.85,3.93,3.25c3.73,3.48,10.63,9.92,31.91,23.01c1.41-0.59,4.75-2.05,7.21-3.66c0.68-0.44,1.59-0.25,2.03,0.43 c0.44,0.68,0.25,1.59-0.43,2.03c-3.44,2.25-8.21,4.13-8.41,4.21C102.17,97.67,101.99,97.7,101.8,97.7z"></path> </g> <g> <path class="st2" d="M49.55,64.92c-0.1,0-0.2-0.01-0.3-0.03c-8.46-1.77-10.92-3.1-12.56-3.98c-0.39-0.21-0.7-0.38-1.01-0.5 c-0.75-0.3-1.12-1.15-0.82-1.91c0.3-0.75,1.15-1.12,1.91-0.82c0.47,0.19,0.88,0.41,1.32,0.64c1.48,0.8,3.73,2.01,11.77,3.69 c0.8,0.17,1.3,0.95,1.14,1.74C50.84,64.44,50.23,64.92,49.55,64.92z"></path> </g> <g> <path class="st2" d="M32.95,106.82c-1.43,0-2.8-0.49-3.91-1.42l-0.59-0.49c-2.59-2.16-2.93-6.02-0.78-8.61l5.15-6.17 c2.16-2.59,6.02-2.94,8.61-0.78l0.59,0.49c2.59,2.16,2.94,6.02,0.78,8.61c-0.52,0.62-1.45,0.71-2.07,0.19 c-0.62-0.52-0.71-1.45-0.19-2.07c1.12-1.34,0.94-3.35-0.4-4.47l-0.59-0.49c-1.34-1.12-3.35-0.94-4.47,0.4l-5.15,6.17 c-1.12,1.34-0.94,3.35,0.4,4.47l0.59,0.49c0.65,0.54,1.47,0.8,2.32,0.72c0.84-0.08,1.61-0.48,2.15-1.13 c0.52-0.62,1.45-0.71,2.07-0.19c0.62,0.52,0.71,1.45,0.19,2.07c-1.05,1.25-2.52,2.03-4.14,2.17 C33.33,106.81,33.14,106.82,32.95,106.82z"></path> </g> <g> <path class="st2" d="M40.47,113.64c-1.43,0-2.8-0.49-3.91-1.42l-0.59-0.49c-2.59-2.16-2.94-6.02-0.78-8.61l7.35-8.8 c1.05-1.25,2.52-2.03,4.14-2.17c1.63-0.14,3.21,0.35,4.47,1.4l0.59,0.49c2.59,2.16,2.93,6.02,0.78,8.61 c-0.52,0.62-1.45,0.71-2.07,0.19c-0.62-0.52-0.71-1.45-0.19-2.07c1.12-1.34,0.94-3.35-0.4-4.47l-0.59-0.49 c-0.65-0.54-1.47-0.8-2.32-0.72c-0.84,0.08-1.61,0.48-2.15,1.13l-7.35,8.8c-1.12,1.34-0.94,3.35,0.4,4.47l0.59,0.49 c0.65,0.54,1.47,0.8,2.32,0.72c0.84-0.08,1.61-0.48,2.15-1.13c0.52-0.62,1.45-0.71,2.07-0.19c0.62,0.52,0.71,1.45,0.19,2.07 c-1.05,1.25-2.52,2.03-4.14,2.17C40.84,113.63,40.65,113.64,40.47,113.64z"></path> </g> <g> <path class="st2" d="M49.04,119.2c-1.38,0-2.77-0.47-3.91-1.42l-0.59-0.49c-2.59-2.16-2.94-6.02-0.78-8.61l7.35-8.8 c1.05-1.25,2.52-2.02,4.14-2.17c1.64-0.15,3.21,0.35,4.47,1.4l0.59,0.49c1.25,1.05,2.03,2.52,2.17,4.14 c0.15,1.63-0.35,3.21-1.4,4.47c-0.52,0.62-1.45,0.71-2.07,0.19c-0.62-0.52-0.71-1.45-0.19-2.07c0.54-0.65,0.8-1.47,0.72-2.32 c-0.08-0.84-0.48-1.61-1.13-2.15l-0.59-0.49c-0.65-0.54-1.48-0.8-2.32-0.72c-0.84,0.08-1.61,0.48-2.15,1.13l-7.35,8.8 c-0.54,0.65-0.8,1.47-0.72,2.32c0.08,0.84,0.48,1.61,1.13,2.15l0.59,0.49c1.34,1.12,3.35,0.94,4.47-0.4 c0.52-0.62,1.45-0.71,2.07-0.19c0.62,0.52,0.71,1.45,0.19,2.07C52.53,118.45,50.79,119.2,49.04,119.2z"></path> </g> <g> <path class="st2" d="M57.64,124.59c-1.43,0-2.8-0.49-3.91-1.42l-0.59-0.49c-1.25-1.05-2.02-2.52-2.17-4.14 c-0.15-1.63,0.35-3.21,1.4-4.47l7.35-8.8c1.05-1.25,2.52-2.03,4.15-2.17c1.63-0.14,3.21,0.35,4.47,1.4l0.59,0.49 c2.59,2.16,2.94,6.02,0.78,8.61l-7.35,8.8c-1.05,1.25-2.52,2.02-4.14,2.17C58.02,124.58,57.83,124.59,57.64,124.59z M64.42,106 c-0.1,0-0.19,0-0.29,0.01c-0.84,0.08-1.61,0.48-2.15,1.13l-7.35,8.8c-0.54,0.65-0.8,1.47-0.72,2.32 c0.08,0.84,0.48,1.61,1.13,2.15l0.59,0.49l0,0c0.65,0.54,1.48,0.8,2.32,0.72c0.84-0.08,1.61-0.48,2.15-1.13l7.35-8.8 c1.12-1.34,0.94-3.35-0.4-4.47l-0.59-0.49C65.87,106.26,65.16,106,64.42,106z"></path> </g> <g> <path class="st2" d="M72.73,124.43c-1.44,0-2.83-0.48-3.99-1.38l-4.11-3.21c-0.64-0.5-0.75-1.42-0.25-2.06 c0.5-0.64,1.42-0.75,2.06-0.25l4.11,3.21c0.75,0.59,1.68,0.84,2.62,0.73c0.94-0.12,1.78-0.59,2.37-1.34 c0.59-0.75,0.84-1.68,0.73-2.62c-0.12-0.94-0.59-1.78-1.34-2.37l-5.73-4.48c-0.64-0.5-0.75-1.42-0.25-2.06 c0.5-0.64,1.42-0.75,2.06-0.25l5.73,4.47c1.37,1.07,2.24,2.6,2.45,4.33c0.21,1.72-0.26,3.42-1.33,4.79 c-1.07,1.37-2.6,2.24-4.33,2.45C73.26,124.42,73,124.43,72.73,124.43z"></path> </g> <g> <path class="st2" d="M80.39,117.7c-1.44,0-2.83-0.48-3.99-1.38c-0.64-0.5-0.75-1.42-0.25-2.06c0.5-0.64,1.42-0.75,2.06-0.25 c0.75,0.59,1.68,0.84,2.62,0.73c0.94-0.12,1.78-0.59,2.37-1.34c0.59-0.75,0.84-1.68,0.73-2.62c-0.12-0.94-0.59-1.78-1.34-2.37 l-8.43-6.59c-0.64-0.5-0.75-1.42-0.25-2.06c0.5-0.64,1.42-0.75,2.06-0.25l8.43,6.59c1.37,1.07,2.24,2.6,2.45,4.33 c0.21,1.72-0.26,3.42-1.33,4.79c-1.07,1.37-2.6,2.24-4.33,2.45C80.92,117.68,80.66,117.7,80.39,117.7z"></path> </g> <g> <path class="st2" d="M88.42,111.36c-1.44,0-2.83-0.48-3.99-1.38l-1.9-1.63c-0.62-0.53-0.69-1.46-0.16-2.07 c0.53-0.61,1.46-0.68,2.07-0.16l1.85,1.59c1.49,1.17,3.73,0.89,4.94-0.66c0.59-0.75,0.84-1.68,0.73-2.62 c-0.12-0.94-0.59-1.79-1.34-2.37l-10.7-8.36c-0.64-0.5-0.75-1.42-0.25-2.06c0.5-0.64,1.42-0.75,2.06-0.25l10.7,8.36 c2.82,2.21,3.33,6.3,1.12,9.12c-1.07,1.37-2.6,2.24-4.33,2.45C88.96,111.35,88.69,111.36,88.42,111.36z"></path> </g> <g> <path class="st2" d="M95.5,104.35c-1.4,0-2.81-0.45-3.99-1.37c-0.64-0.5-0.75-1.42-0.25-2.06c0.5-0.64,1.42-0.75,2.06-0.25 c1.55,1.21,3.79,0.93,4.99-0.61c0.88-1.13,1-2.67,0.31-3.92c-0.39-0.71-0.14-1.6,0.57-2c0.71-0.39,1.6-0.14,2,0.57 c1.27,2.29,1.05,5.1-0.56,7.16C99.35,103.49,97.43,104.35,95.5,104.35z"></path> </g> <g> <path class="st2" d="M114.21,95.06c-1.72,0-3.39-0.89-4.31-2.48L91.5,60.71c-0.66-1.15-0.84-2.49-0.5-3.77 c0.34-1.28,1.17-2.35,2.31-3.02l4.12-2.38c2.37-1.37,5.42-0.55,6.79,1.82l18.39,31.86c1.37,2.37,0.55,5.42-1.82,6.79l0,0 l-4.12,2.38C115.9,94.84,115.05,95.06,114.21,95.06z M99.92,53.82c-0.34,0-0.69,0.09-1.01,0.27l-4.12,2.38 c-0.47,0.27-0.8,0.71-0.95,1.23c-0.14,0.52-0.07,1.07,0.2,1.54l18.39,31.86c0.56,0.97,1.8,1.3,2.77,0.74l4.12-2.38 c0.97-0.56,1.3-1.8,0.74-2.77l-18.39-31.86C101.3,54.19,100.62,53.82,99.92,53.82z M120.07,90.74L120.07,90.74L120.07,90.74z"></path> </g> <g> <path class="st2" d="M14.79,94.12c-0.86,0-1.71-0.23-2.48-0.67L8.2,91.08c-1.15-0.66-1.97-1.73-2.31-3.02 c-0.34-1.28-0.17-2.62,0.5-3.77l18.39-31.86c0.66-1.15,1.73-1.97,3.02-2.31c1.28-0.34,2.62-0.17,3.77,0.5l4.12,2.38 c1.15,0.66,1.97,1.73,2.31,3.02c0.34,1.28,0.17,2.62-0.5,3.77L19.1,91.64c-0.66,1.15-1.73,1.97-3.02,2.31 C15.65,94.06,15.22,94.12,14.79,94.12z M29.08,52.89c-0.18,0-0.35,0.02-0.53,0.07c-0.52,0.14-0.96,0.48-1.23,0.94L8.92,85.76 c-0.27,0.47-0.34,1.02-0.2,1.54c0.14,0.52,0.48,0.96,0.95,1.23l4.12,2.38l0,0c0.47,0.27,1.02,0.34,1.54,0.2 c0.52-0.14,0.96-0.48,1.23-0.95L34.95,58.3c0.27-0.47,0.34-1.02,0.2-1.54c-0.14-0.52-0.48-0.96-0.95-1.23l-4.12-2.38 C29.78,52.98,29.43,52.89,29.08,52.89z"></path> </g> <g> <path class="st2" d="M27.73,100.61c-0.39,0-0.78-0.16-1.07-0.46c-6.67-7.09-9.02-7.78-9.12-7.81c0.09,0.02,0.13,0.02,0.13,0.02 l0.31-2.92c0.69,0.07,3.5,0.91,10.82,8.7c0.56,0.59,0.53,1.52-0.06,2.08C28.45,100.48,28.09,100.61,27.73,100.61z"></path> </g> </g> <g> <path class="st2" d="M96.47,54.35c-0.8,0-1.45-0.64-1.47-1.44l-0.22-11.38v-20.6c0-0.81,0.66-1.47,1.47-1.47 c0.81,0,1.47,0.66,1.47,1.47v20.58l0.22,11.36c0.02,0.81-0.63,1.48-1.44,1.5C96.49,54.35,96.48,54.35,96.47,54.35z"></path> </g> <g> <path class="st2" d="M32.3,53.37c-0.81,0-1.47-0.66-1.47-1.47V2.71c0-0.81,0.66-1.47,1.47-1.47h45.74c0.81,0,1.47,0.66,1.47,1.47 c0,0.81-0.66,1.47-1.47,1.47H33.77V51.9C33.77,52.71,33.12,53.37,32.3,53.37z"></path> </g> <g> <path class="st2" d="M96.26,22.39H78.04c-0.81,0-1.47-0.66-1.47-1.47V2.71c0-0.59,0.36-1.13,0.91-1.36 c0.55-0.23,1.18-0.1,1.6,0.32l18.21,18.21c0.42,0.42,0.55,1.05,0.32,1.6S96.85,22.39,96.26,22.39z M79.51,19.45h13.19L79.51,6.25 V19.45z"></path> </g> <g> <path class="st2" d="M82.84,30.32h-36.9c-0.81,0-1.47-0.66-1.47-1.47c0-0.81,0.66-1.47,1.47-1.47h36.9 c0.81,0,1.47,0.66,1.47,1.47C84.31,29.66,83.65,30.32,82.84,30.32z"></path> </g> <g> <path class="st2" d="M82.84,40.52h-36.9c-0.81,0-1.47-0.66-1.47-1.47c0-0.81,0.66-1.47,1.47-1.47h36.9 c0.81,0,1.47,0.66,1.47,1.47C84.31,39.86,83.65,40.52,82.84,40.52z"></path> </g> <g> <path class="st2" d="M82.84,49.93h-36.9c-0.81,0-1.47-0.66-1.47-1.47c0-0.81,0.66-1.47,1.47-1.47h36.9 c0.81,0,1.47,0.66,1.47,1.47C84.31,49.27,83.65,49.93,82.84,49.93z"></path> </g> </g> </g> </svg> 