<?xml version="1.0" encoding="UTF-8"?> <svg xmlns="http://www.w3.org/2000/svg" xmlns:xlink="http://www.w3.org/1999/xlink" id="_Ñëîé_6" data-name="Ñëîé 6" viewBox="0 0 195.27 195.27"><defs><style> .cls-1 { fill: url(#linear-gradient); stroke-width: 0px; } .cls-2 { fill: none; stroke: #fff; stroke-linecap: round; stroke-linejoin: round; stroke-width: 2px; } </style><linearGradient id="linear-gradient" x1="165.24" y1="167.33" x2="30.3" y2="28.22" gradientUnits="userSpaceOnUse"><stop offset="0" stop-color="#1b87e8"></stop><stop offset="1" stop-color="#78c5ff"></stop></linearGradient></defs><rect class="cls-1" x="0" y="0" width="195.27" height="195.27" rx="97.64" ry="97.64"></rect><g><line class="cls-2" x1="110.33" y1="64.18" x2="101.84" y2="64.18"></line><line class="cls-2" x1="93.76" y1="64.18" x2="84.94" y2="64.18"></line><line class="cls-2" x1="93.44" y1="73.87" x2="84.67" y2="73.87"></line><line class="cls-2" x1="110.6" y1="73.87" x2="102.23" y2="73.87"></line><ellipse class="cls-2" cx="78.23" cy="67.86" rx="6.71" ry="19.3" transform="translate(-.53 .61) rotate(-.45)"></ellipse><path class="cls-2" d="m65.45,74.76c-3.05-4.6-2.81-10.59.67-14.59"></path><path class="cls-2" d="m62.38,79.47c-6.05-6.98-5.82-17.34.44-23.89"></path><ellipse class="cls-2" cx="117.04" cy="67.86" rx="19.3" ry="6.71" transform="translate(48.27 184.36) rotate(-89.55)"></ellipse><path class="cls-2" d="m129.82,74.76c3.05-4.6,2.81-10.59-.67-14.59"></path><path class="cls-2" d="m132.89,79.47c6.05-6.98,5.82-17.34-.44-23.89"></path><path class="cls-2" d="m91.17,140.24l2.9-85.22c.07-1.99,1.7-3.57,3.7-3.57.99,0,1.9.39,2.57,1.03.66.64,1.09,1.53,1.13,2.52l3.39,85.24"></path><rect class="cls-2" x="76.49" y="140.24" width="43.06" height="6.47"></rect></g></svg> 