<?xml version="1.0" encoding="UTF-8"?> <svg xmlns="http://www.w3.org/2000/svg" xmlns:xlink="http://www.w3.org/1999/xlink" id="_Ñëîé_6" data-name="Ñëîé 6" viewBox="0 0 195.27 195.27"><defs><style> .cls-1 { fill: url(#linear-gradient); stroke-width: 0px; } .cls-2 { fill: none; stroke: #fff; stroke-linecap: round; stroke-linejoin: round; stroke-width: 2px; } </style><linearGradient id="linear-gradient" x1="165.24" y1="167.33" x2="30.3" y2="28.22" gradientUnits="userSpaceOnUse"><stop offset="0" stop-color="#1b87e8"></stop><stop offset="1" stop-color="#78c5ff"></stop></linearGradient></defs><rect class="cls-1" x="0" y="0" width="195.27" height="195.27" rx="97.64" ry="97.64"></rect><g><line class="cls-2" x1="146.66" y1="97.64" x2="112.07" y2="97.64"></line><line class="cls-2" x1="83.2" y1="97.64" x2="48.62" y2="97.64"></line><line class="cls-2" x1="97.64" y1="146.66" x2="97.64" y2="112.07"></line><line class="cls-2" x1="97.64" y1="83.2" x2="97.64" y2="48.62"></line><path class="cls-2" d="m76.5,53.41c6.4-3.07,13.57-4.79,21.13-4.79,27.03,0,49.02,21.99,49.02,49.02,0,8.86-2.36,17.17-6.48,24.35"></path><path class="cls-2" d="m133.65,130.86c-8.96,9.71-21.79,15.8-36.01,15.8-27.03,0-49.02-21.99-49.02-49.02,0-15.53,7.26-29.39,18.55-38.38"></path><path class="cls-2" d="m130.85,80.26c2.73,5.2,4.28,11.11,4.28,17.38,0,20.67-16.82,37.49-37.49,37.49s-37.49-16.82-37.49-37.49,16.82-37.49,37.49-37.49c10.45,0,19.92,4.3,26.73,11.22"></path><path class="cls-2" d="m76.25,112.35c-2.89-4.18-4.58-9.25-4.58-14.71,0-14.32,11.65-25.96,25.97-25.96s25.96,11.65,25.96,25.96-11.65,25.97-25.96,25.97c-4.9,0-9.48-1.36-13.4-3.73"></path><circle class="cls-2" cx="97.64" cy="97.64" r="14.44"></circle><circle class="cls-2" cx="127.92" cy="75.58" r="5.52"></circle><circle class="cls-2" cx="71.67" cy="56.07" r="5.52"></circle><circle class="cls-2" cx="79.86" cy="116.51" r="5.52"></circle><circle class="cls-2" cx="137.13" cy="126.58" r="5.52"></circle></g></svg> 