<?xml version="1.0" encoding="UTF-8"?> <svg xmlns="http://www.w3.org/2000/svg" id="_Ñëîé_6" data-name="Ñëîé 6" viewBox="0 0 129.47 130"><defs><style> .cls-1 { stroke: #105ea3; } .cls-1, .cls-2 { fill: none; stroke-linecap: round; stroke-linejoin: round; stroke-width: 2px; } .cls-2 { stroke: #86c4ea; } </style></defs><path class="cls-1" d="m92.64,78.01l11.85,11.24c1.79,1.59,3.89,2.78,6.16,3.49l7.57,2.64"></path><path class="cls-1" d="m92.65,68.16v24.32c0,.48-.27.93-.71,1.12-.27.12-.55.18-.76.13l-14.14-3.48c-2.08-.51-4.18.77-4.67,2.86-.07.29-.1.59-.1.88,0,1.61,1.02,3.1,2.6,3.64l4.44,1.53c1.42.49,2.67,1.39,3.59,2.57,1.48,1.9,3.75,3,6.12,3,.38,0,.76-.02,1.14-.08l6.56-.98c.69-.1,1.38-.12,2.08-.07l8.77,6.57"></path><line class="cls-1" x1="74.65" y1="97.64" x2="64.32" y2="97.64"></line><path class="cls-2" d="m37.08,77.96l-12.1,11.29c-1.79,1.59-3.89,2.78-6.16,3.49l-7.57,2.64"></path><path class="cls-2" d="m37.12,93.43c.32.29.76.41,1.18.3l14.13-3.48c2.08-.51,4.18.77,4.68,2.86.07.29.1.59.1.88,0,1.61-1.02,3.1-2.6,3.64l-4.44,1.53c-1.42.49-2.67,1.39-3.59,2.57-1.48,1.9-3.75,3-6.12,3-.38,0-.76-.02-1.14-.08l-6.56-.98c-.68-.1-1.38-.12-2.08-.07l-8.77,6.57"></path><path class="cls-1" d="m33.52,37.48l8.71,16.38c.83,1.55.39,3.48-1.02,4.53h0c-1.58,1.17-3.81.84-4.98-.74l-9.74-13.18c-1.48-2-3.72-3.31-6.19-3.63h0c-2.85-.36-5.34-2.09-6.68-4.62l-1.41-2.67"></path><path class="cls-1" d="m46.05,40.11l-.97-3.12c-.54-1.72-1.26-3.38-2.2-4.92-.91-1.49-2.12-3.04-3.44-3.61l-19.79-8.64"></path><path class="cls-2" d="m95.95,37.48l-8.71,16.38c-.83,1.55-.39,3.48,1.02,4.53h0c1.58,1.17,3.81.84,4.98-.74l9.74-13.18c1.48-2,3.72-3.31,6.19-3.63h0c2.85-.36,5.34-2.09,6.68-4.62l1.41-2.67"></path><path class="cls-2" d="m83.43,40.11l.97-3.12c.54-1.72,1.26-3.38,2.2-4.92.91-1.49,2.12-3.04,3.44-3.61l19.79-8.64"></path><path class="cls-2" d="m92.65,58.77v9.39h-9.37c.47.77.75,1.68.75,2.66,0,2.85-2.31,5.15-5.15,5.15s-5.15-2.3-5.15-5.15c0-.95.26-1.83.71-2.6h-9.55"></path><path class="cls-2" d="m64.88,68.22v9.55c-.77-.45-1.66-.71-2.6-.71-2.85,0-5.15,2.31-5.15,5.15s2.3,5.15,5.15,5.15c.98,0,1.88-.27,2.66-.75v11.03"></path><line class="cls-1" x1="37.12" y1="58.6" x2="37.12" y2="68.27"></line><line class="cls-1" x1="64.83" y1="40.46" x2="35.11" y2="40.46"></line><line class="cls-2" x1="37.12" y1="93.43" x2="37.12" y2="87.94"></line><line class="cls-2" x1="64.94" y1="97.64" x2="54.61" y2="97.64"></line><path class="cls-2" d="m37.13,87.94v-19.67h9.36c-.47-.77-.75-1.68-.75-2.66,0-2.93,2.44-5.28,5.39-5.14,2.7.12,4.9,2.41,4.91,5.11,0,.96-.25,1.86-.7,2.63h9.55v-9.55c.97.57,2.13.83,3.36.65,2.3-.33,4.12-2.23,4.36-4.53.33-3.09-2.09-5.71-5.12-5.71-.98,0-1.88.27-2.66.74v-9.36h29.54"></path></svg> 