<?xml version="1.0" encoding="UTF-8"?> <svg xmlns="http://www.w3.org/2000/svg" id="_Ñëîé_6" data-name="Ñëîé 6" viewBox="0 0 1391.23 515.31"><defs><style> .cls-1 { fill: #db2728; } .cls-1, .cls-2 { fill-rule: evenodd; stroke-width: 0px; } .cls-2 { fill: #fff; } </style></defs><g><path class="cls-2" d="m26.48,14.61c0-4.25-3.45-7.7-7.7-7.7-4.25,0-7.7,3.45-7.7,7.7s3.45,7.7,7.7,7.7,7.7-3.45,7.7-7.7h0Z"></path><path class="cls-1" d="m18.78,5.33c-5.13,0-9.29,4.16-9.29,9.3s6.3,10.66,9.29,14.21c3-3.56,9.29-9.08,9.29-14.21s-4.16-9.3-9.29-9.3h0Zm5.92,9.28c0-3.27-2.65-5.92-5.92-5.92-3.27,0-5.92,2.65-5.92,5.92s2.65,5.92,5.92,5.92,5.92-2.65,5.92-5.92h0Z"></path><path class="cls-1" d="m21.57,14.61c0-1.54-1.25-2.79-2.79-2.79-1.54,0-2.79,1.25-2.79,2.79s1.25,2.79,2.79,2.79,2.79-1.25,2.79-2.79h0Z"></path></g><g><path class="cls-2" d="m111.15,52.21c0-4.25-3.45-7.7-7.7-7.7-4.25,0-7.7,3.45-7.7,7.7s3.45,7.7,7.7,7.7,7.7-3.45,7.7-7.7h0Z"></path><path class="cls-1" d="m103.44,42.92c-5.13,0-9.29,4.16-9.29,9.3s6.3,10.66,9.29,14.21c3-3.56,9.29-9.08,9.29-14.21s-4.16-9.3-9.29-9.3h0Zm5.92,9.28c0-3.27-2.65-5.92-5.92-5.92-3.27,0-5.92,2.65-5.92,5.92s2.65,5.92,5.92,5.92,5.92-2.65,5.92-5.92h0Z"></path><path class="cls-1" d="m106.23,52.21c0-1.54-1.25-2.79-2.79-2.79-1.54,0-2.79,1.25-2.79,2.79s1.25,2.79,2.79,2.79,2.79-1.25,2.79-2.79h0Z"></path></g><g><path class="cls-2" d="m214.59,142.73c0-4.25-3.45-7.7-7.7-7.7-4.25,0-7.7,3.45-7.7,7.7s3.45,7.7,7.7,7.7,7.7-3.45,7.7-7.7h0Z"></path><path class="cls-1" d="m206.88,133.44c-5.13,0-9.29,4.16-9.29,9.3s6.3,10.66,9.29,14.21c3-3.56,9.29-9.08,9.29-14.21s-4.16-9.3-9.29-9.3h0Zm5.92,9.28c0-3.27-2.65-5.92-5.92-5.92-3.27,0-5.92,2.65-5.92,5.92s2.65,5.92,5.92,5.92,5.92-2.65,5.92-5.92h0Z"></path><path class="cls-1" d="m209.67,142.73c0-1.54-1.25-2.79-2.79-2.79-1.54,0-2.79,1.25-2.79,2.79s1.25,2.79,2.79,2.79,2.79-1.25,2.79-2.79h0Z"></path></g><g><path class="cls-2" d="m317.83,274.27c0-4.25-3.45-7.7-7.7-7.7-4.25,0-7.7,3.45-7.7,7.7s3.45,7.7,7.7,7.7,7.7-3.45,7.7-7.7h0Z"></path><path class="cls-1" d="m310.12,264.99c-5.13,0-9.29,4.16-9.29,9.3s6.3,10.66,9.29,14.21c3-3.56,9.29-9.08,9.29-14.21s-4.16-9.3-9.29-9.3h0Zm5.92,9.28c0-3.27-2.65-5.92-5.92-5.92-3.27,0-5.92,2.65-5.92,5.92s2.65,5.92,5.92,5.92,5.92-2.65,5.92-5.92h0Z"></path><path class="cls-1" d="m312.91,274.27c0-1.54-1.25-2.79-2.79-2.79-1.54,0-2.79,1.25-2.79,2.79s1.25,2.79,2.79,2.79,2.79-1.25,2.79-2.79h0Z"></path></g><g><path class="cls-2" d="m325.62,147.74c0-4.25-3.45-7.7-7.7-7.7-4.25,0-7.7,3.45-7.7,7.7s3.45,7.7,7.7,7.7,7.7-3.45,7.7-7.7h0Z"></path><path class="cls-1" d="m317.91,138.45c-5.13,0-9.29,4.16-9.29,9.3s6.3,10.66,9.29,14.21c3-3.56,9.29-9.08,9.29-14.21s-4.16-9.3-9.29-9.3h0Zm5.92,9.28c0-3.27-2.65-5.92-5.92-5.92-3.27,0-5.92,2.65-5.92,5.92s2.65,5.92,5.92,5.92,5.92-2.65,5.92-5.92h0Z"></path><path class="cls-1" d="m320.7,147.74c0-1.54-1.25-2.79-2.79-2.79-1.54,0-2.79,1.25-2.79,2.79s1.25,2.79,2.79,2.79,2.79-1.25,2.79-2.79h0Z"></path></g><g><path class="cls-2" d="m432.97,139.35c0-4.25-3.45-7.7-7.7-7.7-4.25,0-7.7,3.45-7.7,7.7s3.45,7.7,7.7,7.7,7.7-3.45,7.7-7.7h0Z"></path><path class="cls-1" d="m425.27,130.06c-5.13,0-9.29,4.16-9.29,9.3s6.3,10.66,9.29,14.21c3-3.56,9.29-9.08,9.29-14.21s-4.16-9.3-9.29-9.3h0Zm5.92,9.28c0-3.27-2.65-5.92-5.92-5.92-3.27,0-5.92,2.65-5.92,5.92s2.65,5.92,5.92,5.92,5.92-2.65,5.92-5.92h0Z"></path><path class="cls-1" d="m428.06,139.35c0-1.54-1.25-2.79-2.79-2.79-1.54,0-2.79,1.25-2.79,2.79s1.25,2.79,2.79,2.79,2.79-1.25,2.79-2.79h0Z"></path></g><g><path class="cls-2" d="m578.77,244.27c0-4.25-3.45-7.7-7.7-7.7-4.25,0-7.7,3.45-7.7,7.7s3.45,7.7,7.7,7.7,7.7-3.45,7.7-7.7h0Z"></path><path class="cls-1" d="m571.07,234.99c-5.13,0-9.29,4.16-9.29,9.3s6.3,10.66,9.29,14.21c3-3.56,9.29-9.08,9.29-14.21s-4.16-9.3-9.29-9.3h0Zm5.92,9.28c0-3.27-2.65-5.92-5.92-5.92-3.27,0-5.92,2.65-5.92,5.92s2.65,5.92,5.92,5.92,5.92-2.65,5.92-5.92h0Z"></path><path class="cls-1" d="m573.86,244.27c0-1.54-1.25-2.79-2.79-2.79-1.54,0-2.79,1.25-2.79,2.79s1.25,2.79,2.79,2.79,2.79-1.25,2.79-2.79h0Z"></path></g><g><path class="cls-2" d="m629.3,262.52c0-4.25-3.45-7.7-7.7-7.7-4.25,0-7.7,3.45-7.7,7.7s3.45,7.7,7.7,7.7,7.7-3.45,7.7-7.7h0Z"></path><path class="cls-1" d="m621.59,253.24c-5.13,0-9.29,4.16-9.29,9.3s6.3,10.66,9.29,14.21c3-3.56,9.29-9.08,9.29-14.21s-4.16-9.3-9.29-9.3h0Zm5.92,9.28c0-3.27-2.65-5.92-5.92-5.92-3.27,0-5.92,2.65-5.92,5.92s2.65,5.92,5.92,5.92,5.92-2.65,5.92-5.92h0Z"></path><path class="cls-1" d="m624.38,262.52c0-1.54-1.25-2.79-2.79-2.79-1.54,0-2.79,1.25-2.79,2.79s1.25,2.79,2.79,2.79,2.79-1.25,2.79-2.79h0Z"></path></g><g><path class="cls-2" d="m777.34,310.7c0-4.25-3.45-7.7-7.7-7.7-4.25,0-7.7,3.45-7.7,7.7s3.45,7.7,7.7,7.7,7.7-3.45,7.7-7.7h0Z"></path><path class="cls-1" d="m769.64,301.42c-5.13,0-9.29,4.16-9.29,9.3s6.3,10.66,9.29,14.21c3-3.56,9.29-9.08,9.29-14.21s-4.16-9.3-9.29-9.3h0Zm5.92,9.28c0-3.27-2.65-5.92-5.92-5.92-3.27,0-5.92,2.65-5.92,5.92s2.65,5.92,5.92,5.92,5.92-2.65,5.92-5.92h0Z"></path><path class="cls-1" d="m772.43,310.7c0-1.54-1.25-2.79-2.79-2.79-1.54,0-2.79,1.25-2.79,2.79s1.25,2.79,2.79,2.79,2.79-1.25,2.79-2.79h0Z"></path></g><g><path class="cls-2" d="m839.03,286.03c0-4.25-3.45-7.7-7.7-7.7-4.25,0-7.7,3.45-7.7,7.7s3.45,7.7,7.7,7.7,7.7-3.45,7.7-7.7h0Z"></path><path class="cls-1" d="m831.32,276.74c-5.13,0-9.29,4.16-9.29,9.3s6.3,10.66,9.29,14.21c3-3.56,9.29-9.08,9.29-14.21s-4.16-9.3-9.29-9.3h0Zm5.92,9.28c0-3.27-2.65-5.92-5.92-5.92-3.27,0-5.92,2.65-5.92,5.92s2.65,5.92,5.92,5.92,5.92-2.65,5.92-5.92h0Z"></path><path class="cls-1" d="m834.11,286.03c0-1.54-1.25-2.79-2.79-2.79-1.54,0-2.79,1.25-2.79,2.79s1.25,2.79,2.79,2.79,2.79-1.25,2.79-2.79h0Z"></path></g><g><path class="cls-2" d="m1048.76,262.84c0-4.25-3.45-7.7-7.7-7.7-4.25,0-7.7,3.45-7.7,7.7s3.45,7.7,7.7,7.7,7.7-3.45,7.7-7.7h0Z"></path><path class="cls-1" d="m1041.05,253.55c-5.13,0-9.29,4.16-9.29,9.3s6.3,10.66,9.29,14.21c3-3.56,9.29-9.08,9.29-14.21s-4.16-9.3-9.29-9.3h0Zm5.92,9.28c0-3.27-2.65-5.92-5.92-5.92-3.27,0-5.92,2.65-5.92,5.92s2.65,5.92,5.92,5.92,5.92-2.65,5.92-5.92h0Z"></path><path class="cls-1" d="m1043.84,262.84c0-1.54-1.25-2.79-2.79-2.79-1.54,0-2.79,1.25-2.79,2.79s1.25,2.79,2.79,2.79,2.79-1.25,2.79-2.79h0Z"></path></g><g><path class="cls-2" d="m1147.45,188.91c0-4.25-3.45-7.7-7.7-7.7-4.25,0-7.7,3.45-7.7,7.7s3.45,7.7,7.7,7.7,7.7-3.45,7.7-7.7h0Z"></path><path class="cls-1" d="m1139.75,179.63c-5.13,0-9.29,4.16-9.29,9.3s6.3,10.66,9.29,14.21c3-3.56,9.29-9.08,9.29-14.21s-4.16-9.3-9.29-9.3h0Zm5.92,9.28c0-3.27-2.65-5.92-5.92-5.92-3.27,0-5.92,2.65-5.92,5.92s2.65,5.92,5.92,5.92,5.92-2.65,5.92-5.92h0Z"></path><path class="cls-1" d="m1142.54,188.91c0-1.54-1.25-2.79-2.79-2.79-1.54,0-2.79,1.25-2.79,2.79s1.25,2.79,2.79,2.79,2.79-1.25,2.79-2.79h0Z"></path></g><g><path class="cls-2" d="m1260.18,255.18c0-4.25-3.45-7.7-7.7-7.7-4.25,0-7.7,3.45-7.7,7.7s3.45,7.7,7.7,7.7,7.7-3.45,7.7-7.7h0Z"></path><path class="cls-1" d="m1252.48,245.9c-5.13,0-9.29,4.16-9.29,9.3s6.3,10.66,9.29,14.21c3-3.56,9.29-9.08,9.29-14.21s-4.16-9.3-9.29-9.3h0Zm5.92,9.28c0-3.27-2.65-5.92-5.92-5.92-3.27,0-5.92,2.65-5.92,5.92s2.65,5.92,5.92,5.92,5.92-2.65,5.92-5.92h0Z"></path><path class="cls-1" d="m1255.27,255.18c0-1.54-1.25-2.79-2.79-2.79-1.54,0-2.79,1.25-2.79,2.79s1.25,2.79,2.79,2.79,2.79-1.25,2.79-2.79h0Z"></path></g><g><path class="cls-2" d="m1386.6,243.43c0-4.25-3.45-7.7-7.7-7.7-4.25,0-7.7,3.45-7.7,7.7s3.45,7.7,7.7,7.7,7.7-3.45,7.7-7.7h0Z"></path><path class="cls-1" d="m1378.89,234.15c-5.13,0-9.29,4.16-9.29,9.3s6.3,10.66,9.29,14.21c3-3.56,9.29-9.08,9.29-14.21s-4.16-9.3-9.29-9.3h0Zm5.92,9.28c0-3.27-2.65-5.92-5.92-5.92-3.27,0-5.92,2.65-5.92,5.92s2.65,5.92,5.92,5.92,5.92-2.65,5.92-5.92h0Z"></path><path class="cls-1" d="m1381.68,243.43c0-1.54-1.25-2.79-2.79-2.79-1.54,0-2.79,1.25-2.79,2.79s1.25,2.79,2.79,2.79,2.79-1.25,2.79-2.79h0Z"></path></g><g><path class="cls-2" d="m1386.6,424.59c0-4.25-3.45-7.7-7.7-7.7-4.25,0-7.7,3.45-7.7,7.7s3.45,7.7,7.7,7.7,7.7-3.45,7.7-7.7h0Z"></path><path class="cls-1" d="m1378.89,415.31c-5.13,0-9.29,4.16-9.29,9.3s6.3,10.66,9.29,14.21c3-3.56,9.29-9.08,9.29-14.21s-4.16-9.3-9.29-9.3h0Zm5.92,9.28c0-3.27-2.65-5.92-5.92-5.92-3.27,0-5.92,2.65-5.92,5.92s2.65,5.92,5.92,5.92,5.92-2.65,5.92-5.92h0Z"></path><path class="cls-1" d="m1381.68,424.59c0-1.54-1.25-2.79-2.79-2.79-1.54,0-2.79,1.25-2.79,2.79s1.25,2.79,2.79,2.79,2.79-1.25,2.79-2.79h0Z"></path></g><g><path class="cls-2" d="m1344.84,292.94c0-4.25-3.45-7.7-7.7-7.7-4.25,0-7.7,3.45-7.7,7.7s3.45,7.7,7.7,7.7,7.7-3.45,7.7-7.7h0Z"></path><path class="cls-1" d="m1337.14,283.65c-5.13,0-9.29,4.16-9.29,9.3s6.3,10.66,9.29,14.21c3-3.56,9.29-9.08,9.29-14.21s-4.16-9.3-9.29-9.3h0Zm5.92,9.28c0-3.27-2.65-5.92-5.92-5.92-3.27,0-5.92,2.65-5.92,5.92s2.65,5.92,5.92,5.92,5.92-2.65,5.92-5.92h0Z"></path><path class="cls-1" d="m1339.93,292.94c0-1.54-1.25-2.79-2.79-2.79-1.54,0-2.79,1.25-2.79,2.79s1.25,2.79,2.79,2.79,2.79-1.25,2.79-2.79h0Z"></path></g><g><path class="cls-2" d="m923.72,123.29c0-4.25-3.45-7.7-7.7-7.7-4.25,0-7.7,3.45-7.7,7.7s3.45,7.7,7.7,7.7,7.7-3.45,7.7-7.7h0Z"></path><path class="cls-1" d="m916.01,114.01c-5.13,0-9.29,4.16-9.29,9.3s6.3,10.66,9.29,14.21c3-3.56,9.29-9.08,9.29-14.21s-4.16-9.3-9.29-9.3h0Zm5.92,9.28c0-3.27-2.65-5.92-5.92-5.92-3.27,0-5.92,2.65-5.92,5.92s2.65,5.92,5.92,5.92,5.92-2.65,5.92-5.92h0Z"></path><path class="cls-1" d="m918.8,123.29c0-1.54-1.25-2.79-2.79-2.79-1.54,0-2.79,1.25-2.79,2.79s1.25,2.79,2.79,2.79,2.79-1.25,2.79-2.79h0Z"></path></g><g><path class="cls-2" d="m678.65,189.69c0-4.25-3.45-7.7-7.7-7.7-4.25,0-7.7,3.45-7.7,7.7s3.45,7.7,7.7,7.7,7.7-3.45,7.7-7.7h0Z"></path><path class="cls-1" d="m670.94,180.4c-5.13,0-9.29,4.16-9.29,9.3s6.3,10.66,9.29,14.21c3-3.56,9.29-9.08,9.29-14.21s-4.16-9.3-9.29-9.3h0Zm5.92,9.28c0-3.27-2.65-5.92-5.92-5.92-3.27,0-5.92,2.65-5.92,5.92s2.65,5.92,5.92,5.92,5.92-2.65,5.92-5.92h0Z"></path><path class="cls-1" d="m673.73,189.69c0-1.54-1.25-2.79-2.79-2.79-1.54,0-2.79,1.25-2.79,2.79s1.25,2.79,2.79,2.79,2.79-1.25,2.79-2.79h0Z"></path></g><g><path class="cls-2" d="m703.32,41.64c0-4.25-3.45-7.7-7.7-7.7-4.25,0-7.7,3.45-7.7,7.7s3.45,7.7,7.7,7.7,7.7-3.45,7.7-7.7h0Z"></path><path class="cls-1" d="m695.62,32.36c-5.13,0-9.29,4.16-9.29,9.3s6.3,10.66,9.29,14.21c3-3.56,9.29-9.08,9.29-14.21s-4.16-9.3-9.29-9.3h0Zm5.92,9.28c0-3.27-2.65-5.92-5.92-5.92-3.27,0-5.92,2.65-5.92,5.92s2.65,5.92,5.92,5.92,5.92-2.65,5.92-5.92h0Z"></path><path class="cls-1" d="m698.4,41.64c0-1.54-1.25-2.79-2.79-2.79-1.54,0-2.79,1.25-2.79,2.79s1.25,2.79,2.79,2.79,2.79-1.25,2.79-2.79h0Z"></path></g><g><path class="cls-2" d="m388.32,348.84c0-4.25-3.45-7.7-7.7-7.7-4.25,0-7.7,3.45-7.7,7.7s3.45,7.7,7.7,7.7,7.7-3.45,7.7-7.7h0Z"></path><path class="cls-1" d="m380.61,339.56c-5.13,0-9.29,4.16-9.29,9.3s6.3,10.66,9.29,14.21c3-3.56,9.29-9.08,9.29-14.21s-4.16-9.3-9.29-9.3h0Zm5.92,9.28c0-3.27-2.65-5.92-5.92-5.92-3.27,0-5.92,2.65-5.92,5.92s2.65,5.92,5.92,5.92,5.92-2.65,5.92-5.92h0Z"></path><path class="cls-1" d="m383.4,348.84c0-1.54-1.25-2.79-2.79-2.79-1.54,0-2.79,1.25-2.79,2.79s1.25,2.79,2.79,2.79,2.79-1.25,2.79-2.79h0Z"></path></g><g><path class="cls-2" d="m423.68,384.72c0-4.25-3.45-7.7-7.7-7.7-4.25,0-7.7,3.45-7.7,7.7s3.45,7.7,7.7,7.7,7.7-3.45,7.7-7.7h0Z"></path><path class="cls-1" d="m415.98,375.44c-5.13,0-9.29,4.16-9.29,9.3s6.3,10.66,9.29,14.21c3-3.56,9.29-9.08,9.29-14.21s-4.16-9.3-9.29-9.3h0Zm5.92,9.28c0-3.27-2.65-5.92-5.92-5.92-3.27,0-5.92,2.65-5.92,5.92s2.65,5.92,5.92,5.92,5.92-2.65,5.92-5.92h0Z"></path><path class="cls-1" d="m418.77,384.72c0-1.54-1.25-2.79-2.79-2.79-1.54,0-2.79,1.25-2.79,2.79s1.25,2.79,2.79,2.79,2.79-1.25,2.79-2.79h0Z"></path></g><g><path class="cls-2" d="m505.93,372.39c0-4.25-3.45-7.7-7.7-7.7-4.25,0-7.7,3.45-7.7,7.7s3.45,7.7,7.7,7.7,7.7-3.45,7.7-7.7h0Z"></path><path class="cls-1" d="m498.22,363.1c-5.13,0-9.29,4.16-9.29,9.3s6.3,10.66,9.29,14.21c3-3.56,9.29-9.08,9.29-14.21s-4.16-9.3-9.29-9.3h0Zm5.92,9.28c0-3.27-2.65-5.92-5.92-5.92-3.27,0-5.92,2.65-5.92,5.92s2.65,5.92,5.92,5.92,5.92-2.65,5.92-5.92h0Z"></path><path class="cls-1" d="m501.01,372.39c0-1.54-1.25-2.79-2.79-2.79-1.54,0-2.79,1.25-2.79,2.79s1.25,2.79,2.79,2.79,2.79-1.25,2.79-2.79h0Z"></path></g><g><path class="cls-2" d="m501.18,402.97c0-4.25-3.45-7.7-7.7-7.7-4.25,0-7.7,3.45-7.7,7.7s3.45,7.7,7.7,7.7,7.7-3.45,7.7-7.7h0Z"></path><path class="cls-1" d="m493.48,393.69c-5.13,0-9.29,4.16-9.29,9.3s6.3,10.66,9.29,14.21c3-3.56,9.29-9.08,9.29-14.21s-4.16-9.3-9.29-9.3h0Zm5.92,9.28c0-3.27-2.65-5.92-5.92-5.92-3.27,0-5.92,2.65-5.92,5.92s2.65,5.92,5.92,5.92,5.92-2.65,5.92-5.92h0Z"></path><path class="cls-1" d="m496.27,402.97c0-1.54-1.25-2.79-2.79-2.79-1.54,0-2.79,1.25-2.79,2.79s1.25,2.79,2.79,2.79,2.79-1.25,2.79-2.79h0Z"></path></g><g><path class="cls-2" d="m631,410.98c0-4.25-3.45-7.7-7.7-7.7-4.25,0-7.7,3.45-7.7,7.7s3.45,7.7,7.7,7.7,7.7-3.45,7.7-7.7h0Z"></path><path class="cls-1" d="m623.29,401.69c-5.13,0-9.29,4.16-9.29,9.3s6.3,10.66,9.29,14.21c3-3.56,9.29-9.08,9.29-14.21s-4.16-9.3-9.29-9.3h0Zm5.92,9.28c0-3.27-2.65-5.92-5.92-5.92-3.27,0-5.92,2.65-5.92,5.92s2.65,5.92,5.92,5.92,5.92-2.65,5.92-5.92h0Z"></path><path class="cls-1" d="m626.08,410.98c0-1.54-1.25-2.79-2.79-2.79-1.54,0-2.79,1.25-2.79,2.79s1.25,2.79,2.79,2.79,2.79-1.25,2.79-2.79h0Z"></path></g><g><path class="cls-2" d="m681.69,422.73c0-4.25-3.45-7.7-7.7-7.7-4.25,0-7.7,3.45-7.7,7.7s3.45,7.7,7.7,7.7,7.7-3.45,7.7-7.7h0Z"></path><path class="cls-1" d="m673.99,413.45c-5.13,0-9.29,4.16-9.29,9.3s6.3,10.66,9.29,14.21c3-3.56,9.29-9.08,9.29-14.21s-4.16-9.3-9.29-9.3h0Zm5.92,9.28c0-3.27-2.65-5.92-5.92-5.92-3.27,0-5.92,2.65-5.92,5.92s2.65,5.92,5.92,5.92,5.92-2.65,5.92-5.92h0Z"></path><path class="cls-1" d="m676.78,422.73c0-1.54-1.25-2.79-2.79-2.79-1.54,0-2.79,1.25-2.79,2.79s1.25,2.79,2.79,2.79,2.79-1.25,2.79-2.79h0Z"></path></g><g><path class="cls-2" d="m888.37,471.08c0-4.25-3.45-7.7-7.7-7.7-4.25,0-7.7,3.45-7.7,7.7s3.45,7.7,7.7,7.7,7.7-3.45,7.7-7.7h0Z"></path><path class="cls-1" d="m880.67,461.8c-5.13,0-9.29,4.16-9.29,9.3s6.3,10.66,9.29,14.21c3-3.56,9.29-9.08,9.29-14.21s-4.16-9.3-9.29-9.3h0Zm5.92,9.28c0-3.27-2.65-5.92-5.92-5.92-3.27,0-5.92,2.65-5.92,5.92s2.65,5.92,5.92,5.92,5.92-2.65,5.92-5.92h0Z"></path><path class="cls-1" d="m883.46,471.08c0-1.54-1.25-2.79-2.79-2.79-1.54,0-2.79,1.25-2.79,2.79s1.25,2.79,2.79,2.79,2.79-1.25,2.79-2.79h0Z"></path></g><g><path class="cls-2" d="m541.24,392.31c0-4.25-3.45-7.7-7.7-7.7-4.25,0-7.7,3.45-7.7,7.7s3.45,7.7,7.7,7.7,7.7-3.45,7.7-7.7h0Z"></path><path class="cls-1" d="m533.54,383.03c-5.13,0-9.29,4.16-9.29,9.3s6.3,10.66,9.29,14.21c3-3.56,9.29-9.08,9.29-14.21s-4.16-9.3-9.29-9.3h0Zm5.92,9.28c0-3.27-2.65-5.92-5.92-5.92-3.27,0-5.92,2.65-5.92,5.92s2.65,5.92,5.92,5.92,5.92-2.65,5.92-5.92h0Z"></path><path class="cls-1" d="m536.33,392.31c0-1.54-1.25-2.79-2.79-2.79-1.54,0-2.79,1.25-2.79,2.79s1.25,2.79,2.79,2.79,2.79-1.25,2.79-2.79h0Z"></path></g></svg> 