<?xml version="1.0" encoding="UTF-8"?> <svg xmlns="http://www.w3.org/2000/svg" id="_Ñëîé_6" data-name="Ñëîé 6" viewBox="0 0 129.7 127.41"><defs><style> .cls-1 { fill: none; stroke: #fff; stroke-linecap: round; stroke-linejoin: round; stroke-width: 3px; } </style></defs><path class="cls-1" d="m20.48,18.54h12.85c1.08,0,1.96-.88,1.96-1.96V3.85"></path><line class="cls-1" x1="57.12" y1="30.04" x2="82.88" y2="30.04"></line><line class="cls-1" x1="32.14" y1="30.04" x2="46.83" y2="30.04"></line><line class="cls-1" x1="76.03" y1="40.91" x2="82.88" y2="40.91"></line><line class="cls-1" x1="32.14" y1="40.91" x2="66.34" y2="40.91"></line><line class="cls-1" x1="32.14" y1="73.52" x2="59.74" y2="73.52"></line><line class="cls-1" x1="50.48" y1="62.65" x2="82.88" y2="62.65"></line><line class="cls-1" x1="32.14" y1="62.65" x2="40.78" y2="62.65"></line><line class="cls-1" x1="32.14" y1="51.78" x2="82.88" y2="51.78"></line><path class="cls-1" d="m95.56,76V8.38c0-2.55-2.07-4.62-4.62-4.62h-54.81c-1.22,0-2.4.49-3.26,1.35l-12.07,12.07c-.87.87-1.35,2.04-1.35,3.26v83.71c0,2.55,2.07,4.62,4.62,4.62h37.44"></path><path class="cls-1" d="m84.69,73.52c-13.84,0-25.06,11.22-25.06,25.06s11.22,25.06,25.06,25.06c13.84,0,25.06-11.22,25.06-25.06s-11.22-25.06-25.06-25.06Z"></path><line class="cls-1" x1="84.69" y1="109.47" x2="84.69" y2="94.22"></line><line class="cls-1" x1="80.88" y1="109.47" x2="88.51" y2="109.47"></line><line class="cls-1" x1="80.88" y1="95.86" x2="84.69" y2="94.22"></line><line class="cls-1" x1="84.69" y1="86.11" x2="84.69" y2="85.73"></line></svg> 